<?xml version="1.0" standalone="no"?>
<!DOCTYPE svg PUBLIC "-//W3C//DTD SVG 1.1//EN" "http://www.w3.org/Graphics/SVG/1.1/DTD/svg11.dtd" >
<svg xmlns="http://www.w3.org/2000/svg" xmlns:xlink="http://www.w3.org/1999/xlink" version="1.1">
<metadata>
Created by FontForge 20161003 at Tue Dec 13 23:04:07 2016
 By www-data
(c) 2012 Klim Type Foundry. All Rights Reserved.
</metadata>
<defs>
<font id="PitchMedium" horiz-adv-x="614" >
  <font-face 
    font-family="PitchMedium"
    font-weight="500"
    font-stretch="normal"
    units-per-em="1000"
    panose-1="2 6 6 9 3 2 6 6 2 3"
    ascent="762"
    descent="-238"
    x-height="424"
    cap-height="570"
    bbox="0 -295 701 992"
    underline-thickness="55"
    underline-position="-151"
    unicode-range="U+0020-2265"
  />
<missing-glyph 
 />
    <glyph glyph-name=".notdef" 
 />
    <glyph glyph-name=".null" horiz-adv-x="0" 
 />
    <glyph glyph-name="nonmarkingreturn" 
 />
    <glyph glyph-name="space" unicode=" " 
 />
    <glyph glyph-name="exclam" unicode="!" 
d="M307 -12q-28 0 -48 20t-20 49t20 49t48 20q29 0 49 -20t20 -49t-20 -49t-49 -20zM325 195h-36l-38 320q-5 29 11.5 49t44.5 20q29 0 45 -20t12 -49z" />
    <glyph glyph-name="quotedbl" unicode="&#x22;" 
d="M419 328h-24l-32 168q-11 53 -11 70q0 27 14.5 44t41.5 17t41 -17t14 -44q0 -22 -10 -70zM219 328h-24l-32 168q-11 53 -11 70q0 27 14.5 44t41.5 17t41 -17t14 -44q0 -22 -10 -70z" />
    <glyph glyph-name="numbersign" unicode="#" 
d="M365 228l29 114h-144l-29 -114h144zM208 177l-46 -177h-57l45 177h-111l14 51h110l30 114h-115l13 51h115l45 177h58l-46 -177h144l46 177h56l-45 -177h111l-14 -51h-110l-30 -114h115l-13 -51h-115l-45 -177h-57l46 177h-144z" />
    <glyph glyph-name="dollar" unicode="$" 
d="M277 335v191q-57 -5 -93.5 -31.5t-36.5 -66.5q0 -35 26 -55t78 -32zM334 43l2 1q62 6 101 37t39 76q0 38 -23.5 57t-62.5 29l-56 13v-213zM334 -155h-57v141q-94 6 -155.5 43.5t-61.5 100.5q0 28 17.5 48t43.5 20t42 -15.5t16 -39.5q0 -41 -37 -46q9 -20 47 -35t88 -19
v227l-36 8q-81 19 -120.5 53t-39.5 97q0 66 55 108t141 47v128h57v-128q85 -8 139 -48t54 -95q0 -27 -16.5 -45.5t-40.5 -18.5t-39.5 15t-15.5 36q0 17 9.5 29.5t25.5 14.5q-21 45 -116 54v-203l71 -16q137 -31 137 -149q0 -70 -58 -117t-150 -54v-141z" />
    <glyph glyph-name="percent" unicode="%" 
d="M461 42q30 0 51 21t21 51t-21 51.5t-51 21.5q-31 0 -52 -21.5t-21 -51.5t21 -51t52 -21zM461 240q52 0 88.5 -37t36.5 -89t-36.5 -89t-88.5 -37t-89 37t-37 89t36.5 89t89.5 37zM153 531q-30 0 -51 -21.5t-21 -51.5t21 -51t51 -21t51.5 21t21.5 51t-21.5 51.5t-51.5 21.5
zM534 583l36 -31l-489 -562l-36 31zM153 584q53 0 89.5 -37t36.5 -89t-37 -88.5t-89 -36.5t-88.5 36.5t-36.5 88.5t36.5 89t88.5 37z" />
    <glyph glyph-name="ampersand" unicode="&#x26;" 
d="M232 346q51 28 72.5 50.5t21.5 52.5q0 32 -20.5 55t-59.5 23q-32 0 -53.5 -22t-21.5 -54q0 -23 10.5 -41t36.5 -48zM195 48q38 0 68 18t66 56l9 9l-127 144q-62 -34 -88.5 -62.5t-26.5 -68.5q0 -41 29.5 -68.5t69.5 -27.5zM370 80q-47 -48 -86 -70.5t-89 -22.5
q-67 0 -115.5 43.5t-48.5 113.5q0 59 34.5 97.5t108.5 75.5l-5 6q-20 23 -30 35.5t-21.5 39.5t-11.5 53q0 57 40 95t101 38q67 0 105 -38t38 -97q0 -48 -33.5 -82.5t-87.5 -62.5l112 -127l136 141l43 -43l-139 -143l65 -74h106v-58h-172v38l-43 49z" />
    <glyph glyph-name="quotesingle" unicode="'" 
d="M319 328h-24l-32 168q-11 53 -11 70q0 27 14.5 44t41.5 17t41 -17t14 -44q0 -22 -10 -70z" />
    <glyph glyph-name="parenleft" unicode="(" 
d="M231 256q0 -111 60 -202.5t161 -152.5l-34 -49q-251 152 -251 404t251 404l35 -49q-101 -61 -161.5 -152.5t-60.5 -202.5z" />
    <glyph glyph-name="parenright" unicode=")" 
d="M383 256q0 111 -60.5 202.5t-161.5 152.5l35 49q251 -152 251 -404t-251 -404l-34 49q101 61 161 152.5t60 202.5z" />
    <glyph glyph-name="asterisk" unicode="*" 
d="M259 447l-138 79l25 42l137 -78v158h49v-158l137 78l24 -42l-137 -79l137 -79l-24 -42l-137 79v-158h-49v158l-137 -79l-25 42z" />
    <glyph glyph-name="plus" unicode="+" 
d="M336 262v-198h-58v198h-198v58h198v198h58v-198h198v-58h-198z" />
    <glyph glyph-name="comma" unicode="," 
d="M229 67q0 33 22.5 55t55.5 22q32 0 54.5 -23t22.5 -56q0 -27 -23 -58l-133 -182l-38 24l92 149q-23 7 -38 25.5t-15 43.5z" />
    <glyph glyph-name="hyphen" unicode="-" 
d="M185 237v74h244v-74h-244z" />
    <glyph glyph-name="period" unicode="." 
d="M230 66q0 32 22.5 55t54.5 23t55 -23t23 -55t-23 -55t-55 -23t-54.5 23t-22.5 55z" />
    <glyph glyph-name="slash" unicode="/" 
d="M66 -106l428 746l55 -31l-428 -745z" />
    <glyph glyph-name="zero" unicode="0" 
d="M69 285q0 129 65.5 214t172.5 85t172.5 -85t65.5 -214t-65.5 -214t-172.5 -85t-172.5 85t-65.5 214zM476 285q0 101 -45 168.5t-124 67.5t-124 -67.5t-45 -168.5t45 -168.5t124 -67.5t124 67.5t45 168.5z" />
    <glyph glyph-name="one" unicode="1" 
d="M88 443l186 127h84v-486l26 -26h174v-58h-475v58h183l26 26v422l-169 -115z" />
    <glyph glyph-name="two" unicode="2" 
d="M124 405l-51 38q41 62 103 101.5t134 39.5q86 0 134 -45.5t48 -118.5q0 -31 -11.5 -59.5t-39 -57t-45.5 -44t-56 -46.5l-193 -155h283l27 26v88h61v-172h-444v75l221 183q39 32 53 44.5t36 35.5t29.5 42.5t7.5 41.5q0 45 -30 72t-81 27q-53 0 -101.5 -32t-84.5 -84z" />
    <glyph glyph-name="three" unicode="3" 
d="M168 304l244 205h-315v61h381v-77l-189 -154q21 8 44 8q78 0 122.5 -47t44.5 -116q0 -63 -33 -114t-90.5 -84.5t-124.5 -55t-145 -32.5l-13 60q341 56 341 226q0 49 -32 80t-88 31q-60 0 -115 -34z" />
    <glyph glyph-name="four" unicode="4" 
d="M575 136h-119l-26 -26v-110h-65v110l-26 26h-283v77q72 84 148.5 202t116.5 216l66 -20q-69 -162 -263 -417h241v142h65v-142h145v-58z" />
    <glyph glyph-name="five" unicode="5" 
d="M119 -103l-12 60q335 54 335 223q0 44 -30.5 75t-86.5 31q-76 0 -124 -59h-83l15 343h351v-62h-293l-11 -221q23 26 63.5 42.5t83.5 16.5q88 0 134 -49.5t46 -116.5q0 -63 -32.5 -113.5t-89 -83.5t-122.5 -54t-144 -32z" />
    <glyph glyph-name="six" unicode="6" 
d="M317 395q90 0 150 -58t60 -147q0 -85 -63 -144.5t-152 -59.5q-56 0 -105 24.5t-78 69.5q-36 59 -36 140q0 142 99.5 252t273.5 158l19 -59q-232 -63 -304 -244q52 68 136 68zM461 190q0 61 -43.5 103t-105.5 42t-105.5 -42t-43.5 -103t43.5 -102.5t105.5 -41.5
t105.5 41.5t43.5 102.5z" />
    <glyph glyph-name="seven" unicode="7" 
d="M168 509l-26 -26v-105h-60v192h465v-71l-298 -604l-58 26l289 588h-312z" />
    <glyph glyph-name="eight" unicode="8" 
d="M307 340q58 0 94 29.5t36 80.5q0 53 -35.5 82t-94.5 29t-94.5 -29t-35.5 -82q0 -51 36 -80.5t94 -29.5zM307 48q64 0 105.5 30t41.5 84q0 56 -40 85.5t-107 29.5t-107 -29.5t-40 -85.5q0 -54 41.5 -84t105.5 -30zM307 -13q-91 0 -153 47.5t-62 127.5q0 54 32 92.5
t84 50.5v8q-41 13 -69 49t-28 88q0 77 55 124.5t141 47.5t141 -47.5t55 -124.5q0 -52 -28 -88t-69 -49v-8q52 -12 84 -50.5t32 -92.5q0 -80 -62 -127.5t-153 -47.5z" />
    <glyph glyph-name="nine" unicode="9" 
d="M300 175q-90 0 -150 58.5t-60 146.5q0 86 62.5 145t152.5 59q56 0 104.5 -24t77.5 -69q36 -58 36 -140q0 -151 -106.5 -277.5t-284.5 -175.5l-19 59q131 35 211 114t112 174q-50 -70 -136 -70zM156 380q0 -61 43.5 -103t105.5 -42t105 42t43 103t-43 103t-105 42
t-105.5 -42t-43.5 -103z" />
    <glyph glyph-name="colon" unicode=":" 
d="M230 66q0 32 22.5 55t54.5 23t55 -23t23 -55t-23 -55t-55 -23t-54.5 23t-22.5 55zM230 344q0 32 22.5 55t54.5 23t55 -23t23 -55t-23 -55t-55 -23t-54.5 23t-22.5 55z" />
    <glyph glyph-name="semicolon" unicode=";" 
d="M229 67q0 33 22.5 55t55.5 22q32 0 54.5 -23t22.5 -56q0 -27 -23 -58l-133 -182l-38 24l92 149q-23 7 -38 25.5t-15 43.5zM230 344q0 32 22.5 55t54.5 23t55 -23t23 -55t-23 -55t-55 -23t-54.5 23t-22.5 55z" />
    <glyph glyph-name="less" unicode="&#x3c;" 
d="M107 239v70l385 177v-67l-325 -145l325 -145v-67z" />
    <glyph glyph-name="equal" unicode="=" 
d="M85 173v55h445v-55h-445zM85 325v56h445v-56h-445z" />
    <glyph glyph-name="greater" unicode="&#x3e;" 
d="M507 234l-385 -177v67l325 145l-325 145v67l385 -177v-70z" />
    <glyph glyph-name="question" unicode="?" 
d="M327 185h-73v105q97 21 144 48t47 81q0 53 -41.5 80.5t-104.5 27.5q-53 0 -91 -21t-44 -47q45 -14 45 -50q0 -21 -17 -37t-42 -16q-27 0 -46 20t-19 50q0 67 61.5 112.5t152.5 45.5q93 0 153.5 -44.5t60.5 -120.5q0 -70 -48 -108.5t-138 -61.5v-64zM220 57q0 29 20 49
t48 20t48.5 -20t20.5 -49t-20.5 -49t-48.5 -20t-48 20t-20 49z" />
    <glyph glyph-name="at" unicode="@" 
d="M447 185q-34 -46 -105 -46q-61 0 -101.5 36.5t-40.5 91.5t40.5 92t101.5 37q70 0 102 -45v11q0 200 -152 200q-80 0 -124.5 -57t-44.5 -159v-145q0 -101 48 -157.5t126 -56.5q85 0 160 58l27 -49q-34 -30 -85.5 -48.5t-101.5 -18.5q-108 0 -171.5 72t-63.5 200v145
q0 129 61 201t169 72q105 0 157.5 -68t52.5 -194v-128q0 -38 31 -38q15 0 42 24l21 -43q-36 -36 -76 -36q-51 0 -73 49zM442 247v40q-30 56 -92 56q-39 0 -63.5 -21.5t-24.5 -54.5t24.5 -54.5t63.5 -21.5q61 0 92 56z" />
    <glyph glyph-name="A" unicode="A" 
d="M400 252l-96 253l-95 -253h191zM238 58v-58h-228v58h62l197 512h76l197 -512h62v-58h-233v58h71l23 21l-43 115h-235l-43 -115l23 -21h71z" />
    <glyph glyph-name="B" unicode="B" 
d="M206 268v-210h120q163 0 163 105t-163 105h-120zM314 324q149 0 149 95q0 93 -149 93h-108v-188h108zM427 300q53 -5 90 -45t37 -92q0 -163 -226 -163h-293v58h83l26 26v402l-26 26h-83v58h282q104 0 157.5 -39t53.5 -112q0 -45 -26.5 -76.5t-74.5 -42.5z" />
    <glyph glyph-name="C" unicode="C" 
d="M506 138l41 -45q-90 -107 -223 -107q-120 0 -192.5 85t-72.5 214t71.5 214t190.5 85q45 0 84.5 -19.5t62.5 -51.5l13 6v51h58v-196h-46q-23 68 -68 107.5t-104 39.5q-92 0 -142.5 -67t-50.5 -169q0 -101 52.5 -168.5t143.5 -67.5q107 0 182 89z" />
    <glyph glyph-name="D" unicode="D" 
d="M185 58h71q115 0 176.5 63.5t61.5 163.5t-61.5 163.5t-176.5 63.5h-71v-454zM256 0h-221v58h62l26 26v402l-26 26h-62v58h221q146 0 226.5 -79.5t80.5 -205.5t-80.5 -205.5t-226.5 -79.5z" />
    <glyph glyph-name="E" unicode="E" 
d="M206 58h254l26 26v108h60v-192h-511v58h83l26 26v402l-26 26h-83v58h505v-192h-60v108l-26 26h-248v-193h114l26 26v63h52v-232h-52v63l-26 26h-114v-207z" />
    <glyph glyph-name="F" unicode="F" 
d="M378 0h-327v58h90l26 26v402l-26 26h-90v58h512v-192h-60v108l-26 26h-248v-193h119l26 26v58h52v-222h-52v58l-26 26h-119v-181l26 -26h123v-58z" />
    <glyph glyph-name="G" unicode="G" 
d="M307 521q-91 0 -141.5 -66.5t-50.5 -168.5t50 -169t140 -67q83 0 156 94v60l-20 21h-77v58h220v-58h-39l-24 -24v-201h-60v55l-12 6q-28 -37 -69 -56t-83 -19q-113 0 -182 85.5t-69 214.5q0 128 71 213t188 85q44 0 81.5 -19.5t60.5 -51.5l13 6v51h59v-186h-48
q-49 137 -164 137z" />
    <glyph glyph-name="H" unicode="H" 
d="M436 486l-26 26h-55v58h224v-58h-55l-26 -26v-402l26 -26h55v-58h-224v58h55l26 26v184h-258v-184l26 -26h55v-58h-224v58h55l26 26v402l-26 26h-55v58h224v-58h-55l-26 -26v-160h258v160z" />
    <glyph glyph-name="I" unicode="I" 
d="M274 486l-26 26h-146v58h410v-58h-146l-26 -26v-402l26 -26h146v-58h-410v58h146l26 26v402z" />
    <glyph glyph-name="J" unicode="J" 
d="M403 219v267l-26 26h-176v58h368v-58h-74l-26 -26v-272q0 -108 -59.5 -168t-149.5 -60q-88 0 -144.5 54t-56.5 128q0 35 21 58t51 23q28 0 46.5 -17.5t18.5 -40.5q0 -25 -19.5 -43.5t-45.5 -14.5q10 -39 42.5 -64t86.5 -25q143 0 143 175z" />
    <glyph glyph-name="K" unicode="K" 
d="M259 58v-58h-224v58h55l26 26v402l-26 26h-55v58h224v-58h-55l-26 -26v-239l240 244l-23 21h-44v58h215v-58h-55l-181 -184l198 -270h62v-58h-230v58h54l23 21l-150 205l-109 -111v-89l26 -26h55z" />
    <glyph glyph-name="L" unicode="L" 
d="M46 570h271v-58h-80l-26 -26v-428h254l26 26v138h60v-222h-505v58h77l26 26v402l-26 26h-77v58z" />
    <glyph glyph-name="M" unicode="M" 
d="M342 187h-69l-98 321h-25v-424l26 -26h55v-58h-212v58h45l26 26v402l-26 26h-45v58h197l92 -321l93 321h194v-58h-45l-26 -26v-402l26 -26h45v-58h-212v58h55l26 26v424h-25z" />
    <glyph glyph-name="N" unicode="N" 
d="M502 0h-66l-260 488v-404l26 -26h55v-58h-222v58h55l26 26v402l-26 26h-55v58h169l238 -459v375l-26 26h-55v58h222v-58h-55l-26 -26v-486z" />
    <glyph glyph-name="O" unicode="O" 
d="M565 285q0 -129 -71 -214t-187 -85t-187 85t-71 214t71 214t187 85t187 -85t71 -214zM496 285q0 102 -50 169t-139 67t-139 -67t-50 -169t50 -169t139 -67t139 67t50 169z" />
    <glyph glyph-name="P" unicode="P" 
d="M216 512v-198h129q159 0 159 99t-159 99h-129zM347 256h-131v-172l26 -26h135v-58h-342v58h93l26 26v402l-26 26h-93v58h312q225 0 225 -157t-225 -157z" />
    <glyph glyph-name="Q" unicode="Q" 
d="M497 -73l-68 90q-54 -31 -122 -31q-116 0 -187 85t-71 214t71 214t187 85t187 -85t71 -214q0 -144 -85 -229l68 -90zM118 285q0 -102 50 -169t139 -67q45 0 83 19l-73 96l52 39l71 -94q56 65 56 176q0 102 -50 169t-139 67t-139 -67t-50 -169z" />
    <glyph glyph-name="R" unicode="R" 
d="M176 512v-198h121q159 0 159 99t-159 99h-121zM270 0h-235v58h53l26 26v402l-26 26h-53v58h264q225 0 225 -157q0 -140 -180 -155l152 -198h93v-60h-174v58l-148 198h-91v-172l26 -26h68v-58z" />
    <glyph glyph-name="S" unicode="S" 
d="M336 46q61 0 97.5 29.5t36.5 79.5q0 67 -88 90l-140 36q-79 21 -117 53.5t-38 96.5q0 69 52.5 111t136.5 42q98 0 158 -75l15 8v53h61v-190h-52q-28 75 -76 109.5t-106 34.5q-55 0 -89.5 -25t-34.5 -66q0 -37 25.5 -56t76.5 -32l142 -37q139 -35 139 -150
q0 -77 -54.5 -124.5t-144.5 -47.5q-52 0 -101.5 24.5t-76.5 61.5l-15 -9v-63h-61v208h52q27 -79 83.5 -120.5t118.5 -41.5z" />
    <glyph glyph-name="T" unicode="T" 
d="M52 570h510v-222h-60v138l-26 26h-136v-428l26 -26h116v-58h-350v58h116l26 26v428h-136l-26 -26v-138h-60v222z" />
    <glyph glyph-name="U" unicode="U" 
d="M307 -14q-86 0 -143.5 56.5t-57.5 142.5v301l-26 26h-55v58h224v-58h-55l-26 -26v-299q0 -63 40 -102t99 -39t99 39t40 102v299l-26 26h-55v58h224v-58h-55l-26 -26v-301q0 -86 -57.5 -142.5t-143.5 -56.5z" />
    <glyph glyph-name="V" unicode="V" 
d="M345 0h-76l-197 512h-62v58h235v-58h-71l-23 -21l159 -421l158 421l-23 21h-71v58h230v-58h-62z" />
    <glyph glyph-name="W" unicode="W" 
d="M352 427l67 -367h23l48 431l-17 21h-92v58h225v-58h-51l-61 -512h-116l-69 371l-70 -371h-119l-60 512h-51v58h228v-58h-92l-17 -21l48 -431h23l67 367h86z" />
    <glyph glyph-name="X" unicode="X" 
d="M540 58h64v-58h-236v58h62l17 15l-142 175l-145 -175l17 -15h62v-58h-229v58h64l194 234l-178 220h-53v58h229v-58h-66l-17 -15l126 -156l129 156l-17 15h-66v58h222v-58h-53l-179 -215z" />
    <glyph glyph-name="Y" unicode="Y" 
d="M340 210v-126l26 -26h116v-58h-350v58h116l26 26v126l-202 302h-62v58h246v-58h-71l-23 -21l148 -229l147 229l-23 21h-71v58h241v-58h-62z" />
    <glyph glyph-name="Z" unicode="Z" 
d="M137 58h326l26 26v108h61v-192h-486v69l401 443h-299l-26 -26v-108h-61v192h454v-76z" />
    <glyph glyph-name="bracketleft" unicode="[" 
d="M239 592v-673h218v-58h-277v789h277v-58h-218z" />
    <glyph glyph-name="backslash" unicode="\" 
d="M548 -106l-55 -30l-428 745l55 31z" />
    <glyph glyph-name="bracketright" unicode="]" 
d="M375 592h-218v58h277v-789h-277v58h218v673z" />
    <glyph glyph-name="asciicircum" unicode="^" 
d="M282 584h61l171 -243h-73l-129 185l-128 -185h-73z" />
    <glyph glyph-name="underscore" unicode="_" 
d="M145 -131v63h324v-63h-324z" />
    <glyph glyph-name="grave" unicode="`" 
d="M389 521l-19 -15l-115 99q-31 23 -31 49q0 21 13.5 34.5t32.5 13.5q36 0 54 -40z" />
    <glyph glyph-name="a" unicode="a" 
d="M89 330q0 52 59.5 80t138.5 28q84 0 129 -41t45 -114v-178q0 -59 40 -59q23 0 59 36l31 -43q-50 -53 -101 -53q-36 0 -61.5 24t-29.5 67q-37 -39 -88 -65t-106 -26q-62 0 -99.5 30t-37.5 84q0 51 39 80t117 47l174 44v14q0 49 -31.5 74.5t-88.5 25.5q-66 0 -109 -21
q27 -9 27 -41q0 -20 -15 -33.5t-38 -13.5q-24 0 -39 14.5t-15 39.5zM398 136v86l-161 -45q-101 -18 -101 -74q0 -29 21.5 -45t54.5 -16q90 0 186 94z" />
    <glyph glyph-name="b" unicode="b" 
d="M176 266v-108q56 -113 164 -113q68 0 110 47.5t42 119.5t-42 119.5t-110 47.5q-108 0 -164 -113zM176 0h-134v58h58l16 16v465l-16 16h-64v58h140v-269q24 41 68 67.5t100 26.5q92 0 153 -65t61 -161t-61 -161t-153 -65q-56 0 -100 26.5t-68 68.5v-81z" />
    <glyph glyph-name="c" unicode="c" 
d="M403 285q0 17 11 29.5t28 15.5q-11 22 -42.5 36t-77.5 14q-72 0 -124.5 -47t-52.5 -121q0 -70 47 -118t128 -48q94 0 171 68l36 -47q-90 -81 -207 -81q-106 0 -174.5 64.5t-68.5 161.5q0 95 72 160.5t175 65.5q88 0 143.5 -41t55.5 -101q0 -28 -17.5 -47.5t-43.5 -19.5
q-25 0 -42 16.5t-17 39.5z" />
    <glyph glyph-name="d" unicode="d" 
d="M438 158v108q-56 113 -163 113q-69 0 -111 -47.5t-42 -119.5t42 -119.5t111 -47.5q107 0 163 113zM314 613h184v-539l16 -16h58v-58h-134v80q-24 -41 -68 -68t-100 -27q-92 0 -153 65.5t-61 161.5t61 161t153 65q56 0 100 -26.5t68 -68.5v196l-16 16h-108v58z" />
    <glyph glyph-name="e" unicode="e" 
d="M464 246l-1 5q-11 57 -51 93t-102 36t-108.5 -37t-57.5 -97h320zM519 67q-89 -81 -203 -81q-104 0 -171.5 64.5t-67.5 161.5q0 96 66.5 161t166.5 65q107 0 167 -70.5t60 -172.5h-395q6 -64 52.5 -107t121.5 -43q95 0 169 66z" />
    <glyph glyph-name="f" unicode="f" 
d="M249 407h183v-58h-157l-26 -26v-239l26 -26h158v-58h-369v58h99l26 26v239l-26 26h-99v58h125q0 103 60.5 161.5t161.5 58.5q76 0 124 -36.5t48 -89.5q0 -30 -17.5 -48.5t-44.5 -18.5t-43.5 14t-16.5 36q0 20 13.5 33t34.5 15q-25 45 -97 45t-117.5 -43.5t-45.5 -126.5z
" />
    <glyph glyph-name="g" unicode="g" 
d="M391 288q0 41 -31 67t-80 26t-80.5 -26t-31.5 -67q0 -40 31.5 -66.5t80.5 -26.5q48 0 79.5 26.5t31.5 66.5zM557 -49q0 -65 -71.5 -109t-184.5 -44q-118 0 -187 37t-69 103q0 59 63 98q-30 25 -30 67q0 60 63 88q-38 41 -38 97q0 64 49.5 107t127.5 43q50 0 94 -21
q45 84 126 84q42 0 71 -24t29 -62q0 -26 -16 -42.5t-38 -16.5t-36.5 15t-14.5 35q0 27 22 36q-7 9 -25 9q-48 0 -79 -61q43 -43 43 -102q0 -64 -49 -107t-127 -43q-55 0 -100 24q-43 -22 -43 -51q0 -18 12 -29.5t36 -11.5h220q71 0 111.5 -30t40.5 -89zM409 7h-257
q-43 -28 -43 -64q0 -41 51.5 -64t140.5 -23q87 0 140.5 26.5t53.5 66.5q0 58 -86 58z" />
    <glyph glyph-name="h" unicode="h" 
d="M191 275v-191l26 -26h62v-58h-236v58h62l26 26v445l-26 26h-62v58h148v-264q23 37 64.5 63t91.5 26q71 0 115 -41.5t44 -118.5v-194l26 -26h62v-58h-236v58h62l26 26v174q0 121 -101 121q-100 0 -154 -104z" />
    <glyph glyph-name="i" unicode="i" 
d="M357 84l26 -26h153v-58h-433v58h168l26 26v256l-26 26h-168v58h254v-340zM246 587q0 28 18.5 47.5t45.5 19.5q28 0 47.5 -19t19.5 -48q0 -27 -19.5 -45.5t-47.5 -18.5q-27 0 -45.5 18.5t-18.5 45.5z" />
    <glyph glyph-name="j" unicode="j" 
d="M71 -42q0 34 19 56t48 22q27 0 44 -16.5t17 -40.5q0 -21 -15.5 -36t-38.5 -16q11 -32 43 -52t75 -20q67 0 104.5 44t37.5 131v310l-26 26h-218v58h304v-399q0 -108 -56.5 -165.5t-145.5 -57.5q-79 0 -135.5 47t-56.5 109zM352 587q0 28 19 47.5t46 19.5q28 0 47 -19
t19 -48q0 -27 -19 -45.5t-47 -18.5q-27 0 -46 18.5t-19 45.5z" />
    <glyph glyph-name="k" unicode="k" 
d="M276 58v-58h-236v58h62l26 26v445l-26 26h-67v58h153v-415l219 154l-5 14h-65v58h227v-58h-49l-189 -130l155 -178h107v-58h-188v58l-124 144l-88 -61v-57l26 -26h62z" />
    <glyph glyph-name="l" unicode="l" 
d="M357 84l26 -26h153v-58h-433v58h168l26 26v445l-26 26h-168v58h254v-529z" />
    <glyph glyph-name="m" unicode="m" 
d="M594 0h-128v317q0 26 -12.5 43.5t-37.5 17.5q-49 0 -79 -80v-224l16 -16h41v-58h-115v317q0 26 -12.5 43.5t-37.5 17.5q-49 0 -79 -80v-224l16 -16h41v-58h-181v58h50l16 16v276l-16 16h-50v58h124v-65q26 79 93 79q36 0 59.5 -20.5t31.5 -56.5q12 34 38 55.5t60 21.5
q43 0 67.5 -27.5t24.5 -77.5v-259l16 -16h54v-58z" />
    <glyph glyph-name="n" unicode="n" 
d="M191 275v-191l26 -26h62v-58h-236v58h62l26 26v256l-26 26h-62v58h148v-75q23 37 64.5 63t91.5 26q71 0 115 -41.5t44 -118.5v-194l26 -26h62v-58h-236v58h62l26 26v174q0 121 -101 121q-100 0 -154 -104z" />
    <glyph glyph-name="o" unicode="o" 
d="M73 212q0 96 67 161t167 65t167 -65t67 -161t-67 -161t-167 -65t-167 65t-67 161zM473 212q0 71 -46.5 118.5t-119.5 47.5t-119.5 -47.5t-46.5 -118.5t46.5 -118.5t119.5 -47.5t119.5 47.5t46.5 118.5z" />
    <glyph glyph-name="p" unicode="p" 
d="M176 266v-108q56 -113 164 -113q68 0 110 47.5t42 119.5t-42 119.5t-110 47.5q-108 0 -164 -113zM176 81v-195l16 -16h108v-58h-258v58h58l16 16v464l-16 16h-58v58h134v-80q24 41 68 67.5t100 26.5q92 0 153 -65t61 -161t-61 -161t-153 -65q-56 0 -100 26.5t-68 68.5z
" />
    <glyph glyph-name="q" unicode="q" 
d="M438 266q-56 113 -164 113q-68 0 -110 -47.5t-42 -119.5t42 -119.5t110 -47.5q108 0 164 113v108zM438 81q-24 -42 -68 -68.5t-100 -26.5q-92 0 -153 65t-61 161t61 161t153 65q56 0 100 -26.5t68 -67.5v80h134v-58h-58l-16 -16v-464l16 -16h58v-58h-258v58h108l16 16
v195z" />
    <glyph glyph-name="r" unicode="r" 
d="M436 300q0 21 13.5 33.5t33.5 12.5q9 0 17 -4q0 5 -4 11q-9 29 -55 29q-83 0 -203 -147v-151l26 -26h178v-58h-389v58h99l26 26v256l-26 26h-99v58h185v-117q103 131 202 131q60 0 91 -31.5t31 -76.5q0 -35 -19.5 -58.5t-50.5 -23.5q-25 0 -40.5 13.5t-15.5 38.5z" />
    <glyph glyph-name="s" unicode="s" 
d="M378 172l-144 30q-68 14 -101.5 41.5t-33.5 75.5q0 53 45 86t113 33q106 0 162 -64l14 4v46h56v-145h-47q-24 47 -74 76t-103 29q-45 0 -73.5 -17t-28.5 -46q0 -26 21.5 -38.5t66.5 -21.5l150 -32q56 -12 85 -38t29 -75q0 -60 -45 -95t-123 -35q-118 0 -184 75l-14 -10
v-51h-57v155h53q75 -114 199 -114q49 0 78 19t29 54q0 26 -18.5 38.5t-54.5 19.5z" />
    <glyph glyph-name="t" unicode="t" 
d="M169 340l-26 26h-99v58h125v154h63v-154h250v-58h-225l-26 -26v-139q0 -155 131 -155q88 0 154 89l40 -38q-35 -51 -85 -81t-109 -30q-89 0 -141 50t-52 156v148z" />
    <glyph glyph-name="u" unicode="u" 
d="M340 424h148v-340l26 -26h62v-58h-148v75q-23 -37 -64.5 -63t-91.5 -26q-71 0 -115 41t-44 119v194l-26 26h-62v58h148v-258q0 -121 101 -121q100 0 154 104v191l-26 26h-62v58z" />
    <glyph glyph-name="v" unicode="v" 
d="M370 366v58h213v-58h-55l-192 -366h-58l-192 366h-55v58h219v-58h-65l-17 -19l142 -280l142 280l-17 19h-65z" />
    <glyph glyph-name="w" unicode="w" 
d="M350 311l61 -260h20l54 299l-14 16h-77v58h199v-58h-46l-73 -366h-103l-64 260l-64 -260h-103l-73 366h-46v58h202v-58h-77l-14 -16l54 -299h20l61 260h83z" />
    <glyph glyph-name="x" unicode="x" 
d="M515 366l-169 -148l182 -160h55v-58h-237v58h71l12 15l-123 114l-123 -114l12 -15h71v-58h-235v58h56l180 159l-169 149h-57v58h233v-58h-66l-12 -15l111 -103l111 103l-12 15h-66v58h231v-58h-56z" />
    <glyph glyph-name="y" unicode="y" 
d="M33 -95q0 31 19.5 52.5t47.5 21.5q25 0 41.5 -15t16.5 -39q0 -21 -15 -35t-39 -14q9 -26 48 -26q33 0 58.5 33.5t70.5 122.5l-190 360h-55v58h219v-58h-65l-17 -19l142 -280l142 280l-17 19h-65v58h213v-58h-55l-201 -383q-52 -100 -89 -142.5t-91 -42.5
q-50 0 -84.5 29.5t-34.5 77.5z" />
    <glyph glyph-name="z" unicode="z" 
d="M156 56h290l26 26v95h58v-177h-451v65l358 304h-261l-26 -26v-91h-58v172h423v-65z" />
    <glyph glyph-name="braceleft" unicode="{" 
d="M85 223v62h58q91 0 91 67q0 8 -15.5 75.5t-15.5 92.5q0 60 40.5 96.5t107.5 36.5q64 0 111 -25l-15 -57q-42 23 -91 23q-43 0 -65.5 -20.5t-22.5 -57.5q0 -21 15.5 -86t15.5 -78q0 -38 -25 -63.5t-57 -34.5q32 -9 57 -34.5t25 -63.5q0 -13 -15.5 -78.5t-15.5 -86.5
q0 -37 22.5 -57.5t65.5 -20.5q49 0 91 23l15 -57q-47 -25 -111 -25q-67 0 -107.5 36.5t-40.5 96.5q0 25 15.5 93t15.5 76q0 67 -91 67h-58z" />
    <glyph glyph-name="bar" unicode="|" 
d="M340 640v-778h-66v778h66z" />
    <glyph glyph-name="braceright" unicode="}" 
d="M529 223h-58q-91 0 -91 -67q0 -8 15.5 -76t15.5 -93q0 -60 -40.5 -96.5t-107.5 -36.5q-64 0 -111 25l15 57q42 -23 91 -23q43 0 65.5 20.5t22.5 57.5q0 21 -15.5 86.5t-15.5 78.5q0 38 25 63.5t57 34.5q-32 9 -57 34.5t-25 63.5q0 13 15.5 78t15.5 86q0 37 -22.5 57.5
t-65.5 20.5q-49 0 -91 -23l-15 57q47 25 111 25q67 0 107.5 -36.5t40.5 -96.5q0 -25 -15.5 -92.5t-15.5 -75.5q0 -67 91 -67h58v-62z" />
    <glyph glyph-name="asciitilde" unicode="~" 
d="M440 344h60q0 -60 -29 -96t-77 -36q-36 0 -90.5 36.5t-74.5 36.5q-24 0 -39 -18.5t-15 -50.5h-60q0 60 29 95.5t77 35.5q35 0 89.5 -36.5t75.5 -36.5q23 0 38.5 19t15.5 51z" />
    <glyph glyph-name="uni00A0" unicode="&#xa0;" 
 />
    <glyph glyph-name="exclamdown" unicode="&#xa1;" 
d="M307 484q29 0 49 -20t20 -49t-20 -49t-49 -20q-28 0 -48 20t-20 49t20 49t48 20zM325 277l39 -320q4 -29 -12 -49t-45 -20q-28 0 -44.5 20t-11.5 49l38 320h36z" />
    <glyph glyph-name="cent" unicode="&#xa2;" 
d="M491 114l36 -47q-86 -76 -194 -81v-135h-57v138q-88 13 -143.5 75t-55.5 148q0 84 56.5 145.5t142.5 76.5v148h57v-144q84 -2 137 -44.5t53 -101.5q0 -26 -17 -44.5t-42 -18.5q-24 0 -39.5 16t-15.5 38q0 17 10 29t27 14q-9 22 -39.5 37.5t-73.5 16.5v-334q85 4 158 68z
M276 50v324q-57 -14 -94 -57.5t-37 -104.5q0 -59 34.5 -104t96.5 -58z" />
    <glyph glyph-name="sterling" unicode="&#xa3;" 
d="M575 111q0 -66 -34.5 -104t-90.5 -38q-48 0 -141 53.5t-130 53.5q-32 0 -50 -21t-18 -55h-62q0 56 26.5 92t69.5 45v115h-82v57h82v36q0 106 60 172.5t161 66.5q77 0 125 -45.5t48 -104.5q0 -30 -18 -49t-45 -19q-26 0 -42.5 14.5t-16.5 36.5q0 20 13.5 34t34.5 15
q-27 58 -98 58q-72 0 -114 -47t-42 -132v-36h162v-57h-162v-117q37 -10 117 -55.5t115 -45.5q33 0 52 21.5t19 55.5h61z" />
    <glyph glyph-name="yen" unicode="&#xa5;" 
d="M482 58v-58h-350v58h119l26 26v83h-201v48h198l-48 70h-150v48h118l-122 179h-62v58h246v-58h-76l-23 -21l153 -229l152 229l-23 21h-76v58h241v-58h-62l-121 -179h118v-48h-150l-48 -70h198v-48h-201v-83l26 -26h118z" />
    <glyph glyph-name="brokenbar" unicode="&#xa6;" 
d="M274 194h66v-332h-66v332zM340 640v-356h-66v356h66z" />
    <glyph glyph-name="section" unicode="&#xa7;" 
d="M215 198l156 -108q52 -36 71 -60q26 31 26 62q0 49 -68 95l-156 107q-50 34 -72 60q-25 -32 -25 -62q0 -48 68 -94zM300 -200q-94 0 -147 49t-53 115q0 27 16.5 45.5t40.5 18.5q23 0 39 -15t16 -36q0 -17 -10.5 -29.5t-26.5 -14.5q10 -30 39.5 -53t85.5 -23
q49 0 79.5 23.5t30.5 60.5q0 31 -15 50t-49 44l-148 100q-55 37 -82.5 71.5t-27.5 82.5q0 30 16.5 62.5t41.5 54.5q-5 20 -5 40q0 60 48.5 99t125.5 39q94 0 147 -49t53 -115q0 -27 -16.5 -45.5t-40.5 -18.5t-39.5 15t-15.5 36q0 17 10 29.5t26 14.5q-10 30 -39.5 53
t-84.5 23q-49 0 -80 -23.5t-31 -60.5q0 -31 15.5 -50t49.5 -43l147 -100q56 -38 83.5 -72t27.5 -83q0 -30 -16.5 -62.5t-42.5 -54.5q5 -20 5 -40q0 -60 -48 -99t-125 -39z" />
    <glyph glyph-name="dieresis" unicode="&#xa8;" 
d="M413 526q-27 0 -46 18.5t-19 44.5t19 45t46 19t45.5 -19t18.5 -45t-18.5 -44.5t-45.5 -18.5zM202 526q-27 0 -46 18.5t-19 44.5q0 27 19 45.5t46 18.5t45.5 -18.5t18.5 -45.5q0 -26 -18.5 -44.5t-45.5 -18.5z" />
    <glyph glyph-name="copyright" unicode="&#xa9;" 
d="M404 214l30 -31q-52 -57 -127 -57q-67 0 -107.5 44.5t-40.5 112.5q0 67 40 111.5t107 44.5q48 0 78 -33l8 2v24h37v-108h-32q-12 33 -35.5 53t-54.5 20q-47 0 -73 -32.5t-26 -81.5q0 -50 26.5 -82.5t73.5 -32.5q55 0 96 46zM27 284q0 115 82 196.5t198 81.5t198 -81.5
t82 -196.5t-82 -196.5t-198 -81.5t-198 81.5t-82 196.5zM66 284q0 -98 71.5 -168.5t169.5 -70.5q99 0 170.5 70.5t71.5 168.5t-72 169.5t-170 71.5t-169.5 -71.5t-71.5 -169.5z" />
    <glyph glyph-name="ordfeminine" unicode="&#xaa;" 
d="M142 545q0 38 44 59.5t102 21.5q62 0 96 -30t34 -80v-125q0 -34 24 -34q14 0 41 24l26 -37q-39 -39 -77 -39q-26 0 -44.5 16.5t-22.5 45.5q-66 -62 -138 -62q-45 0 -72 21t-27 60q0 35 25 53.5t76 30.5l135 37v11q0 31 -22.5 47.5t-62.5 16.5q-48 0 -76 -12q20 -7 20 -31
q0 -15 -11 -24.5t-28 -9.5q-18 0 -30 11t-12 29zM364 414v55l-121 -38q-57 -11 -57 -43q0 -37 48 -37q62 0 130 63zM228 68q0 33 23 56.5t56 23.5t56.5 -23.5t23.5 -56.5t-23.5 -56.5t-56.5 -23.5t-56 23.5t-23 56.5z" />
    <glyph glyph-name="guillemotleft" unicode="&#xab;" 
d="M498 85l-50 -40l-143 177l143 178l50 -41l-113 -137zM283 85l-50 -40l-143 177l143 178l50 -41l-113 -137z" />
    <glyph glyph-name="registered" unicode="&#xae;" 
d="M27 284q0 115 82 196.5t198 81.5t198 -81.5t82 -196.5t-82 -196.5t-198 -81.5t-198 81.5t-82 196.5zM66 284q0 -98 71.5 -168.5t169.5 -70.5q99 0 170.5 70.5t71.5 168.5t-72 169.5t-170 71.5t-169.5 -71.5t-71.5 -169.5zM249 396v-94h58q77 0 77 46q0 48 -77 48h-58z
M293 130h-125v36h26l15 16v201l-15 15h-26v35h140q121 0 121 -85q0 -73 -91 -82l78 -98h36v-38h-88v36l-75 98h-40v-82l15 -16h29v-36z" />
    <glyph glyph-name="macron" unicode="&#xaf;" 
d="M155 590h304v-60h-304v60z" />
    <glyph glyph-name="degree" unicode="&#xb0;" 
d="M453 481q0 -62 -42.5 -104.5t-103.5 -42.5t-103.5 43t-42.5 104t42.5 104t103.5 43t103.5 -43t42.5 -104zM397 481q0 38 -26 65t-64 27q-37 0 -63 -27t-26 -65t26 -65t63 -27q38 0 64 27t26 65z" />
    <glyph glyph-name="plusminus" unicode="&#xb1;" 
d="M336 318v-159h-58v159h-190v58h190v158h58v-158h191v-58h-191zM88 42v58h439v-58h-439z" />
    <glyph glyph-name="twosuperior" unicode="&#xb2;" 
d="M189 491l-43 32q29 44 74 72t96 28q60 0 93 -32t33 -82q0 -22 -8 -41t-28.5 -39.5t-31 -29t-39.5 -30.5l-126 -97h178l22 20v52h51v-121h-312v64l149 119q58 47 70 63q15 21 15 43q0 25 -17.5 41.5t-48.5 16.5q-71 0 -127 -79z" />
    <glyph glyph-name="threesuperior" unicode="&#xb3;" 
d="M214 430l164 133h-208v50h262v-65l-118 -90l22 2q51 0 81.5 -31t30.5 -78q0 -82 -78.5 -132t-192.5 -66l-11 51q102 16 164.5 53t62.5 94q0 31 -20.5 50.5t-53.5 19.5q-39 0 -79 -26z" />
    <glyph glyph-name="acute" unicode="&#xb4;" 
d="M225 521l65 141q18 40 54 40q19 0 32.5 -13.5t13.5 -34.5q0 -26 -31 -49l-115 -99z" />
    <glyph glyph-name="paragraph" unicode="&#xb6;" 
d="M377 20v221q-102 0 -175.5 42t-73.5 123q0 55 37.5 93t92.5 54.5t120 16.5h163v-58h-78l-26 -26v-471q0 -102 -50.5 -157.5t-137.5 -55.5q-78 0 -128 46t-50 110q0 34 19 56t48 22q27 0 44 -16.5t17 -40.5q0 -21 -15 -36t-38 -16q8 -31 35 -51.5t68 -20.5q128 0 128 165z
" />
    <glyph glyph-name="periodcentered" unicode="&#xb7;" 
d="M230 285q0 32 22.5 55t54.5 23t55 -23t23 -55t-23 -55t-55 -23t-54.5 23t-22.5 55z" />
    <glyph glyph-name="cedilla" unicode="&#xb8;" 
d="M375 -139q0 -44 -33.5 -68t-79.5 -24t-84 20t-55 60l44 29q26 -63 95 -63q61 0 61 46q0 23 -21.5 36t-63.5 10l-37 26l31 71h47l-23 -54q55 0 87 -23t32 -66z" />
    <glyph glyph-name="onesuperior" unicode="&#xb9;" 
d="M143 528l125 85h70v-321l21 -20h115v-49h-333v49h121l21 20v267l-110 -75z" />
    <glyph glyph-name="ordmasculine" unicode="&#xba;" 
d="M196 467q0 -48 31 -79t80 -31t80 31t31 79q0 47 -31 77.5t-80 30.5t-80 -30.5t-31 -77.5zM228 68q0 33 23 56.5t56 23.5t56.5 -23.5t23.5 -56.5t-23.5 -56.5t-56.5 -23.5t-56 23.5t-23 56.5zM138 467q0 68 48.5 114t120.5 46t120.5 -46t48.5 -114t-48.5 -114.5
t-120.5 -46.5t-120.5 46.5t-48.5 114.5z" />
    <glyph glyph-name="guillemotright" unicode="&#xbb;" 
d="M116 85l113 137l-113 137l50 41l143 -178l-143 -177zM331 85l113 137l-113 137l50 41l143 -178l-143 -177z" />
    <glyph glyph-name="onequarter" unicode="&#xbc;" 
d="M597 -36h-66v-64h-47v64h-150v59q79 81 129 196l48 -15q-38 -89 -130 -198h103v66h47v-66h66v-42zM345 257l-16 17l183 207l45 -46zM267 213l16 -17l-183 -207l-45 46zM41 559l90 61h60v-245h89v-41h-229v41h92v198l-77 -52z" />
    <glyph glyph-name="onehalf" unicode="&#xbd;" 
d="M41 559l90 61h60v-245h89v-41h-229v41h92v198l-77 -52zM378 90l-34 28q54 75 128 75q45 0 69.5 -23.5t24.5 -59.5q0 -31 -21.5 -54.5t-59.5 -50.5l-89 -64h187v-41h-238v54l106 81q25 19 35.5 27.5t19 21.5t8.5 26q0 16 -11.5 26.5t-30.5 10.5q-51 0 -94 -57zM267 213
l16 -17l-183 -207l-45 46zM345 257l-16 17l183 207l45 -46z" />
    <glyph glyph-name="threequarters" unicode="&#xbe;" 
d="M89 473l117 96h-148v43h194v-56l-71 -60q40 -1 61.5 -22.5t21.5 -56.5q0 -60 -57.5 -95.5t-141.5 -46.5l-9 43q161 27 161 99q0 21 -14 33.5t-35 12.5q-28 0 -58 -20zM267 213l16 -17l-183 -207l-45 46zM345 257l-16 17l183 207l45 -46zM597 -36h-66v-64h-47v64h-150v59
q79 81 129 196l48 -15q-38 -89 -130 -198h103v66h47v-66h66v-42z" />
    <glyph glyph-name="questiondown" unicode="&#xbf;" 
d="M287 285h73v-105q-97 -21 -144 -48t-47 -81q0 -53 41.5 -80.5t104.5 -27.5q53 0 91 21t44 47q-45 14 -45 50q0 21 17 37t42 16q27 0 46 -20t19 -50q0 -67 -61.5 -112.5t-152.5 -45.5q-93 0 -153.5 44.5t-60.5 120.5q0 70 48 108.5t138 61.5v64zM394 413q0 -29 -20 -49
t-48 -20t-48.5 20t-20.5 49t20.5 49t48.5 20t48 -20t20 -49z" />
    <glyph glyph-name="Agrave" unicode="&#xc0;" 
d="M400 252l-96 253l-95 -253h191zM238 58v-58h-228v58h62l197 512h76l197 -512h62v-58h-233v58h71l23 21l-43 115h-235l-43 -115l23 -21h71zM346 656l-19 -15l-115 99q-31 23 -31 49q0 21 13.5 34.5t32.5 13.5q36 0 54 -40z" />
    <glyph glyph-name="Aacute" unicode="&#xc1;" 
d="M400 252l-96 253l-95 -253h191zM238 58v-58h-228v58h62l197 512h76l197 -512h62v-58h-233v58h71l23 21l-43 115h-235l-43 -115l23 -21h71zM269 656l65 141q18 40 54 40q19 0 32.5 -13.5t13.5 -34.5q0 -26 -31 -49l-115 -99z" />
    <glyph glyph-name="Acircumflex" unicode="&#xc2;" 
d="M400 252l-96 253l-95 -253h191zM238 58v-58h-228v58h62l197 512h76l197 -512h62v-58h-233v58h71l23 21l-43 115h-235l-43 -115l23 -21h71zM307 827q25 0 49 -31l99 -139l-23 -19l-125 105l-124 -105l-24 19l100 139q22 31 48 31z" />
    <glyph glyph-name="Atilde" unicode="&#xc3;" 
d="M400 252l-96 253l-95 -253h191zM238 58v-58h-228v58h62l197 512h76l197 -512h62v-58h-233v58h71l23 21l-43 115h-235l-43 -115l23 -21h71zM432 772h57q0 -58 -28.5 -93.5t-75.5 -35.5q-35 0 -81.5 36t-66.5 36q-23 0 -39 -19t-16 -50h-57q0 58 28.5 93t75.5 35
q35 0 81.5 -36t67.5 -36q23 0 38.5 19.5t15.5 50.5z" />
    <glyph glyph-name="Adieresis" unicode="&#xc4;" 
d="M400 252l-96 253l-95 -253h191zM238 58v-58h-228v58h62l197 512h76l197 -512h62v-58h-233v58h71l23 21l-43 115h-235l-43 -115l23 -21h71zM413 651q-27 0 -46 18.5t-19 44.5t19 45t46 19t45.5 -19t18.5 -45t-18.5 -44.5t-45.5 -18.5zM202 651q-27 0 -46 18.5t-19 44.5
q0 27 19 45.5t46 18.5t45.5 -18.5t18.5 -45.5q0 -26 -18.5 -44.5t-45.5 -18.5z" />
    <glyph glyph-name="Aring" unicode="&#xc5;" 
d="M400 252l-96 253l-95 -253h191zM238 58v-58h-228v58h62l197 512h76l197 -512h62v-58h-233v58h71l23 21l-43 115h-235l-43 -115l23 -21h71zM367 743q0 27 -16.5 44t-43.5 17t-43.5 -17t-16.5 -44t16.5 -44.5t43.5 -17.5t43.5 17.5t16.5 44.5zM419 743q0 -47 -32.5 -79.5
t-79.5 -32.5t-79.5 32.5t-32.5 79.5q0 46 32.5 78.5t79.5 32.5t79.5 -32t32.5 -79z" />
    <glyph glyph-name="AE" unicode="&#xc6;" 
d="M307 252v260h-23l-123 -260h146zM167 58v-58h-156v62l202 429l-20 21h-59v58h453v-192h-60v108l-26 26h-132v-193h128v-54h-128v-207h138l26 26v108h60v-192h-353v58h41l26 26v110h-174l-54 -115l23 -21h65z" />
    <glyph glyph-name="Ccedilla" unicode="&#xc7;" 
d="M317 -231q-46 0 -84 20t-55 60l44 29q26 -63 95 -63q61 0 61 46q0 23 -21.5 36t-63.5 10l-37 26l25 56q-102 16 -162 97.5t-60 198.5q0 129 71.5 214t190.5 85q45 0 84.5 -19.5t62.5 -51.5l13 6v51h58v-196h-46q-23 68 -68 107.5t-104 39.5q-92 0 -142.5 -67t-50.5 -169
q0 -101 52.5 -168.5t143.5 -67.5q107 0 182 89l41 -45q-90 -107 -221 -107l-15 -36q55 0 87 -23t32 -66q0 -44 -33.5 -68t-79.5 -24z" />
    <glyph glyph-name="Egrave" unicode="&#xc8;" 
d="M354 656l-19 -15l-115 99q-31 23 -31 49q0 21 13.5 34.5t32.5 13.5q36 0 54 -40zM206 58h254l26 26v108h60v-192h-511v58h83l26 26v402l-26 26h-83v58h505v-192h-60v108l-26 26h-248v-193h114l26 26v63h52v-232h-52v63l-26 26h-114v-207z" />
    <glyph glyph-name="Eacute" unicode="&#xc9;" 
d="M272 656l65 141q18 40 54 40q19 0 32.5 -13.5t13.5 -34.5q0 -26 -31 -49l-115 -99zM206 58h254l26 26v108h60v-192h-511v58h83l26 26v402l-26 26h-83v58h505v-192h-60v108l-26 26h-248v-193h114l26 26v63h52v-232h-52v63l-26 26h-114v-207z" />
    <glyph glyph-name="Ecircumflex" unicode="&#xca;" 
d="M206 58h254l26 26v108h60v-192h-511v58h83l26 26v402l-26 26h-83v58h505v-192h-60v108l-26 26h-248v-193h114l26 26v63h52v-232h-52v63l-26 26h-114v-207zM315 827q25 0 49 -31l99 -139l-23 -19l-125 105l-124 -105l-24 19l100 139q22 31 48 31z" />
    <glyph glyph-name="Edieresis" unicode="&#xcb;" 
d="M421 651q-27 0 -46 18.5t-19 44.5t19 45t46 19t45.5 -19t18.5 -45t-18.5 -44.5t-45.5 -18.5zM210 651q-27 0 -46 18.5t-19 44.5q0 27 19 45.5t46 18.5t45.5 -18.5t18.5 -45.5q0 -26 -18.5 -44.5t-45.5 -18.5zM206 58h254l26 26v108h60v-192h-511v58h83l26 26v402l-26 26
h-83v58h505v-192h-60v108l-26 26h-248v-193h114l26 26v63h52v-232h-52v63l-26 26h-114v-207z" />
    <glyph glyph-name="Igrave" unicode="&#xcc;" 
d="M274 486l-26 26h-146v58h410v-58h-146l-26 -26v-402l26 -26h146v-58h-410v58h146l26 26v402zM346 656l-19 -15l-115 99q-31 23 -31 49q0 21 13.5 34.5t32.5 13.5q36 0 54 -40z" />
    <glyph glyph-name="Iacute" unicode="&#xcd;" 
d="M274 486l-26 26h-146v58h410v-58h-146l-26 -26v-402l26 -26h146v-58h-410v58h146l26 26v402zM268 656l65 141q18 40 54 40q19 0 32.5 -13.5t13.5 -34.5q0 -26 -31 -49l-115 -99z" />
    <glyph glyph-name="Icircumflex" unicode="&#xce;" 
d="M274 486l-26 26h-146v58h410v-58h-146l-26 -26v-402l26 -26h146v-58h-410v58h146l26 26v402zM306 827q25 0 49 -31l99 -139l-23 -19l-125 105l-124 -105l-24 19l100 139q22 31 48 31z" />
    <glyph glyph-name="Idieresis" unicode="&#xcf;" 
d="M274 486l-26 26h-146v58h410v-58h-146l-26 -26v-402l26 -26h146v-58h-410v58h146l26 26v402zM412 651q-27 0 -46 18.5t-19 44.5t19 45t46 19t45.5 -19t18.5 -45t-18.5 -44.5t-45.5 -18.5zM201 651q-27 0 -46 18.5t-19 44.5q0 27 19 45.5t46 18.5t45.5 -18.5t18.5 -45.5
q0 -26 -18.5 -44.5t-45.5 -18.5z" />
    <glyph glyph-name="Eth" unicode="&#xd0;" 
d="M256 0h-221v58h62l26 26v188h-90v58h90v156l-26 26h-62v58h221q146 0 226.5 -79.5t80.5 -205.5t-80.5 -205.5t-226.5 -79.5zM185 58h71q115 0 176.5 63.5t61.5 163.5t-61.5 163.5t-176.5 63.5h-71v-182h137v-58h-137v-214z" />
    <glyph glyph-name="Ntilde" unicode="&#xd1;" 
d="M434 772h57q0 -58 -28.5 -93.5t-75.5 -35.5q-35 0 -81.5 36t-66.5 36q-23 0 -39 -19t-16 -50h-57q0 58 28.5 93t75.5 35q35 0 81.5 -36t67.5 -36q23 0 38.5 19.5t15.5 50.5zM502 0h-66l-260 488v-404l26 -26h55v-58h-222v58h55l26 26v402l-26 26h-55v58h169l238 -459v375
l-26 26h-55v58h222v-58h-55l-26 -26v-486z" />
    <glyph glyph-name="Ograve" unicode="&#xd2;" 
d="M346 656l-19 -15l-115 99q-31 23 -31 49q0 21 13.5 34.5t32.5 13.5q36 0 54 -40zM565 285q0 -129 -71 -214t-187 -85t-187 85t-71 214t71 214t187 85t187 -85t71 -214zM496 285q0 102 -50 169t-139 67t-139 -67t-50 -169t50 -169t139 -67t139 67t50 169z" />
    <glyph glyph-name="Oacute" unicode="&#xd3;" 
d="M269 656l65 141q18 40 54 40q19 0 32.5 -13.5t13.5 -34.5q0 -26 -31 -49l-115 -99zM565 285q0 -129 -71 -214t-187 -85t-187 85t-71 214t71 214t187 85t187 -85t71 -214zM496 285q0 102 -50 169t-139 67t-139 -67t-50 -169t50 -169t139 -67t139 67t50 169z" />
    <glyph glyph-name="Ocircumflex" unicode="&#xd4;" 
d="M565 285q0 -129 -71 -214t-187 -85t-187 85t-71 214t71 214t187 85t187 -85t71 -214zM496 285q0 102 -50 169t-139 67t-139 -67t-50 -169t50 -169t139 -67t139 67t50 169zM307 827q25 0 49 -31l99 -139l-23 -19l-125 105l-124 -105l-24 19l100 139q22 31 48 31z" />
    <glyph glyph-name="Otilde" unicode="&#xd5;" 
d="M432 772h57q0 -58 -28.5 -93.5t-75.5 -35.5q-35 0 -81.5 36t-66.5 36q-23 0 -39 -19t-16 -50h-57q0 58 28.5 93t75.5 35q35 0 81.5 -36t67.5 -36q23 0 38.5 19.5t15.5 50.5zM565 285q0 -129 -71 -214t-187 -85t-187 85t-71 214t71 214t187 85t187 -85t71 -214zM496 285
q0 102 -50 169t-139 67t-139 -67t-50 -169t50 -169t139 -67t139 67t50 169z" />
    <glyph glyph-name="Odieresis" unicode="&#xd6;" 
d="M413 651q-27 0 -46 18.5t-19 44.5t19 45t46 19t45.5 -19t18.5 -45t-18.5 -44.5t-45.5 -18.5zM202 651q-27 0 -46 18.5t-19 44.5q0 27 19 45.5t46 18.5t45.5 -18.5t18.5 -45.5q0 -26 -18.5 -44.5t-45.5 -18.5zM565 285q0 -129 -71 -214t-187 -85t-187 85t-71 214t71 214
t187 85t187 -85t71 -214zM496 285q0 102 -50 169t-139 67t-139 -67t-50 -169t50 -169t139 -67t139 67t50 169z" />
    <glyph glyph-name="multiply" unicode="&#xd7;" 
d="M269 276l-156 155l40 41l154 -157l154 157l41 -41l-156 -155l156 -156l-41 -40l-154 156l-154 -156l-40 40z" />
    <glyph glyph-name="Oslash" unicode="&#xd8;" 
d="M307 521q-89 0 -139 -67t-50 -169q0 -99 46 -163l257 359q-48 40 -114 40zM307 49q89 0 139 67t50 169q0 90 -38 152l-255 -356q45 -32 104 -32zM565 285q0 -129 -71 -214t-187 -85q-79 0 -141 43l-62 -86l-45 32l65 91q-75 84 -75 219q0 129 71 214t187 85q87 0 152 -51
l56 79l45 -32l-62 -86q67 -84 67 -209z" />
    <glyph glyph-name="Ugrave" unicode="&#xd9;" 
d="M346 656l-19 -15l-115 99q-31 23 -31 49q0 21 13.5 34.5t32.5 13.5q36 0 54 -40zM307 -14q-86 0 -143.5 56.5t-57.5 142.5v301l-26 26h-55v58h224v-58h-55l-26 -26v-299q0 -63 40 -102t99 -39t99 39t40 102v299l-26 26h-55v58h224v-58h-55l-26 -26v-301
q0 -86 -57.5 -142.5t-143.5 -56.5z" />
    <glyph glyph-name="Uacute" unicode="&#xda;" 
d="M269 656l65 141q18 40 54 40q19 0 32.5 -13.5t13.5 -34.5q0 -26 -31 -49l-115 -99zM307 -14q-86 0 -143.5 56.5t-57.5 142.5v301l-26 26h-55v58h224v-58h-55l-26 -26v-299q0 -63 40 -102t99 -39t99 39t40 102v299l-26 26h-55v58h224v-58h-55l-26 -26v-301
q0 -86 -57.5 -142.5t-143.5 -56.5z" />
    <glyph glyph-name="Ucircumflex" unicode="&#xdb;" 
d="M307 -14q-86 0 -143.5 56.5t-57.5 142.5v301l-26 26h-55v58h224v-58h-55l-26 -26v-299q0 -63 40 -102t99 -39t99 39t40 102v299l-26 26h-55v58h224v-58h-55l-26 -26v-301q0 -86 -57.5 -142.5t-143.5 -56.5zM307 827q25 0 49 -31l99 -139l-23 -19l-125 105l-124 -105
l-24 19l100 139q22 31 48 31z" />
    <glyph glyph-name="Udieresis" unicode="&#xdc;" 
d="M413 651q-27 0 -46 18.5t-19 44.5t19 45t46 19t45.5 -19t18.5 -45t-18.5 -44.5t-45.5 -18.5zM202 651q-27 0 -46 18.5t-19 44.5q0 27 19 45.5t46 18.5t45.5 -18.5t18.5 -45.5q0 -26 -18.5 -44.5t-45.5 -18.5zM307 -14q-86 0 -143.5 56.5t-57.5 142.5v301l-26 26h-55v58
h224v-58h-55l-26 -26v-299q0 -63 40 -102t99 -39t99 39t40 102v299l-26 26h-55v58h224v-58h-55l-26 -26v-301q0 -86 -57.5 -142.5t-143.5 -56.5z" />
    <glyph glyph-name="Yacute" unicode="&#xdd;" 
d="M340 210v-126l26 -26h116v-58h-350v58h116l26 26v126l-202 302h-62v58h246v-58h-71l-23 -21l148 -229l147 229l-23 21h-71v58h241v-58h-62zM269 656l65 141q18 40 54 40q19 0 32.5 -13.5t13.5 -34.5q0 -26 -31 -49l-115 -99z" />
    <glyph glyph-name="Thorn" unicode="&#xde;" 
d="M216 380v-179h128q83 0 121.5 21t38.5 68t-38.5 68.5t-121.5 21.5h-128zM216 496v-58h130q226 0 226 -148q0 -147 -226 -147h-130v-69l16 -16h145v-58h-342v58h93l26 26v402l-26 26h-93v58h301v-58h-104z" />
    <glyph glyph-name="germandbls" unicode="&#xdf;" 
d="M120 407q3 96 55.5 158.5t142.5 62.5q72 0 117.5 -38t45.5 -100q0 -44 -23.5 -76.5t-62.5 -40.5q79 -12 129.5 -64.5t50.5 -133.5q0 -83 -50.5 -136t-131.5 -53q-65 0 -104.5 36t-39.5 90q0 36 19.5 58t48.5 22q23 0 38 -13t15 -33t-12 -32t-32 -12q-8 0 -18 2
q1 -29 24 -47t58 -18q57 0 90 37.5t33 97.5q0 80 -59.5 121.5t-154.5 41.5v58q117 0 117 92q0 37 -27 60.5t-71 23.5q-64 0 -101 -48.5t-37 -123.5v-399h-151v58h70l21 21v249l-21 21h-70v58h91z" />
    <glyph glyph-name="agrave" unicode="&#xe0;" 
d="M89 330q0 52 59.5 80t138.5 28q84 0 129 -41t45 -114v-178q0 -59 40 -59q23 0 59 36l31 -43q-50 -53 -101 -53q-36 0 -61.5 24t-29.5 67q-37 -39 -88 -65t-106 -26q-62 0 -99.5 30t-37.5 84q0 51 39 80t117 47l174 44v14q0 49 -31.5 74.5t-88.5 25.5q-66 0 -109 -21
q27 -9 27 -41q0 -20 -15 -33.5t-38 -13.5q-24 0 -39 14.5t-15 39.5zM398 136v86l-161 -45q-101 -18 -101 -74q0 -29 21.5 -45t54.5 -16q90 0 186 94zM331 521l-19 -15l-115 99q-31 23 -31 49q0 21 13.5 34.5t32.5 13.5q36 0 54 -40z" />
    <glyph glyph-name="aacute" unicode="&#xe1;" 
d="M89 330q0 52 59.5 80t138.5 28q84 0 129 -41t45 -114v-178q0 -59 40 -59q23 0 59 36l31 -43q-50 -53 -101 -53q-36 0 -61.5 24t-29.5 67q-37 -39 -88 -65t-106 -26q-62 0 -99.5 30t-37.5 84q0 51 39 80t117 47l174 44v14q0 49 -31.5 74.5t-88.5 25.5q-66 0 -109 -21
q27 -9 27 -41q0 -20 -15 -33.5t-38 -13.5q-24 0 -39 14.5t-15 39.5zM398 136v86l-161 -45q-101 -18 -101 -74q0 -29 21.5 -45t54.5 -16q90 0 186 94zM242 521l65 141q18 40 54 40q19 0 32.5 -13.5t13.5 -34.5q0 -26 -31 -49l-115 -99z" />
    <glyph glyph-name="acircumflex" unicode="&#xe2;" 
d="M89 330q0 52 59.5 80t138.5 28q84 0 129 -41t45 -114v-178q0 -59 40 -59q23 0 59 36l31 -43q-50 -53 -101 -53q-36 0 -61.5 24t-29.5 67q-37 -39 -88 -65t-106 -26q-62 0 -99.5 30t-37.5 84q0 51 39 80t117 47l174 44v14q0 49 -31.5 74.5t-88.5 25.5q-66 0 -109 -21
q27 -9 27 -41q0 -20 -15 -33.5t-38 -13.5q-24 0 -39 14.5t-15 39.5zM398 136v86l-161 -45q-101 -18 -101 -74q0 -29 21.5 -45t54.5 -16q90 0 186 94zM285 694q27 0 49 -31l99 -139l-23 -19l-125 105l-124 -105l-24 19l100 139q21 31 48 31z" />
    <glyph glyph-name="atilde" unicode="&#xe3;" 
d="M89 330q0 52 59.5 80t138.5 28q84 0 129 -41t45 -114v-178q0 -59 40 -59q23 0 59 36l31 -43q-50 -53 -101 -53q-36 0 -61.5 24t-29.5 67q-37 -39 -88 -65t-106 -26q-62 0 -99.5 30t-37.5 84q0 51 39 80t117 47l174 44v14q0 49 -31.5 74.5t-88.5 25.5q-66 0 -109 -21
q27 -9 27 -41q0 -20 -15 -33.5t-38 -13.5q-24 0 -39 14.5t-15 39.5zM398 136v86l-161 -45q-101 -18 -101 -74q0 -29 21.5 -45t54.5 -16q90 0 186 94zM410 642h57q0 -58 -28.5 -93.5t-75.5 -35.5q-35 0 -81.5 36t-66.5 36q-23 0 -39 -19t-16 -50h-57q0 58 28.5 93t75.5 35
q35 0 81.5 -36t67.5 -36q23 0 38.5 19.5t15.5 50.5z" />
    <glyph glyph-name="adieresis" unicode="&#xe4;" 
d="M89 330q0 52 59.5 80t138.5 28q84 0 129 -41t45 -114v-178q0 -59 40 -59q23 0 59 36l31 -43q-50 -53 -101 -53q-36 0 -61.5 24t-29.5 67q-37 -39 -88 -65t-106 -26q-62 0 -99.5 30t-37.5 84q0 51 39 80t117 47l174 44v14q0 49 -31.5 74.5t-88.5 25.5q-66 0 -109 -21
q27 -9 27 -41q0 -20 -15 -33.5t-38 -13.5q-24 0 -39 14.5t-15 39.5zM398 136v86l-161 -45q-101 -18 -101 -74q0 -29 21.5 -45t54.5 -16q90 0 186 94zM391 526q-27 0 -46 18.5t-19 44.5t19 45t46 19t45.5 -19t18.5 -45t-18.5 -44.5t-45.5 -18.5zM180 526q-27 0 -46 18.5
t-19 44.5q0 27 19 45.5t46 18.5t45.5 -18.5t18.5 -45.5q0 -26 -18.5 -44.5t-45.5 -18.5z" />
    <glyph glyph-name="aring" unicode="&#xe5;" 
d="M89 330q0 52 59.5 80t138.5 28q84 0 129 -41t45 -114v-178q0 -59 40 -59q23 0 59 36l31 -43q-50 -53 -101 -53q-36 0 -61.5 24t-29.5 67q-37 -39 -88 -65t-106 -26q-62 0 -99.5 30t-37.5 84q0 51 39 80t117 47l174 44v14q0 49 -31.5 74.5t-88.5 25.5q-66 0 -109 -21
q27 -9 27 -41q0 -20 -15 -33.5t-38 -13.5q-24 0 -39 14.5t-15 39.5zM398 136v86l-161 -45q-101 -18 -101 -74q0 -29 21.5 -45t54.5 -16q90 0 186 94zM347 608q0 28 -17 45t-45 17t-44.5 -17t-16.5 -45t16.5 -45.5t44.5 -17.5t45 17.5t17 45.5zM397 608q0 -47 -32.5 -79.5
t-79.5 -32.5t-79.5 32.5t-32.5 79.5q0 46 32.5 78.5t79.5 32.5t79.5 -32t32.5 -79z" />
    <glyph glyph-name="ae" unicode="&#xe6;" 
d="M587 67q-64 -81 -147 -81q-73 0 -123 63q-76 -63 -155 -63q-59 0 -98 33t-39 92q0 62 56 93.5t153 33.5l32 1q4 47 24 94q-22 52 -86 52q-42 0 -81 -20q12 -3 19.5 -14t7.5 -26q0 -19 -14 -32t-36 -13q-23 0 -37 14t-14 38q0 46 47 76t108 30q80 0 118 -55q49 55 111 55
q74 0 115.5 -70.5t41.5 -172.5l-265 -7q5 -62 36 -102t79 -40q60 0 111 63zM525 245v6q-5 56 -28 92t-64 36q-44 0 -73 -38t-35 -101zM234 185h-6q-135 -2 -135 -73q0 -33 22 -51.5t54 -18.5q61 0 123 47q-22 43 -26 97z" />
    <glyph glyph-name="ccedilla" unicode="&#xe7;" 
d="M310 -231q-46 0 -84 20t-55 60l44 29q26 -63 95 -63q61 0 61 46q0 23 -21.5 36t-63.5 10l-37 26l25 57q-88 14 -142.5 75.5t-54.5 146.5q0 95 72 160.5t175 65.5q88 0 143.5 -41t55.5 -101q0 -28 -17.5 -47.5t-43.5 -19.5q-25 0 -42 16.5t-17 39.5q0 17 11 29.5t28 15.5
q-11 22 -42.5 36t-77.5 14q-72 0 -124.5 -47t-52.5 -121q0 -70 47 -118t128 -48q94 0 171 68l36 -47q-90 -81 -207 -81h-1l-15 -36q55 0 87 -23t32 -66q0 -44 -33.5 -68t-79.5 -24z" />
    <glyph glyph-name="egrave" unicode="&#xe8;" 
d="M464 246l-1 5q-11 57 -51 93t-102 36t-108.5 -37t-57.5 -97h320zM519 67q-89 -81 -203 -81q-104 0 -171.5 64.5t-67.5 161.5q0 96 66.5 161t166.5 65q107 0 167 -70.5t60 -172.5h-395q6 -64 52.5 -107t121.5 -43q95 0 169 66zM361 521l-19 -15l-115 99q-31 23 -31 49
q0 21 13.5 34.5t32.5 13.5q36 0 54 -40z" />
    <glyph glyph-name="eacute" unicode="&#xe9;" 
d="M271 521l65 141q18 40 54 40q19 0 32.5 -13.5t13.5 -34.5q0 -26 -31 -49l-115 -99zM464 246l-1 5q-11 57 -51 93t-102 36t-108.5 -37t-57.5 -97h320zM519 67q-89 -81 -203 -81q-104 0 -171.5 64.5t-67.5 161.5q0 96 66.5 161t166.5 65q107 0 167 -70.5t60 -172.5h-395
q6 -64 52.5 -107t121.5 -43q95 0 169 66z" />
    <glyph glyph-name="ecircumflex" unicode="&#xea;" 
d="M315 694q27 0 49 -31l99 -139l-23 -19l-125 105l-124 -105l-24 19l100 139q21 31 48 31zM464 246l-1 5q-11 57 -51 93t-102 36t-108.5 -37t-57.5 -97h320zM519 67q-89 -81 -203 -81q-104 0 -171.5 64.5t-67.5 161.5q0 96 66.5 161t166.5 65q107 0 167 -70.5t60 -172.5
h-395q6 -64 52.5 -107t121.5 -43q95 0 169 66z" />
    <glyph glyph-name="edieresis" unicode="&#xeb;" 
d="M421 526q-27 0 -46 18.5t-19 44.5t19 45t46 19t45.5 -19t18.5 -45t-18.5 -44.5t-45.5 -18.5zM210 526q-27 0 -46 18.5t-19 44.5q0 27 19 45.5t46 18.5t45.5 -18.5t18.5 -45.5q0 -26 -18.5 -44.5t-45.5 -18.5zM464 246l-1 5q-11 57 -51 93t-102 36t-108.5 -37t-57.5 -97
h320zM519 67q-89 -81 -203 -81q-104 0 -171.5 64.5t-67.5 161.5q0 96 66.5 161t166.5 65q107 0 167 -70.5t60 -172.5h-395q6 -64 52.5 -107t121.5 -43q95 0 169 66z" />
    <glyph glyph-name="igrave" unicode="&#xec;" 
d="M357 84l26 -26h153v-58h-433v58h168l26 26v256l-26 26h-168v58h254v-340zM361 521l-19 -15l-115 99q-31 23 -31 49q0 21 13.5 34.5t32.5 13.5q36 0 54 -40z" />
    <glyph glyph-name="iacute" unicode="&#xed;" 
d="M272 521l65 141q18 40 54 40q19 0 32.5 -13.5t13.5 -34.5q0 -26 -31 -49l-115 -99zM357 84l26 -26h153v-58h-433v58h168l26 26v256l-26 26h-168v58h254v-340z" />
    <glyph glyph-name="icircumflex" unicode="&#xee;" 
d="M315 694q27 0 49 -31l99 -139l-23 -19l-125 105l-124 -105l-24 19l100 139q21 31 48 31zM357 84l26 -26h153v-58h-433v58h168l26 26v256l-26 26h-168v58h254v-340z" />
    <glyph glyph-name="idieresis" unicode="&#xef;" 
d="M421 526q-27 0 -46 18.5t-19 44.5t19 45t46 19t45.5 -19t18.5 -45t-18.5 -44.5t-45.5 -18.5zM210 526q-27 0 -46 18.5t-19 44.5q0 27 19 45.5t46 18.5t45.5 -18.5t18.5 -45.5q0 -26 -18.5 -44.5t-45.5 -18.5zM357 84l26 -26h153v-58h-433v58h168l26 26v256l-26 26h-168
v58h254v-340z" />
    <glyph glyph-name="eth" unicode="&#xf0;" 
d="M307 -14q-100 0 -167 61.5t-67 151.5t67 151t167 61q90 0 149 -62q-39 97 -126 156l-117 -56l-20 39l91 44q-60 29 -132 42l14 52q103 -15 182 -63l117 56l20 -40l-95 -45q73 -58 112 -140t39 -179q0 -102 -66 -165.5t-168 -63.5zM473 199q0 65 -46.5 108.5t-119.5 43.5
t-119.5 -43.5t-46.5 -108.5t46.5 -108.5t119.5 -43.5t119.5 43.5t46.5 108.5z" />
    <glyph glyph-name="ntilde" unicode="&#xf1;" 
d="M191 275v-191l26 -26h62v-58h-236v58h62l26 26v256l-26 26h-62v58h148v-75q23 37 64.5 63t91.5 26q71 0 115 -41.5t44 -118.5v-194l26 -26h62v-58h-236v58h62l26 26v174q0 121 -101 121q-100 0 -154 -104zM443 642h57q0 -58 -28.5 -93.5t-75.5 -35.5q-35 0 -81.5 36
t-66.5 36q-23 0 -39 -19t-16 -50h-57q0 58 28.5 93t75.5 35q35 0 81.5 -36t67.5 -36q23 0 38.5 19.5t15.5 50.5z" />
    <glyph glyph-name="ograve" unicode="&#xf2;" 
d="M73 212q0 96 67 161t167 65t167 -65t67 -161t-67 -161t-167 -65t-167 65t-67 161zM473 212q0 71 -46.5 118.5t-119.5 47.5t-119.5 -47.5t-46.5 -118.5t46.5 -118.5t119.5 -47.5t119.5 47.5t46.5 118.5zM353 521l-19 -15l-115 99q-31 23 -31 49q0 21 13.5 34.5t32.5 13.5
q36 0 54 -40z" />
    <glyph glyph-name="oacute" unicode="&#xf3;" 
d="M264 521l65 141q18 40 54 40q19 0 32.5 -13.5t13.5 -34.5q0 -26 -31 -49l-115 -99zM73 212q0 96 67 161t167 65t167 -65t67 -161t-67 -161t-167 -65t-167 65t-67 161zM473 212q0 71 -46.5 118.5t-119.5 47.5t-119.5 -47.5t-46.5 -118.5t46.5 -118.5t119.5 -47.5
t119.5 47.5t46.5 118.5z" />
    <glyph glyph-name="ocircumflex" unicode="&#xf4;" 
d="M307 694q27 0 49 -31l99 -139l-23 -19l-125 105l-124 -105l-24 19l100 139q21 31 48 31zM73 212q0 96 67 161t167 65t167 -65t67 -161t-67 -161t-167 -65t-167 65t-67 161zM473 212q0 71 -46.5 118.5t-119.5 47.5t-119.5 -47.5t-46.5 -118.5t46.5 -118.5t119.5 -47.5
t119.5 47.5t46.5 118.5z" />
    <glyph glyph-name="otilde" unicode="&#xf5;" 
d="M73 212q0 96 67 161t167 65t167 -65t67 -161t-67 -161t-167 -65t-167 65t-67 161zM473 212q0 71 -46.5 118.5t-119.5 47.5t-119.5 -47.5t-46.5 -118.5t46.5 -118.5t119.5 -47.5t119.5 47.5t46.5 118.5zM441 642h57q0 -58 -28.5 -93.5t-75.5 -35.5q-35 0 -81.5 36
t-66.5 36q-23 0 -39 -19t-16 -50h-57q0 58 28.5 93t75.5 35q35 0 81.5 -36t67.5 -36q23 0 38.5 19.5t15.5 50.5z" />
    <glyph glyph-name="odieresis" unicode="&#xf6;" 
d="M413 526q-27 0 -46 18.5t-19 44.5t19 45t46 19t45.5 -19t18.5 -45t-18.5 -44.5t-45.5 -18.5zM202 526q-27 0 -46 18.5t-19 44.5q0 27 19 45.5t46 18.5t45.5 -18.5t18.5 -45.5q0 -26 -18.5 -44.5t-45.5 -18.5zM73 212q0 96 67 161t167 65t167 -65t67 -161t-67 -161
t-167 -65t-167 65t-67 161zM473 212q0 71 -46.5 118.5t-119.5 47.5t-119.5 -47.5t-46.5 -118.5t46.5 -118.5t119.5 -47.5t119.5 47.5t46.5 118.5z" />
    <glyph glyph-name="divide" unicode="&#xf7;" 
d="M85 247v58h445v-58h-445zM255 459q0 22 15 37.5t37 15.5t37.5 -15.5t15.5 -37.5t-15.5 -37.5t-37.5 -15.5t-37 15.5t-15 37.5zM255 92q0 22 15 37.5t37 15.5q23 0 38 -15.5t15 -37.5q0 -21 -15.5 -36.5t-37.5 -15.5t-37 15.5t-15 36.5z" />
    <glyph glyph-name="oslash" unicode="&#xf8;" 
d="M307 381q-73 0 -120 -49t-47 -120q0 -68 43 -116l209 263q-38 22 -85 22zM307 44q73 0 120.5 48.5t47.5 119.5q0 66 -41 112l-207 -261q36 -19 80 -19zM541 212q0 -96 -67 -161t-167 -65q-66 0 -118 29l-63 -79l-44 33l62 78q-71 66 -71 165q0 96 67 161t167 65
q67 0 123 -31l61 77l44 -33l-61 -77q67 -65 67 -162z" />
    <glyph glyph-name="ugrave" unicode="&#xf9;" 
d="M340 424h148v-340l26 -26h62v-58h-148v75q-23 -37 -64.5 -63t-91.5 -26q-71 0 -115 41t-44 119v194l-26 26h-62v58h148v-258q0 -121 101 -121q100 0 154 104v191l-26 26h-62v58zM339 521l-19 -15l-115 99q-31 23 -31 49q0 21 13.5 34.5t32.5 13.5q36 0 54 -40z" />
    <glyph glyph-name="uacute" unicode="&#xfa;" 
d="M249 521l65 141q18 40 54 40q19 0 32.5 -13.5t13.5 -34.5q0 -26 -31 -49l-115 -99zM340 424h148v-340l26 -26h62v-58h-148v75q-23 -37 -64.5 -63t-91.5 -26q-71 0 -115 41t-44 119v194l-26 26h-62v58h148v-258q0 -121 101 -121q100 0 154 104v191l-26 26h-62v58z" />
    <glyph glyph-name="ucircumflex" unicode="&#xfb;" 
d="M292 694q27 0 49 -31l99 -139l-23 -19l-125 105l-124 -105l-24 19l100 139q21 31 48 31zM340 424h148v-340l26 -26h62v-58h-148v75q-23 -37 -64.5 -63t-91.5 -26q-71 0 -115 41t-44 119v194l-26 26h-62v58h148v-258q0 -121 101 -121q100 0 154 104v191l-26 26h-62v58z
" />
    <glyph glyph-name="udieresis" unicode="&#xfc;" 
d="M398 526q-27 0 -46 18.5t-19 44.5t19 45t46 19t45.5 -19t18.5 -45t-18.5 -44.5t-45.5 -18.5zM187 526q-27 0 -46 18.5t-19 44.5q0 27 19 45.5t46 18.5t45.5 -18.5t18.5 -45.5q0 -26 -18.5 -44.5t-45.5 -18.5zM340 424h148v-340l26 -26h62v-58h-148v75q-23 -37 -64.5 -63
t-91.5 -26q-71 0 -115 41t-44 119v194l-26 26h-62v58h148v-258q0 -121 101 -121q100 0 154 104v191l-26 26h-62v58z" />
    <glyph glyph-name="yacute" unicode="&#xfd;" 
d="M33 -95q0 31 19.5 52.5t47.5 21.5q25 0 41.5 -15t16.5 -39q0 -21 -15 -35t-39 -14q9 -26 48 -26q33 0 58.5 33.5t70.5 122.5l-190 360h-55v58h219v-58h-65l-17 -19l142 -280l142 280l-17 19h-65v58h213v-58h-55l-201 -383q-52 -100 -89 -142.5t-91 -42.5
q-50 0 -84.5 29.5t-34.5 77.5zM275 521l65 141q18 40 54 40q19 0 32.5 -13.5t13.5 -34.5q0 -26 -31 -49l-115 -99z" />
    <glyph glyph-name="thorn" unicode="&#xfe;" 
d="M176 266v-108q56 -113 164 -113q68 0 110 47.5t42 119.5t-42 119.5t-110 47.5q-108 0 -164 -113zM176 81v-195l16 -16h108v-58h-258v58h58l16 16v653l-16 16h-63v58h139v-269q24 41 68 67.5t100 26.5q92 0 153 -65t61 -161t-61 -161t-153 -65q-56 0 -100 26.5t-68 68.5z
" />
    <glyph glyph-name="ydieresis" unicode="&#xff;" 
d="M33 -95q0 31 19.5 52.5t47.5 21.5q25 0 41.5 -15t16.5 -39q0 -21 -15 -35t-39 -14q9 -26 48 -26q33 0 58.5 33.5t70.5 122.5l-190 360h-55v58h219v-58h-65l-17 -19l142 -280l142 280l-17 19h-65v58h213v-58h-55l-201 -383q-52 -100 -89 -142.5t-91 -42.5
q-50 0 -84.5 29.5t-34.5 77.5zM425 526q-27 0 -46 18.5t-19 44.5t19 45t46 19t45.5 -19t18.5 -45t-18.5 -44.5t-45.5 -18.5zM214 526q-27 0 -46 18.5t-19 44.5q0 27 19 45.5t46 18.5t45.5 -18.5t18.5 -45.5q0 -26 -18.5 -44.5t-45.5 -18.5z" />
    <glyph glyph-name="Amacron" unicode="&#x100;" 
d="M400 252l-96 253l-95 -253h191zM238 58v-58h-228v58h62l197 512h76l197 -512h62v-58h-233v58h71l23 21l-43 115h-235l-43 -115l23 -21h71zM155 725h304v-60h-304v60z" />
    <glyph glyph-name="amacron" unicode="&#x101;" 
d="M89 330q0 52 59.5 80t138.5 28q84 0 129 -41t45 -114v-178q0 -59 40 -59q23 0 59 36l31 -43q-50 -53 -101 -53q-36 0 -61.5 24t-29.5 67q-37 -39 -88 -65t-106 -26q-62 0 -99.5 30t-37.5 84q0 51 39 80t117 47l174 44v14q0 49 -31.5 74.5t-88.5 25.5q-66 0 -109 -21
q27 -9 27 -41q0 -20 -15 -33.5t-38 -13.5q-24 0 -39 14.5t-15 39.5zM398 136v86l-161 -45q-101 -18 -101 -74q0 -29 21.5 -45t54.5 -16q90 0 186 94zM133 590h304v-60h-304v60z" />
    <glyph glyph-name="Abreve" unicode="&#x102;" 
d="M400 252l-96 253l-95 -253h191zM238 58v-58h-228v58h62l197 512h76l197 -512h62v-58h-233v58h71l23 21l-43 115h-235l-43 -115l23 -21h71zM307 703q41 0 75 26.5t43 71.5l44 -11q-14 -73 -56 -113.5t-106 -40.5t-106 40.5t-55 113.5l43 11q10 -45 43.5 -71.5t74.5 -26.5z
" />
    <glyph glyph-name="abreve" unicode="&#x103;" 
d="M89 330q0 52 59.5 80t138.5 28q84 0 129 -41t45 -114v-178q0 -59 40 -59q23 0 59 36l31 -43q-50 -53 -101 -53q-36 0 -61.5 24t-29.5 67q-37 -39 -88 -65t-106 -26q-62 0 -99.5 30t-37.5 84q0 51 39 80t117 47l174 44v14q0 49 -31.5 74.5t-88.5 25.5q-66 0 -109 -21
q27 -9 27 -41q0 -20 -15 -33.5t-38 -13.5q-24 0 -39 14.5t-15 39.5zM398 136v86l-161 -45q-101 -18 -101 -74q0 -29 21.5 -45t54.5 -16q90 0 186 94zM285 571q41 0 75 26.5t43 71.5l44 -11q-14 -73 -56 -113.5t-106 -40.5t-106 40.5t-55 113.5l43 11q10 -45 43.5 -71.5
t74.5 -26.5z" />
    <glyph glyph-name="Aogonek" unicode="&#x104;" 
d="M400 252l-96 253l-95 -253h191zM476 -171q-63 -61 -124 -61q-40 0 -62 22t-22 56q0 32 24 66.5t79 87.5v58h71l23 21l-43 115h-235l-43 -115l23 -21h71v-58h-228v58h62l197 512h76l197 -512h62v-58h-160q-66 -62 -92 -93.5t-26 -53.5q0 -33 33 -33q37 0 87 50z" />
    <glyph glyph-name="aogonek" unicode="&#x105;" 
d="M457 -232q-40 0 -62 22t-22 56q0 31 22.5 64t72.5 82q-63 10 -69 85q-37 -39 -88 -65t-106 -26q-62 0 -99.5 30t-37.5 84q0 51 39 80t117 47l174 44v14q0 49 -31.5 74.5t-88.5 25.5q-66 0 -109 -21q27 -9 27 -41q0 -20 -15 -33.5t-38 -13.5q-24 0 -39 14.5t-15 39.5
q0 52 59.5 80t138.5 28q84 0 129 -41t45 -114v-178q0 -59 40 -59q23 0 59 36l31 -43q-11 -11 -44 -41t-46 -43t-33 -35t-28 -38t-8 -29q0 -33 32 -33q37 0 87 50l30 -41q-61 -61 -124 -61zM398 136v86l-161 -45q-101 -18 -101 -74q0 -29 21.5 -45t54.5 -16q90 0 186 94z" />
    <glyph glyph-name="Cacute" unicode="&#x106;" 
d="M506 138l41 -45q-90 -107 -223 -107q-120 0 -192.5 85t-72.5 214t71.5 214t190.5 85q45 0 84.5 -19.5t62.5 -51.5l13 6v51h58v-196h-46q-23 68 -68 107.5t-104 39.5q-92 0 -142.5 -67t-50.5 -169q0 -101 52.5 -168.5t143.5 -67.5q107 0 182 89zM291 656l65 141
q18 40 54 40q19 0 32.5 -13.5t13.5 -34.5q0 -26 -31 -49l-115 -99z" />
    <glyph glyph-name="cacute" unicode="&#x107;" 
d="M284 521l65 141q18 40 54 40q19 0 32.5 -13.5t13.5 -34.5q0 -26 -31 -49l-115 -99zM403 285q0 17 11 29.5t28 15.5q-11 22 -42.5 36t-77.5 14q-72 0 -124.5 -47t-52.5 -121q0 -70 47 -118t128 -48q94 0 171 68l36 -47q-90 -81 -207 -81q-106 0 -174.5 64.5t-68.5 161.5
q0 95 72 160.5t175 65.5q88 0 143.5 -41t55.5 -101q0 -28 -17.5 -47.5t-43.5 -19.5q-25 0 -42 16.5t-17 39.5z" />
    <glyph glyph-name="Ccircumflex" unicode="&#x108;" 
d="M506 138l41 -45q-90 -107 -223 -107q-120 0 -192.5 85t-72.5 214t71.5 214t190.5 85q45 0 84.5 -19.5t62.5 -51.5l13 6v51h58v-196h-46q-23 68 -68 107.5t-104 39.5q-92 0 -142.5 -67t-50.5 -169q0 -101 52.5 -168.5t143.5 -67.5q107 0 182 89zM329 827q25 0 49 -31
l99 -139l-23 -19l-125 105l-124 -105l-24 19l100 139q22 31 48 31z" />
    <glyph glyph-name="ccircumflex" unicode="&#x109;" 
d="M327 694q27 0 49 -31l99 -139l-23 -19l-125 105l-124 -105l-24 19l100 139q21 31 48 31zM403 285q0 17 11 29.5t28 15.5q-11 22 -42.5 36t-77.5 14q-72 0 -124.5 -47t-52.5 -121q0 -70 47 -118t128 -48q94 0 171 68l36 -47q-90 -81 -207 -81q-106 0 -174.5 64.5
t-68.5 161.5q0 95 72 160.5t175 65.5q88 0 143.5 -41t55.5 -101q0 -28 -17.5 -47.5t-43.5 -19.5q-25 0 -42 16.5t-17 39.5z" />
    <glyph glyph-name="Cdotaccent" unicode="&#x10a;" 
d="M329 648q-27 0 -45.5 18.5t-18.5 45.5q0 28 18.5 47.5t45.5 19.5q29 0 48 -19.5t19 -47.5q0 -27 -19.5 -45.5t-47.5 -18.5zM506 138l41 -45q-90 -107 -223 -107q-120 0 -192.5 85t-72.5 214t71.5 214t190.5 85q45 0 84.5 -19.5t62.5 -51.5l13 6v51h58v-196h-46
q-23 68 -68 107.5t-104 39.5q-92 0 -142.5 -67t-50.5 -169q0 -101 52.5 -168.5t143.5 -67.5q107 0 182 89z" />
    <glyph glyph-name="cdotaccent" unicode="&#x10b;" 
d="M403 285q0 17 11 29.5t28 15.5q-11 22 -42.5 36t-77.5 14q-72 0 -124.5 -47t-52.5 -121q0 -70 47 -118t128 -48q94 0 171 68l36 -47q-90 -81 -207 -81q-106 0 -174.5 64.5t-68.5 161.5q0 95 72 160.5t175 65.5q88 0 143.5 -41t55.5 -101q0 -28 -17.5 -47.5t-43.5 -19.5
q-25 0 -42 16.5t-17 39.5zM327 523q-27 0 -45.5 18.5t-18.5 45.5q0 28 18.5 47.5t45.5 19.5q29 0 48 -19t19 -48q0 -27 -19.5 -45.5t-47.5 -18.5z" />
    <glyph glyph-name="Ccaron" unicode="&#x10c;" 
d="M506 138l41 -45q-90 -107 -223 -107q-120 0 -192.5 85t-72.5 214t71.5 214t190.5 85q45 0 84.5 -19.5t62.5 -51.5l13 6v51h58v-196h-46q-23 68 -68 107.5t-104 39.5q-92 0 -142.5 -67t-50.5 -169q0 -101 52.5 -168.5t143.5 -67.5q107 0 182 89zM329 641q-27 0 -48 31
l-100 139l24 19l124 -105l125 105l23 -19l-99 -139q-22 -31 -49 -31z" />
    <glyph glyph-name="ccaron" unicode="&#x10d;" 
d="M327 506q-27 0 -48 31l-100 139l24 19l124 -105l125 105l23 -19l-99 -139q-22 -31 -49 -31zM403 285q0 17 11 29.5t28 15.5q-11 22 -42.5 36t-77.5 14q-72 0 -124.5 -47t-52.5 -121q0 -70 47 -118t128 -48q94 0 171 68l36 -47q-90 -81 -207 -81q-106 0 -174.5 64.5
t-68.5 161.5q0 95 72 160.5t175 65.5q88 0 143.5 -41t55.5 -101q0 -28 -17.5 -47.5t-43.5 -19.5q-25 0 -42 16.5t-17 39.5z" />
    <glyph glyph-name="Dcaron" unicode="&#x10e;" 
d="M286 641q-27 0 -48 31l-100 139l24 19l124 -105l125 105l23 -19l-99 -139q-22 -31 -49 -31zM185 58h71q115 0 176.5 63.5t61.5 163.5t-61.5 163.5t-176.5 63.5h-71v-454zM256 0h-221v58h62l26 26v402l-26 26h-62v58h221q146 0 226.5 -79.5t80.5 -205.5t-80.5 -205.5
t-226.5 -79.5z" />
    <glyph glyph-name="dcaron" unicode="&#x10f;" 
d="M549 519l53 157q14 49 53 49q19 0 32.5 -13t13.5 -33q0 -24 -22 -47l-109 -124zM438 158v108q-56 113 -163 113q-69 0 -111 -47.5t-42 -119.5t42 -119.5t111 -47.5q107 0 163 113zM314 613h184v-539l16 -16h58v-58h-134v80q-24 -41 -68 -68t-100 -27q-92 0 -153 65.5
t-61 161.5t61 161t153 65q56 0 100 -26.5t68 -68.5v196l-16 16h-108v58z" />
    <glyph glyph-name="Dcroat" unicode="&#x110;" 
d="M256 0h-221v58h62l26 26v188h-90v58h90v156l-26 26h-62v58h221q146 0 226.5 -79.5t80.5 -205.5t-80.5 -205.5t-226.5 -79.5zM185 58h71q115 0 176.5 63.5t61.5 163.5t-61.5 163.5t-176.5 63.5h-71v-182h137v-58h-137v-214z" />
    <glyph glyph-name="dcroat" unicode="&#x111;" 
d="M438 147v97q-56 103 -164 103q-68 0 -110 -43t-42 -109q0 -65 42 -108t110 -43q108 0 164 103zM438 73q-24 -38 -68 -63t-100 -25q-92 0 -152.5 60.5t-60.5 149.5t60.5 149.5t152.5 60.5q56 0 100 -24.5t68 -63.5v143h-186v47h186v48l-11 11h-113v47h184v-106h75v-47h-75
v-386l16 -16h58v-58h-134v73z" />
    <glyph glyph-name="Emacron" unicode="&#x112;" 
d="M163 725h304v-60h-304v60zM206 58h254l26 26v108h60v-192h-511v58h83l26 26v402l-26 26h-83v58h505v-192h-60v108l-26 26h-248v-193h114l26 26v63h52v-232h-52v63l-26 26h-114v-207z" />
    <glyph glyph-name="emacron" unicode="&#x113;" 
d="M464 246l-1 5q-11 57 -51 93t-102 36t-108.5 -37t-57.5 -97h320zM519 67q-89 -81 -203 -81q-104 0 -171.5 64.5t-67.5 161.5q0 96 66.5 161t166.5 65q107 0 167 -70.5t60 -172.5h-395q6 -64 52.5 -107t121.5 -43q95 0 169 66zM163 590h304v-60h-304v60z" />
    <glyph glyph-name="Ebreve" unicode="&#x114;" 
d="M315 703q41 0 75 26.5t43 71.5l44 -11q-14 -73 -56 -113.5t-106 -40.5t-106 40.5t-55 113.5l43 11q10 -45 43.5 -71.5t74.5 -26.5zM206 58h254l26 26v108h60v-192h-511v58h83l26 26v402l-26 26h-83v58h505v-192h-60v108l-26 26h-248v-193h114l26 26v63h52v-232h-52v63
l-26 26h-114v-207z" />
    <glyph glyph-name="ebreve" unicode="&#x115;" 
d="M464 246l-1 5q-11 57 -51 93t-102 36t-108.5 -37t-57.5 -97h320zM519 67q-89 -81 -203 -81q-104 0 -171.5 64.5t-67.5 161.5q0 96 66.5 161t166.5 65q107 0 167 -70.5t60 -172.5h-395q6 -64 52.5 -107t121.5 -43q95 0 169 66zM315 571q41 0 75 26.5t43 71.5l44 -11
q-14 -73 -56 -113.5t-106 -40.5t-106 40.5t-55 113.5l43 11q10 -45 43.5 -71.5t74.5 -26.5z" />
    <glyph glyph-name="Edotaccent" unicode="&#x116;" 
d="M315 648q-27 0 -45.5 18.5t-18.5 45.5q0 28 18.5 47.5t45.5 19.5q29 0 48 -19.5t19 -47.5q0 -27 -19.5 -45.5t-47.5 -18.5zM206 58h254l26 26v108h60v-192h-511v58h83l26 26v402l-26 26h-83v58h505v-192h-60v108l-26 26h-248v-193h114l26 26v63h52v-232h-52v63l-26 26
h-114v-207z" />
    <glyph glyph-name="edotaccent" unicode="&#x117;" 
d="M464 246l-1 5q-11 57 -51 93t-102 36t-108.5 -37t-57.5 -97h320zM519 67q-89 -81 -203 -81q-104 0 -171.5 64.5t-67.5 161.5q0 96 66.5 161t166.5 65q107 0 167 -70.5t60 -172.5h-395q6 -64 52.5 -107t121.5 -43q95 0 169 66zM314 523q-27 0 -45.5 18.5t-18.5 45.5
q0 28 18.5 47.5t45.5 19.5q28 0 47.5 -19t19.5 -48q0 -27 -19.5 -45.5t-47.5 -18.5z" />
    <glyph glyph-name="Eogonek" unicode="&#x118;" 
d="M484 -171q-63 -61 -124 -61q-40 0 -62 22t-22 56q0 32 24 66.5t79 87.5h-344v58h83l26 26v402l-26 26h-83v58h505v-192h-60v108l-26 26h-248v-193h114l26 26v63h52v-232h-52v63l-26 26h-114v-207h254l26 26v108h60v-192h-94q-66 -62 -92 -93.5t-26 -53.5q0 -33 33 -33
q37 0 87 50z" />
    <glyph glyph-name="eogonek" unicode="&#x119;" 
d="M464 246l-1 4q-12 58 -51.5 94t-101.5 36t-108.5 -37t-57.5 -97h320zM476 -171q-63 -61 -124 -61q-40 0 -62 22t-22 56q0 68 99 147q-25 -7 -51 -7q-104 0 -171.5 64.5t-67.5 161.5q0 96 66.5 161t166.5 65q107 0 167 -70.5t60 -172.5h-394q5 -64 52 -107t121 -43
q95 0 169 66l34 -44q-100 -80 -146.5 -128t-46.5 -86q0 -33 33 -33q37 0 87 50z" />
    <glyph glyph-name="Ecaron" unicode="&#x11a;" 
d="M315 641q-27 0 -48 31l-100 139l24 19l124 -105l125 105l23 -19l-99 -139q-22 -31 -49 -31zM206 58h254l26 26v108h60v-192h-511v58h83l26 26v402l-26 26h-83v58h505v-192h-60v108l-26 26h-248v-193h114l26 26v63h52v-232h-52v63l-26 26h-114v-207z" />
    <glyph glyph-name="ecaron" unicode="&#x11b;" 
d="M315 506q-27 0 -48 31l-100 139l24 19l124 -105l125 105l23 -19l-99 -139q-22 -31 -49 -31zM464 246l-1 5q-11 57 -51 93t-102 36t-108.5 -37t-57.5 -97h320zM519 67q-89 -81 -203 -81q-104 0 -171.5 64.5t-67.5 161.5q0 96 66.5 161t166.5 65q107 0 167 -70.5t60 -172.5
h-395q6 -64 52.5 -107t121.5 -43q95 0 169 66z" />
    <glyph glyph-name="Gcircumflex" unicode="&#x11c;" 
d="M307 521q-91 0 -141.5 -66.5t-50.5 -168.5t50 -169t140 -67q83 0 156 94v60l-20 21h-77v58h220v-58h-39l-24 -24v-201h-60v55l-12 6q-28 -37 -69 -56t-83 -19q-113 0 -182 85.5t-69 214.5q0 128 71 213t188 85q44 0 81.5 -19.5t60.5 -51.5l13 6v51h59v-186h-48
q-49 137 -164 137zM312 827q25 0 49 -31l99 -139l-23 -19l-125 105l-124 -105l-24 19l100 139q22 31 48 31z" />
    <glyph glyph-name="gcircumflex" unicode="&#x11d;" 
d="M299 704q27 0 49 -31l99 -139l-23 -19l-125 105l-124 -105l-24 19l100 139q21 31 48 31zM391 288q0 41 -31 67t-80 26t-80.5 -26t-31.5 -67q0 -40 31.5 -66.5t80.5 -26.5q48 0 79.5 26.5t31.5 66.5zM557 -49q0 -65 -71.5 -109t-184.5 -44q-118 0 -187 37t-69 103
q0 59 63 98q-30 25 -30 67q0 60 63 88q-38 41 -38 97q0 64 49.5 107t127.5 43q50 0 94 -21q45 84 126 84q42 0 71 -24t29 -62q0 -26 -16 -42.5t-38 -16.5t-36.5 15t-14.5 35q0 27 22 36q-7 9 -25 9q-48 0 -79 -61q43 -43 43 -102q0 -64 -49 -107t-127 -43q-55 0 -100 24
q-43 -22 -43 -51q0 -18 12 -29.5t36 -11.5h220q71 0 111.5 -30t40.5 -89zM409 7h-257q-43 -28 -43 -64q0 -41 51.5 -64t140.5 -23q87 0 140.5 26.5t53.5 66.5q0 58 -86 58z" />
    <glyph glyph-name="Gbreve" unicode="&#x11e;" 
d="M312 703q41 0 75 26.5t43 71.5l44 -11q-14 -73 -56 -113.5t-106 -40.5t-106 40.5t-55 113.5l43 11q10 -45 43.5 -71.5t74.5 -26.5zM307 521q-91 0 -141.5 -66.5t-50.5 -168.5t50 -169t140 -67q83 0 156 94v60l-20 21h-77v58h220v-58h-39l-24 -24v-201h-60v55l-12 6
q-28 -37 -69 -56t-83 -19q-113 0 -182 85.5t-69 214.5q0 128 71 213t188 85q44 0 81.5 -19.5t60.5 -51.5l13 6v51h59v-186h-48q-49 137 -164 137z" />
    <glyph glyph-name="gbreve" unicode="&#x11f;" 
d="M391 288q0 41 -31 67t-80 26t-80.5 -26t-31.5 -67q0 -40 31.5 -66.5t80.5 -26.5q48 0 79.5 26.5t31.5 66.5zM557 -49q0 -65 -71.5 -109t-184.5 -44q-118 0 -187 37t-69 103q0 59 63 98q-30 25 -30 67q0 60 63 88q-38 41 -38 97q0 64 49.5 107t127.5 43q50 0 94 -21
q45 84 126 84q42 0 71 -24t29 -62q0 -26 -16 -42.5t-38 -16.5t-36.5 15t-14.5 35q0 27 22 36q-7 9 -25 9q-48 0 -79 -61q43 -43 43 -102q0 -64 -49 -107t-127 -43q-55 0 -100 24q-43 -22 -43 -51q0 -18 12 -29.5t36 -11.5h220q71 0 111.5 -30t40.5 -89zM409 7h-257
q-43 -28 -43 -64q0 -41 51.5 -64t140.5 -23q87 0 140.5 26.5t53.5 66.5q0 58 -86 58zM289 576q41 0 75 26.5t43 71.5l44 -11q-14 -73 -56 -113.5t-106 -40.5t-106 40.5t-55 113.5l43 11q10 -45 43.5 -71.5t74.5 -26.5z" />
    <glyph glyph-name="Gdotaccent" unicode="&#x120;" 
d="M312 648q-27 0 -45.5 18.5t-18.5 45.5q0 28 18.5 47.5t45.5 19.5q28 0 47.5 -19.5t19.5 -47.5q0 -27 -19.5 -45.5t-47.5 -18.5zM307 521q-91 0 -141.5 -66.5t-50.5 -168.5t50 -169t140 -67q83 0 156 94v60l-20 21h-77v58h220v-58h-39l-24 -24v-201h-60v55l-12 6
q-28 -37 -69 -56t-83 -19q-113 0 -182 85.5t-69 214.5q0 128 71 213t188 85q44 0 81.5 -19.5t60.5 -51.5l13 6v51h59v-186h-48q-49 137 -164 137z" />
    <glyph glyph-name="gdotaccent" unicode="&#x121;" 
d="M391 288q0 41 -31 67t-80 26t-80.5 -26t-31.5 -67q0 -40 31.5 -66.5t80.5 -26.5q48 0 79.5 26.5t31.5 66.5zM557 -49q0 -65 -71.5 -109t-184.5 -44q-118 0 -187 37t-69 103q0 59 63 98q-30 25 -30 67q0 60 63 88q-38 41 -38 97q0 64 49.5 107t127.5 43q50 0 94 -21
q45 84 126 84q42 0 71 -24t29 -62q0 -26 -16 -42.5t-38 -16.5t-36.5 15t-14.5 35q0 27 22 36q-7 9 -25 9q-48 0 -79 -61q43 -43 43 -102q0 -64 -49 -107t-127 -43q-55 0 -100 24q-43 -22 -43 -51q0 -18 12 -29.5t36 -11.5h220q71 0 111.5 -30t40.5 -89zM409 7h-257
q-43 -28 -43 -64q0 -41 51.5 -64t140.5 -23q87 0 140.5 26.5t53.5 66.5q0 58 -86 58zM304 523q-27 0 -45.5 18.5t-18.5 45.5q0 28 18.5 47.5t45.5 19.5q28 0 47.5 -19t19.5 -48q0 -27 -19.5 -45.5t-47.5 -18.5z" />
    <glyph glyph-name="Gcommaaccent" unicode="&#x122;" 
d="M251 -131q0 26 18 44t44 18q25 0 43 -18.5t18 -44.5q0 -23 -18 -47l-94 -116l-28 20l58 89q-18 5 -29.5 20t-11.5 35zM307 521q-91 0 -141.5 -66.5t-50.5 -168.5t50 -169t140 -67q83 0 156 94v60l-20 21h-77v58h220v-58h-39l-24 -24v-201h-60v55l-12 6q-28 -37 -69 -56
t-83 -19q-113 0 -182 85.5t-69 214.5q0 128 71 213t188 85q44 0 81.5 -19.5t60.5 -51.5l13 6v51h59v-186h-48q-49 137 -164 137z" />
    <glyph glyph-name="gcommaaccent" unicode="&#x123;" 
d="M356 579q0 -26 -18 -44t-44 -18q-25 0 -43 18.5t-18 44.5q0 23 18 47l94 116l28 -20l-58 -89q18 -5 29.5 -20t11.5 -35zM391 288q0 41 -31 67t-80 26t-80.5 -26t-31.5 -67q0 -40 31.5 -66.5t80.5 -26.5q48 0 79.5 26.5t31.5 66.5zM557 -49q0 -65 -71.5 -109t-184.5 -44
q-118 0 -187 37t-69 103q0 59 63 98q-30 25 -30 67q0 60 63 88q-38 41 -38 97q0 64 49.5 107t127.5 43q50 0 94 -21q45 84 126 84q42 0 71 -24t29 -62q0 -26 -16 -42.5t-38 -16.5t-36.5 15t-14.5 35q0 27 22 36q-7 9 -25 9q-48 0 -79 -61q43 -43 43 -102q0 -64 -49 -107
t-127 -43q-55 0 -100 24q-43 -22 -43 -51q0 -18 12 -29.5t36 -11.5h220q71 0 111.5 -30t40.5 -89zM409 7h-257q-43 -28 -43 -64q0 -41 51.5 -64t140.5 -23q87 0 140.5 26.5t53.5 66.5q0 58 -86 58z" />
    <glyph glyph-name="Hcircumflex" unicode="&#x124;" 
d="M436 486l-26 26h-55v58h224v-58h-55l-26 -26v-402l26 -26h55v-58h-224v58h55l26 26v184h-258v-184l26 -26h55v-58h-224v58h55l26 26v402l-26 26h-55v58h224v-58h-55l-26 -26v-160h258v160zM307 827q25 0 49 -31l99 -139l-23 -19l-125 105l-124 -105l-24 19l100 139
q22 31 48 31z" />
    <glyph glyph-name="hcircumflex" unicode="&#x125;" 
d="M191 275v-191l26 -26h62v-58h-236v58h62l26 26v445l-26 26h-62v58h148v-264q23 37 64.5 63t91.5 26q71 0 115 -41.5t44 -118.5v-194l26 -26h62v-58h-236v58h62l26 26v174q0 121 -101 121q-100 0 -154 -104zM318 847q25 0 49 -31l99 -139l-23 -19l-125 105l-124 -105
l-24 19l100 139q22 31 48 31z" />
    <glyph glyph-name="Hbar" unicode="&#x126;" 
d="M178 271h258v81h-258v-81zM259 58v-58h-224v58h55l26 26v268h-83v53h83v81l-26 26h-55v58h224v-58h-55l-26 -26v-81h258v81l-26 26h-55v58h224v-58h-55l-26 -26v-81h84v-53h-84v-268l26 -26h55v-58h-224v58h55l26 26v134h-258v-134l26 -26h55z" />
    <glyph glyph-name="hbar" unicode="&#x127;" 
d="M279 58v-58h-236v58h62l26 26v376h-89v47h89v48l-12 11h-76v47h148v-106h171v-47h-171v-137q23 37 64.5 63t91.5 26q71 0 115 -41.5t44 -118.5v-168l26 -26h62v-58h-236v58h62l26 26v148q0 121 -101 121q-100 0 -154 -104v-165l26 -26h62z" />
    <glyph glyph-name="Itilde" unicode="&#x128;" 
d="M274 486l-26 26h-146v58h410v-58h-146l-26 -26v-402l26 -26h146v-58h-410v58h146l26 26v402zM431 772h57q0 -58 -28.5 -93.5t-75.5 -35.5q-35 0 -81.5 36t-66.5 36q-23 0 -39 -19t-16 -50h-57q0 58 28.5 93t75.5 35q35 0 81.5 -36t67.5 -36q23 0 38.5 19.5t15.5 50.5z
" />
    <glyph glyph-name="itilde" unicode="&#x129;" 
d="M357 84l26 -26h153v-58h-433v58h168l26 26v256l-26 26h-168v58h254v-340zM435 642h57q0 -58 -28.5 -93.5t-75.5 -35.5q-35 0 -81.5 36t-66.5 36q-23 0 -39 -19t-16 -50h-57q0 58 28.5 93t75.5 35q35 0 81.5 -36t67.5 -36q23 0 38.5 19.5t15.5 50.5z" />
    <glyph glyph-name="Imacron" unicode="&#x12a;" 
d="M274 486l-26 26h-146v58h410v-58h-146l-26 -26v-402l26 -26h146v-58h-410v58h146l26 26v402zM154 725h304v-60h-304v60z" />
    <glyph glyph-name="imacron" unicode="&#x12b;" 
d="M357 84l26 -26h153v-58h-433v58h168l26 26v256l-26 26h-168v58h254v-340zM158 590h304v-60h-304v60z" />
    <glyph glyph-name="Ibreve" unicode="&#x12c;" 
d="M274 486l-26 26h-146v58h410v-58h-146l-26 -26v-402l26 -26h146v-58h-410v58h146l26 26v402zM306 703q41 0 75 26.5t43 71.5l44 -11q-14 -73 -56 -113.5t-106 -40.5t-106 40.5t-55 113.5l43 11q10 -45 43.5 -71.5t74.5 -26.5z" />
    <glyph glyph-name="ibreve" unicode="&#x12d;" 
d="M357 84l26 -26h153v-58h-433v58h168l26 26v256l-26 26h-168v58h254v-340zM310 571q41 0 75 26.5t43 71.5l44 -11q-14 -73 -56 -113.5t-106 -40.5t-106 40.5t-55 113.5l43 11q10 -45 43.5 -71.5t74.5 -26.5z" />
    <glyph glyph-name="Iogonek" unicode="&#x12e;" 
d="M455 -171q-63 -61 -124 -61q-40 0 -62 22t-22 56q0 32 24 66.5t79 87.5h-248v58h146l26 26v402l-26 26h-146v58h410v-58h-146l-26 -26v-402l26 -26h146v-58h-89q-66 -62 -92 -93.5t-26 -53.5q0 -33 33 -33q37 0 87 50z" />
    <glyph glyph-name="iogonek" unicode="&#x12f;" 
d="M246 587q0 28 18.5 47.5t45.5 19.5q28 0 47.5 -19t19.5 -48q0 -27 -19.5 -45.5t-47.5 -18.5q-27 0 -45.5 18.5t-18.5 45.5zM448 -171q-63 -61 -124 -61q-40 0 -62 22t-22 56q0 32 24 66.5t79 87.5h-240v58h168l26 26v256l-26 26h-168v58h254v-340l26 -26h153v-58h-120
q-66 -62 -92 -93.5t-26 -53.5q0 -33 33 -33q37 0 87 50z" />
    <glyph glyph-name="Idotaccent" unicode="&#x130;" 
d="M274 486l-26 26h-146v58h410v-58h-146l-26 -26v-402l26 -26h146v-58h-410v58h146l26 26v402zM306 648q-27 0 -45.5 18.5t-18.5 45.5q0 28 18.5 47.5t45.5 19.5q28 0 47.5 -19.5t19.5 -47.5q0 -27 -19.5 -45.5t-47.5 -18.5z" />
    <glyph glyph-name="dotlessi" unicode="&#x131;" 
d="M357 84l26 -26h153v-58h-433v58h168l26 26v256l-26 26h-168v58h254v-340z" />
    <glyph glyph-name="Jcircumflex" unicode="&#x134;" 
d="M403 219v267l-26 26h-176v58h368v-58h-74l-26 -26v-272q0 -108 -59.5 -168t-149.5 -60q-88 0 -144.5 54t-56.5 128q0 35 21 58t51 23q28 0 46.5 -17.5t18.5 -40.5q0 -25 -19.5 -43.5t-45.5 -14.5q10 -39 42.5 -64t86.5 -25q143 0 143 175zM410 827q25 0 49 -31l99 -139
l-23 -19l-125 105l-124 -105l-24 19l100 139q22 31 48 31z" />
    <glyph glyph-name="jcircumflex" unicode="&#x135;" 
d="M413 694q27 0 49 -31l99 -139l-23 -19l-125 105l-124 -105l-24 19l100 139q21 31 48 31zM71 -42q0 34 19 56t48 22q27 0 44 -16.5t17 -40.5q0 -21 -15 -36t-38 -16q11 -31 43 -51.5t74 -20.5q67 0 104.5 44t37.5 131v310l-26 26h-218v58h304v-399q0 -108 -56.5 -165.5
t-145.5 -57.5q-79 0 -135.5 47t-56.5 109z" />
    <glyph glyph-name="Kcommaaccent" unicode="&#x136;" 
d="M245 -131q0 26 18 44t44 18q25 0 43 -18.5t18 -44.5q0 -23 -18 -47l-94 -116l-28 20l58 89q-18 5 -29.5 20t-11.5 35zM259 58v-58h-224v58h55l26 26v402l-26 26h-55v58h224v-58h-55l-26 -26v-239l240 244l-23 21h-44v58h215v-58h-55l-181 -184l198 -270h62v-58h-230v58
h54l23 21l-150 205l-109 -111v-89l26 -26h55z" />
    <glyph glyph-name="kcommaaccent" unicode="&#x137;" 
d="M250 -131q0 26 18 44t44 18q25 0 43 -18.5t18 -44.5q0 -23 -18 -47l-94 -116l-28 20l58 89q-18 5 -29.5 20t-11.5 35zM276 58v-58h-236v58h62l26 26v445l-26 26h-67v58h153v-415l219 154l-5 14h-65v58h227v-58h-49l-189 -130l155 -178h107v-58h-188v58l-124 144l-88 -61
v-57l26 -26h62z" />
    <glyph glyph-name="kgreenlandic" unicode="&#x138;" 
d="M276 58v-58h-236v58h62l26 26v256l-26 26h-67v58h153v-226l219 154l-5 14h-65v58h227v-58h-49l-189 -130l155 -178h107v-58h-188v58l-124 144l-88 -61v-57l26 -26h62z" />
    <glyph glyph-name="Lacute" unicode="&#x139;" 
d="M161 656l65 141q18 40 54 40q19 0 32.5 -13.5t13.5 -34.5q0 -26 -31 -49l-115 -99zM46 570h271v-58h-80l-26 -26v-428h254l26 26v138h60v-222h-505v58h77l26 26v402l-26 26h-77v58z" />
    <glyph glyph-name="lacute" unicode="&#x13a;" 
d="M281 681l65 141q18 40 54 40q19 0 32.5 -13.5t13.5 -34.5q0 -26 -31 -49l-115 -99zM357 84l26 -26h153v-58h-433v58h168l26 26v445l-26 26h-168v58h254v-529z" />
    <glyph glyph-name="Lcommaaccent" unicode="&#x13b;" 
d="M233 -131q0 26 18 44t44 18q25 0 43 -18.5t18 -44.5q0 -23 -18 -47l-94 -116l-28 20l58 89q-18 5 -29.5 20t-11.5 35zM46 570h271v-58h-80l-26 -26v-428h254l26 26v138h60v-222h-505v58h77l26 26v402l-26 26h-77v58z" />
    <glyph glyph-name="lcommaaccent" unicode="&#x13c;" 
d="M259 -131q0 26 18 44t44 18q25 0 43 -18.5t18 -44.5q0 -23 -18 -47l-94 -116l-28 20l58 89q-18 5 -29.5 20t-11.5 35zM357 84l26 -26h153v-58h-433v58h168l26 26v445l-26 26h-168v58h254v-529z" />
    <glyph glyph-name="Lcaron" unicode="&#x13d;" 
d="M392 427l53 157q14 49 53 49q19 0 32.5 -13t13.5 -33q0 -24 -22 -47l-109 -124zM46 570h271v-58h-80l-26 -26v-428h254l26 26v138h60v-222h-505v58h77l26 26v402l-26 26h-77v58z" />
    <glyph glyph-name="lcaron" unicode="&#x13e;" 
d="M419 519l53 157q14 49 53 49q19 0 32.5 -13t13.5 -33q0 -24 -22 -47l-109 -124zM357 84l26 -26h153v-58h-433v58h168l26 26v445l-26 26h-168v58h254v-529z" />
    <glyph glyph-name="Ldot" unicode="&#x13f;" 
d="M46 570h271v-58h-80l-26 -26v-428h254l26 26v138h60v-222h-505v58h77l26 26v402l-26 26h-77v58zM446 325q-27 0 -45.5 18.5t-18.5 45.5q0 28 18.5 47.5t45.5 19.5q28 0 47.5 -19t19.5 -48q0 -27 -19.5 -45.5t-47.5 -18.5z" />
    <glyph glyph-name="ldot" unicode="&#x140;" 
d="M357 84l26 -26h153v-58h-433v58h168l26 26v445l-26 26h-168v58h254v-529zM606 258q-27 0 -45.5 18.5t-18.5 45.5q0 28 18.5 47.5t45.5 19.5q28 0 47.5 -19.5t19.5 -47.5q0 -27 -19.5 -45.5t-47.5 -18.5z" />
    <glyph glyph-name="Lslash" unicode="&#x141;" 
d="M551 0h-505v58h77l26 26v160l-86 -37l-20 53l106 45v181l-26 26h-77v58h271v-58h-80l-26 -26v-159l167 72l20 -54l-187 -79v-208h254l26 26v138h60v-222z" />
    <glyph glyph-name="lslash" unicode="&#x142;" 
d="M536 0h-433v58h168l26 26v204l-143 -74l-28 51l171 90v174l-26 26h-168v58h254v-228l134 69l28 -51l-162 -85v-234l26 -26h153v-58z" />
    <glyph glyph-name="Nacute" unicode="&#x143;" 
d="M271 656l65 141q18 40 54 40q19 0 32.5 -13.5t13.5 -34.5q0 -26 -31 -49l-115 -99zM502 0h-66l-260 488v-404l26 -26h55v-58h-222v58h55l26 26v402l-26 26h-55v58h169l238 -459v375l-26 26h-55v58h222v-58h-55l-26 -26v-486z" />
    <glyph glyph-name="nacute" unicode="&#x144;" 
d="M274 521l65 141q18 40 54 40q19 0 32.5 -13.5t13.5 -34.5q0 -26 -31 -49l-115 -99zM191 275v-191l26 -26h62v-58h-236v58h62l26 26v256l-26 26h-62v58h148v-75q23 37 64.5 63t91.5 26q71 0 115 -41.5t44 -118.5v-194l26 -26h62v-58h-236v58h62l26 26v174q0 121 -101 121
q-100 0 -154 -104z" />
    <glyph glyph-name="Ncommaaccent" unicode="&#x145;" 
d="M248 -131q0 26 18 44t44 18q25 0 43 -18.5t18 -44.5q0 -23 -18 -47l-94 -116l-28 20l58 89q-18 5 -29.5 20t-11.5 35zM502 0h-66l-260 488v-404l26 -26h55v-58h-222v58h55l26 26v402l-26 26h-55v58h169l238 -459v375l-26 26h-55v58h222v-58h-55l-26 -26v-486z" />
    <glyph glyph-name="ncommaaccent" unicode="&#x146;" 
d="M257 -131q0 26 18 44t44 18q25 0 43 -18.5t18 -44.5q0 -23 -18 -47l-94 -116l-28 20l58 89q-18 5 -29.5 20t-11.5 35zM191 275v-191l26 -26h62v-58h-236v58h62l26 26v256l-26 26h-62v58h148v-75q23 37 64.5 63t91.5 26q71 0 115 -41.5t44 -118.5v-194l26 -26h62v-58h-236
v58h62l26 26v174q0 121 -101 121q-100 0 -154 -104z" />
    <glyph glyph-name="Ncaron" unicode="&#x147;" 
d="M309 641q-27 0 -48 31l-100 139l24 19l124 -105l125 105l23 -19l-99 -139q-22 -31 -49 -31zM502 0h-66l-260 488v-404l26 -26h55v-58h-222v58h55l26 26v402l-26 26h-55v58h169l238 -459v375l-26 26h-55v58h222v-58h-55l-26 -26v-486z" />
    <glyph glyph-name="ncaron" unicode="&#x148;" 
d="M318 506q-27 0 -48 31l-100 139l24 19l124 -105l125 105l23 -19l-99 -139q-22 -31 -49 -31zM191 275v-191l26 -26h62v-58h-236v58h62l26 26v256l-26 26h-62v58h148v-75q23 37 64.5 63t91.5 26q71 0 115 -41.5t44 -118.5v-194l26 -26h62v-58h-236v58h62l26 26v174
q0 121 -101 121q-100 0 -154 -104z" />
    <glyph glyph-name="Eng" unicode="&#x14a;" 
d="M442 -12l-266 500v-404l26 -26h55v-58h-222v58h55l26 26v402l-26 26h-55v58h169l238 -459v375l-26 26h-55v58h222v-58h-55l-26 -26v-499q0 -92 -40 -139.5t-111 -47.5q-55 0 -91 30.5t-36 77.5q0 25 15 42.5t38 17.5q21 0 34.5 -12.5t13.5 -30.5q0 -32 -37 -37
q16 -35 63 -35q90 0 91 135z" />
    <glyph glyph-name="eng" unicode="&#x14b;" 
d="M365 -198q-56 0 -91.5 29.5t-35.5 76.5q0 25 15 42.5t37 17.5q21 0 34.5 -12.5t13.5 -30.5q0 -34 -37 -36q15 -39 64 -39q88 0 88 140v268q0 121 -98 121q-100 0 -154 -104v-191l26 -26h62v-58h-236v58h62l26 26v256l-26 26h-62v58h148v-75q23 37 64.5 63t91.5 26
q71 0 115 -41.5t44 -118.5v-288q0 -94 -40 -141t-111 -47z" />
    <glyph glyph-name="Omacron" unicode="&#x14c;" 
d="M155 725h304v-60h-304v60zM565 285q0 -129 -71 -214t-187 -85t-187 85t-71 214t71 214t187 85t187 -85t71 -214zM496 285q0 102 -50 169t-139 67t-139 -67t-50 -169t50 -169t139 -67t139 67t50 169z" />
    <glyph glyph-name="omacron" unicode="&#x14d;" 
d="M155 590h304v-60h-304v60zM73 212q0 96 67 161t167 65t167 -65t67 -161t-67 -161t-167 -65t-167 65t-67 161zM473 212q0 71 -46.5 118.5t-119.5 47.5t-119.5 -47.5t-46.5 -118.5t46.5 -118.5t119.5 -47.5t119.5 47.5t46.5 118.5z" />
    <glyph glyph-name="Obreve" unicode="&#x14e;" 
d="M307 703q41 0 75 26.5t43 71.5l44 -11q-14 -73 -56 -113.5t-106 -40.5t-106 40.5t-55 113.5l43 11q10 -45 43.5 -71.5t74.5 -26.5zM565 285q0 -129 -71 -214t-187 -85t-187 85t-71 214t71 214t187 85t187 -85t71 -214zM496 285q0 102 -50 169t-139 67t-139 -67t-50 -169
t50 -169t139 -67t139 67t50 169z" />
    <glyph glyph-name="obreve" unicode="&#x14f;" 
d="M73 212q0 96 67 161t167 65t167 -65t67 -161t-67 -161t-167 -65t-167 65t-67 161zM473 212q0 71 -46.5 118.5t-119.5 47.5t-119.5 -47.5t-46.5 -118.5t46.5 -118.5t119.5 -47.5t119.5 47.5t46.5 118.5zM307 571q41 0 75 26.5t43 71.5l44 -11q-14 -73 -56 -113.5
t-106 -40.5t-106 40.5t-55 113.5l43 11q10 -45 43.5 -71.5t74.5 -26.5z" />
    <glyph glyph-name="Ohungarumlaut" unicode="&#x150;" 
d="M565 285q0 -129 -71 -214t-187 -85t-187 85t-71 214t71 214t187 85t187 -85t71 -214zM496 285q0 102 -50 169t-139 67t-139 -67t-50 -169t50 -169t139 -67t139 67t50 169zM374 656l65 141q16 40 53 40q20 0 33 -13.5t13 -34.5q0 -27 -30 -49l-116 -99zM185 656l65 141
q18 40 54 40q19 0 32.5 -13.5t13.5 -34.5q0 -26 -31 -49l-115 -99z" />
    <glyph glyph-name="ohungarumlaut" unicode="&#x151;" 
d="M366 521l65 141q16 40 53 40q20 0 33 -13.5t13 -34.5q0 -26 -30 -49l-116 -99zM177 521l65 141q18 40 54 40q19 0 32.5 -13.5t13.5 -34.5q0 -26 -31 -49l-115 -99zM73 212q0 96 67 161t167 65t167 -65t67 -161t-67 -161t-167 -65t-167 65t-67 161zM473 212
q0 71 -46.5 118.5t-119.5 47.5t-119.5 -47.5t-46.5 -118.5t46.5 -118.5t119.5 -47.5t119.5 47.5t46.5 118.5z" />
    <glyph glyph-name="OE" unicode="&#x152;" 
d="M589 0h-286q-135 0 -209.5 79t-74.5 206t74.5 206t209.5 79h280v-192h-60v108l-26 26h-131v-193h125v-54h-125v-207h137l26 26v108h60v-192zM304 58v454q-105 0 -161.5 -63t-56.5 -164t56.5 -164t161.5 -63z" />
    <glyph glyph-name="oe" unicode="&#x153;" 
d="M535 248q-3 57 -26 94t-63 37q-41 0 -69.5 -36t-35.5 -95h194zM274 211q0 72 -27.5 119.5t-71.5 47.5t-71.5 -47.5t-27.5 -119.5q0 -71 27.5 -117.5t71.5 -46.5t71.5 46.5t27.5 117.5zM597 67q-63 -81 -144 -81q-49 0 -87 30.5t-59 83.5q-18 -53 -52.5 -83.5t-79.5 -30.5
q-68 0 -114 64.5t-46 160.5q0 97 46 162t114 65q45 0 79.5 -30.5t52.5 -84.5q20 53 56.5 84t82.5 31q73 0 113.5 -70.5t40.5 -172.5h-260q3 -64 33 -106.5t80 -42.5q33 0 57.5 14.5t51.5 48.5z" />
    <glyph glyph-name="Racute" unicode="&#x154;" 
d="M176 512v-198h121q159 0 159 99t-159 99h-121zM270 0h-235v58h53l26 26v402l-26 26h-53v58h264q225 0 225 -157q0 -140 -180 -155l152 -198h93v-60h-174v58l-148 198h-91v-172l26 -26h68v-58zM262 656l65 141q18 40 54 40q19 0 32.5 -13.5t13.5 -34.5q0 -26 -31 -49
l-115 -99z" />
    <glyph glyph-name="racute" unicode="&#x155;" 
d="M273 521l65 141q18 40 54 40q19 0 32.5 -13.5t13.5 -34.5q0 -26 -31 -49l-115 -99zM436 300q0 21 13.5 33.5t33.5 12.5q9 0 17 -4q0 5 -4 11q-9 29 -55 29q-83 0 -203 -147v-151l26 -26h178v-58h-389v58h99l26 26v256l-26 26h-99v58h185v-117q103 131 202 131
q60 0 91 -31.5t31 -76.5q0 -35 -19.5 -58.5t-50.5 -23.5q-25 0 -40.5 13.5t-15.5 38.5z" />
    <glyph glyph-name="Rcommaaccent" unicode="&#x156;" 
d="M240 -131q0 26 18 44t44 18q25 0 43 -18.5t18 -44.5q0 -23 -18 -47l-94 -116l-28 20l58 89q-18 5 -29.5 20t-11.5 35zM176 512v-198h121q159 0 159 99t-159 99h-121zM270 0h-235v58h53l26 26v402l-26 26h-53v58h264q225 0 225 -157q0 -140 -180 -155l152 -198h93v-60
h-174v58l-148 198h-91v-172l26 -26h68v-58z" />
    <glyph glyph-name="rcommaaccent" unicode="&#x157;" 
d="M146 -131q0 26 18 44t44 18q25 0 43 -18.5t18 -44.5q0 -23 -18 -47l-94 -116l-28 20l58 89q-18 5 -29.5 20t-11.5 35zM436 300q0 21 13.5 33.5t33.5 12.5q9 0 17 -4q0 5 -4 11q-9 29 -55 29q-83 0 -203 -147v-151l26 -26h178v-58h-389v58h99l26 26v256l-26 26h-99v58h185
v-117q103 131 202 131q60 0 91 -31.5t31 -76.5q0 -35 -19.5 -58.5t-50.5 -23.5q-25 0 -40.5 13.5t-15.5 38.5z" />
    <glyph glyph-name="Rcaron" unicode="&#x158;" 
d="M290 641q-27 0 -48 31l-100 139l24 19l124 -105l125 105l23 -19l-99 -139q-22 -31 -49 -31zM176 512v-198h121q159 0 159 99t-159 99h-121zM270 0h-235v58h53l26 26v402l-26 26h-53v58h264q225 0 225 -157q0 -140 -180 -155l152 -198h93v-60h-174v58l-148 198h-91v-172
l26 -26h68v-58z" />
    <glyph glyph-name="rcaron" unicode="&#x159;" 
d="M316 506q-27 0 -48 31l-100 139l24 19l124 -105l125 105l23 -19l-99 -139q-22 -31 -49 -31zM436 300q0 21 13.5 33.5t33.5 12.5q9 0 17 -4q0 5 -4 11q-9 29 -55 29q-83 0 -203 -147v-151l26 -26h178v-58h-389v58h99l26 26v256l-26 26h-99v58h185v-117q103 131 202 131
q60 0 91 -31.5t31 -76.5q0 -35 -19.5 -58.5t-50.5 -23.5q-25 0 -40.5 13.5t-15.5 38.5z" />
    <glyph glyph-name="Sacute" unicode="&#x15a;" 
d="M336 46q61 0 97.5 29.5t36.5 79.5q0 67 -88 90l-140 36q-79 21 -117 53.5t-38 96.5q0 69 52.5 111t136.5 42q98 0 158 -75l15 8v53h61v-190h-52q-28 75 -76 109.5t-106 34.5q-55 0 -89.5 -25t-34.5 -66q0 -37 25.5 -56t76.5 -32l142 -37q139 -35 139 -150
q0 -77 -54.5 -124.5t-144.5 -47.5q-52 0 -101.5 24.5t-76.5 61.5l-15 -9v-63h-61v208h52q27 -79 83.5 -120.5t118.5 -41.5zM263 656l65 141q18 40 54 40q19 0 32.5 -13.5t13.5 -34.5q0 -26 -31 -49l-115 -99z" />
    <glyph glyph-name="sacute" unicode="&#x15b;" 
d="M260 521l65 141q18 40 54 40q19 0 32.5 -13.5t13.5 -34.5q0 -26 -31 -49l-115 -99zM378 172l-144 30q-68 14 -101.5 41.5t-33.5 75.5q0 53 45 86t113 33q106 0 162 -64l14 4v46h56v-145h-47q-24 47 -74 76t-103 29q-45 0 -73.5 -17t-28.5 -46q0 -26 21.5 -38.5
t66.5 -21.5l150 -32q56 -12 85 -38t29 -75q0 -60 -45 -95t-123 -35q-118 0 -184 75l-14 -10v-51h-57v155h53q75 -114 199 -114q49 0 78 19t29 54q0 26 -18.5 38.5t-54.5 19.5z" />
    <glyph glyph-name="Scircumflex" unicode="&#x15c;" 
d="M336 46q61 0 97.5 29.5t36.5 79.5q0 67 -88 90l-140 36q-79 21 -117 53.5t-38 96.5q0 69 52.5 111t136.5 42q98 0 158 -75l15 8v53h61v-190h-52q-28 75 -76 109.5t-106 34.5q-55 0 -89.5 -25t-34.5 -66q0 -37 25.5 -56t76.5 -32l142 -37q139 -35 139 -150
q0 -77 -54.5 -124.5t-144.5 -47.5q-52 0 -101.5 24.5t-76.5 61.5l-15 -9v-63h-61v208h52q27 -79 83.5 -120.5t118.5 -41.5zM301 827q25 0 49 -31l99 -139l-23 -19l-125 105l-124 -105l-24 19l100 139q22 31 48 31z" />
    <glyph glyph-name="scircumflex" unicode="&#x15d;" 
d="M303 694q27 0 49 -31l99 -139l-23 -19l-125 105l-124 -105l-24 19l100 139q21 31 48 31zM378 172l-144 30q-68 14 -101.5 41.5t-33.5 75.5q0 53 45 86t113 33q106 0 162 -64l14 4v46h56v-145h-47q-24 47 -74 76t-103 29q-45 0 -73.5 -17t-28.5 -46q0 -26 21.5 -38.5
t66.5 -21.5l150 -32q56 -12 85 -38t29 -75q0 -60 -45 -95t-123 -35q-118 0 -184 75l-14 -10v-51h-57v155h53q75 -114 199 -114q49 0 78 19t29 54q0 26 -18.5 38.5t-54.5 19.5z" />
    <glyph glyph-name="Scedilla" unicode="&#x15e;" 
d="M296 -231q-46 0 -84 20t-55 60l44 29q26 -63 95 -63q61 0 61 46q0 23 -21.5 36t-63.5 10l-37 26l28 65q-69 24 -105 74l-15 -9v-63h-61v208h52q27 -79 83.5 -120.5t118.5 -41.5q61 0 97.5 29.5t36.5 79.5q0 67 -88 90l-140 36q-79 21 -117 53.5t-38 96.5q0 69 52.5 111
t136.5 42q98 0 158 -75l15 8v53h61v-190h-52q-28 75 -76 109.5t-106 34.5q-55 0 -89.5 -25t-34.5 -66q0 -37 25.5 -56t76.5 -32l142 -37q139 -35 139 -150q0 -77 -54.5 -124.5t-144.5 -47.5q-10 0 -30 2l-16 -38q55 0 87 -23t32 -66q0 -44 -33.5 -68t-79.5 -24z" />
    <glyph glyph-name="scedilla" unicode="&#x15f;" 
d="M301 -231q-46 0 -84 20t-55 60l44 29q26 -63 95 -63q61 0 61 46q0 23 -21.5 36t-63.5 10l-37 26l28 64q-66 20 -105 64l-14 -10v-51h-57v155h53q75 -114 199 -114q49 0 78 19t29 54q0 26 -18.5 38.5t-54.5 19.5l-144 30q-68 14 -101.5 41.5t-33.5 75.5q0 53 45 86t113 33
q106 0 162 -64l14 4v46h56v-145h-47q-24 47 -74 76t-103 29q-45 0 -73.5 -17t-28.5 -46q0 -26 21.5 -38.5t66.5 -21.5l150 -32q56 -12 85 -38t29 -75q0 -60 -45 -95t-123 -35q-12 0 -36 2l-16 -38q55 0 87 -23t32 -66q0 -44 -33.5 -68t-79.5 -24z" />
    <glyph glyph-name="Scaron" unicode="&#x160;" 
d="M336 46q61 0 97.5 29.5t36.5 79.5q0 67 -88 90l-140 36q-79 21 -117 53.5t-38 96.5q0 69 52.5 111t136.5 42q98 0 158 -75l15 8v53h61v-190h-52q-28 75 -76 109.5t-106 34.5q-55 0 -89.5 -25t-34.5 -66q0 -37 25.5 -56t76.5 -32l142 -37q139 -35 139 -150
q0 -77 -54.5 -124.5t-144.5 -47.5q-52 0 -101.5 24.5t-76.5 61.5l-15 -9v-63h-61v208h52q27 -79 83.5 -120.5t118.5 -41.5zM301 641q-27 0 -48 31l-100 139l24 19l124 -105l125 105l23 -19l-99 -139q-22 -31 -49 -31z" />
    <glyph glyph-name="scaron" unicode="&#x161;" 
d="M303 506q-27 0 -48 31l-100 139l24 19l124 -105l125 105l23 -19l-99 -139q-22 -31 -49 -31zM378 172l-144 30q-68 14 -101.5 41.5t-33.5 75.5q0 53 45 86t113 33q106 0 162 -64l14 4v46h56v-145h-47q-24 47 -74 76t-103 29q-45 0 -73.5 -17t-28.5 -46q0 -26 21.5 -38.5
t66.5 -21.5l150 -32q56 -12 85 -38t29 -75q0 -60 -45 -95t-123 -35q-118 0 -184 75l-14 -10v-51h-57v155h53q75 -114 199 -114q49 0 78 19t29 54q0 26 -18.5 38.5t-54.5 19.5z" />
    <glyph glyph-name="Tcommaaccent" unicode="&#x162;" 
d="M302 -231q-46 0 -84 20t-55 60l44 29q26 -63 95 -63q61 0 61 46q0 23 -21.5 36t-63.5 10l-37 26l29 67h-138v58h116l26 26v428h-136l-26 -26v-138h-60v222h510v-222h-60v138l-26 26h-136v-428l26 -26h116v-58h-165l-21 -50q55 0 87 -23t32 -66q0 -44 -33.5 -68t-79.5 -24
z" />
    <glyph glyph-name="tcommaaccent" unicode="&#x163;" 
d="M342 -231q-46 0 -84 20t-55 60l44 29q26 -63 95 -63q61 0 61 46q0 23 -21.5 36t-63.5 10l-37 26l26 58q-138 30 -138 201v148l-26 26h-99v58h125v154h63v-154h250v-58h-225l-26 -26v-139q0 -155 131 -155q88 0 154 89l40 -38q-35 -51 -85 -81t-109 -30h-11l-15 -36
q55 0 87 -23t32 -66q0 -44 -33.5 -68t-79.5 -24z" />
    <glyph glyph-name="Tcaron" unicode="&#x164;" 
d="M306 641q-27 0 -48 31l-100 139l24 19l124 -105l125 105l23 -19l-99 -139q-22 -31 -49 -31zM52 570h510v-222h-60v138l-26 26h-136v-428l26 -26h116v-58h-350v58h116l26 26v428h-136l-26 -26v-138h-60v222z" />
    <glyph glyph-name="tcaron" unicode="&#x165;" 
d="M344 519l53 157q14 49 53 49q19 0 32.5 -13t13.5 -33q0 -24 -22 -47l-109 -124zM169 340l-26 26h-99v58h125v154h63v-154h250v-58h-225l-26 -26v-139q0 -155 131 -155q88 0 154 89l40 -38q-35 -51 -85 -81t-109 -30q-89 0 -141 50t-52 156v148z" />
    <glyph glyph-name="Tbar" unicode="&#x166;" 
d="M482 58v-58h-350v58h116l26 26v158h-108v58h108v212h-136l-26 -26v-138h-60v222h510v-222h-60v138l-26 26h-136v-212h108v-58h-108v-158l26 -26h116z" />
    <glyph glyph-name="tbar" unicode="&#x167;" 
d="M556 97q-35 -51 -85 -81t-109 -30q-89 0 -141 50t-52 156v23h-125v56h125v69l-26 26h-99v58h125v154h63v-154h250v-58h-225l-26 -26v-69h234v-56h-234v-14q0 -155 131 -155q88 0 154 89z" />
    <glyph glyph-name="Utilde" unicode="&#x168;" 
d="M436 772h57q0 -58 -28.5 -93.5t-75.5 -35.5q-35 0 -81.5 36t-66.5 36q-23 0 -39 -19t-16 -50h-57q0 58 28.5 93t75.5 35q35 0 81.5 -36t67.5 -36q23 0 38.5 19.5t15.5 50.5zM307 -14q-86 0 -143.5 56.5t-57.5 142.5v301l-26 26h-55v58h224v-58h-55l-26 -26v-299
q0 -63 40 -102t99 -39t99 39t40 102v299l-26 26h-55v58h224v-58h-55l-26 -26v-301q0 -86 -57.5 -142.5t-143.5 -56.5z" />
    <glyph glyph-name="utilde" unicode="&#x169;" 
d="M340 424h148v-340l26 -26h62v-58h-148v75q-23 -37 -64.5 -63t-91.5 -26q-71 0 -115 41t-44 119v194l-26 26h-62v58h148v-258q0 -121 101 -121q100 0 154 104v191l-26 26h-62v58zM417 642h57q0 -58 -28.5 -93.5t-75.5 -35.5q-35 0 -81.5 36t-66.5 36q-23 0 -39 -19
t-16 -50h-57q0 58 28.5 93t75.5 35q35 0 81.5 -36t67.5 -36q23 0 38.5 19.5t15.5 50.5z" />
    <glyph glyph-name="Umacron" unicode="&#x16a;" 
d="M155 725h304v-60h-304v60zM307 -14q-86 0 -143.5 56.5t-57.5 142.5v301l-26 26h-55v58h224v-58h-55l-26 -26v-299q0 -63 40 -102t99 -39t99 39t40 102v299l-26 26h-55v58h224v-58h-55l-26 -26v-301q0 -86 -57.5 -142.5t-143.5 -56.5z" />
    <glyph glyph-name="umacron" unicode="&#x16b;" 
d="M340 424h148v-340l26 -26h62v-58h-148v75q-23 -37 -64.5 -63t-91.5 -26q-71 0 -115 41t-44 119v194l-26 26h-62v58h148v-258q0 -121 101 -121q100 0 154 104v191l-26 26h-62v58zM140 590h304v-60h-304v60z" />
    <glyph glyph-name="Ubreve" unicode="&#x16c;" 
d="M307 703q41 0 75 26.5t43 71.5l44 -11q-14 -73 -56 -113.5t-106 -40.5t-106 40.5t-55 113.5l43 11q10 -45 43.5 -71.5t74.5 -26.5zM307 -14q-86 0 -143.5 56.5t-57.5 142.5v301l-26 26h-55v58h224v-58h-55l-26 -26v-299q0 -63 40 -102t99 -39t99 39t40 102v299l-26 26
h-55v58h224v-58h-55l-26 -26v-301q0 -86 -57.5 -142.5t-143.5 -56.5z" />
    <glyph glyph-name="ubreve" unicode="&#x16d;" 
d="M340 424h148v-340l26 -26h62v-58h-148v75q-23 -37 -64.5 -63t-91.5 -26q-71 0 -115 41t-44 119v194l-26 26h-62v58h148v-258q0 -121 101 -121q100 0 154 104v191l-26 26h-62v58zM292 571q41 0 75 26.5t43 71.5l44 -11q-14 -73 -56 -113.5t-106 -40.5t-106 40.5t-55 113.5
l43 11q10 -45 43.5 -71.5t74.5 -26.5z" />
    <glyph glyph-name="Uring" unicode="&#x16e;" 
d="M307 -14q-86 0 -143.5 56.5t-57.5 142.5v301l-26 26h-55v58h224v-58h-55l-26 -26v-299q0 -63 40 -102t99 -39t99 39t40 102v299l-26 26h-55v58h224v-58h-55l-26 -26v-301q0 -86 -57.5 -142.5t-143.5 -56.5zM367 743q0 27 -16.5 44t-43.5 17t-43.5 -17t-16.5 -44
t16.5 -44.5t43.5 -17.5t43.5 17.5t16.5 44.5zM419 743q0 -47 -32.5 -79.5t-79.5 -32.5t-79.5 32.5t-32.5 79.5q0 46 32.5 78.5t79.5 32.5t79.5 -32t32.5 -79z" />
    <glyph glyph-name="uring" unicode="&#x16f;" 
d="M354 608q0 28 -17 45t-45 17t-44.5 -17t-16.5 -45t16.5 -45.5t44.5 -17.5t45 17.5t17 45.5zM404 608q0 -47 -32.5 -79.5t-79.5 -32.5t-79.5 32.5t-32.5 79.5q0 46 32.5 78.5t79.5 32.5t79.5 -32t32.5 -79zM340 424h148v-340l26 -26h62v-58h-148v75q-23 -37 -64.5 -63
t-91.5 -26q-71 0 -115 41t-44 119v194l-26 26h-62v58h148v-258q0 -121 101 -121q100 0 154 104v191l-26 26h-62v58z" />
    <glyph glyph-name="Uhungarumlaut" unicode="&#x170;" 
d="M307 -14q-86 0 -143.5 56.5t-57.5 142.5v301l-26 26h-55v58h224v-58h-55l-26 -26v-299q0 -63 40 -102t99 -39t99 39t40 102v299l-26 26h-55v58h224v-58h-55l-26 -26v-301q0 -86 -57.5 -142.5t-143.5 -56.5zM374 656l65 141q16 40 53 40q20 0 33 -13.5t13 -34.5
q0 -27 -30 -49l-116 -99zM185 656l65 141q18 40 54 40q19 0 32.5 -13.5t13.5 -34.5q0 -26 -31 -49l-115 -99z" />
    <glyph glyph-name="uhungarumlaut" unicode="&#x171;" 
d="M340 424h148v-340l26 -26h62v-58h-148v75q-23 -37 -64.5 -63t-91.5 -26q-71 0 -115 41t-44 119v194l-26 26h-62v58h148v-258q0 -121 101 -121q100 0 154 104v191l-26 26h-62v58zM352 521l65 141q16 40 53 40q20 0 33 -13.5t13 -34.5q0 -26 -30 -49l-116 -99zM163 521
l65 141q18 40 54 40q19 0 32.5 -13.5t13.5 -34.5q0 -26 -31 -49l-115 -99z" />
    <glyph glyph-name="Uogonek" unicode="&#x172;" 
d="M307 -232q-40 0 -62 22t-22 56q0 30 21 61.5t68 78.5h-5q-86 0 -143.5 56.5t-57.5 142.5v301l-26 26h-55v58h224v-58h-55l-26 -26v-299q0 -63 40 -102t99 -39t99 39t40 102v299l-26 26h-55v58h224v-58h-55l-26 -26v-301q0 -56 -25 -100.5t-69 -70.5
q-76 -71 -104.5 -104.5t-28.5 -56.5q0 -33 33 -33q37 0 87 50l30 -41q-63 -61 -124 -61z" />
    <glyph glyph-name="uogonek" unicode="&#x173;" 
d="M533 -171q-63 -61 -124 -61q-40 0 -62 22t-22 56q0 32 24 66.5t79 87.5v75q-23 -37 -64.5 -63t-91.5 -26q-71 0 -115 41t-44 119v194l-26 26h-62v58h148v-258q0 -121 101 -121q100 0 154 104v191l-26 26h-62v58h148v-340l26 -26h62v-58h-75q-66 -62 -92 -93.5t-26 -53.5
q0 -33 33 -33q37 0 87 50z" />
    <glyph glyph-name="Wcircumflex" unicode="&#x174;" 
d="M352 427l67 -367h23l48 431l-17 21h-92v58h225v-58h-51l-61 -512h-116l-69 371l-70 -371h-119l-60 512h-51v58h228v-58h-92l-17 -21l48 -431h23l67 367h86zM307 827q25 0 49 -31l99 -139l-23 -19l-125 105l-124 -105l-24 19l100 139q22 31 48 31z" />
    <glyph glyph-name="wcircumflex" unicode="&#x175;" 
d="M307 694q27 0 49 -31l99 -139l-23 -19l-125 105l-124 -105l-24 19l100 139q21 31 48 31zM350 311l61 -260h20l54 299l-14 16h-77v58h199v-58h-46l-73 -366h-103l-64 260l-64 -260h-103l-73 366h-46v58h202v-58h-77l-14 -16l54 -299h20l61 260h83z" />
    <glyph glyph-name="Ycircumflex" unicode="&#x176;" 
d="M340 210v-126l26 -26h116v-58h-350v58h116l26 26v126l-202 302h-62v58h246v-58h-71l-23 -21l148 -229l147 229l-23 21h-71v58h241v-58h-62zM307 827q25 0 49 -31l99 -139l-23 -19l-125 105l-124 -105l-24 19l100 139q22 31 48 31z" />
    <glyph glyph-name="ycircumflex" unicode="&#x177;" 
d="M33 -95q0 31 19.5 52.5t47.5 21.5q25 0 41.5 -15t16.5 -39q0 -21 -15 -35t-39 -14q9 -26 48 -26q33 0 58.5 33.5t70.5 122.5l-190 360h-55v58h219v-58h-65l-17 -19l142 -280l142 280l-17 19h-65v58h213v-58h-55l-201 -383q-52 -100 -89 -142.5t-91 -42.5
q-50 0 -84.5 29.5t-34.5 77.5zM319 694q27 0 49 -31l99 -139l-23 -19l-125 105l-124 -105l-24 19l100 139q21 31 48 31z" />
    <glyph glyph-name="Ydieresis" unicode="&#x178;" 
d="M340 210v-126l26 -26h116v-58h-350v58h116l26 26v126l-202 302h-62v58h246v-58h-71l-23 -21l148 -229l147 229l-23 21h-71v58h241v-58h-62zM413 651q-27 0 -46 18.5t-19 44.5t19 45t46 19t45.5 -19t18.5 -45t-18.5 -44.5t-45.5 -18.5zM202 651q-27 0 -46 18.5t-19 44.5
q0 27 19 45.5t46 18.5t45.5 -18.5t18.5 -45.5q0 -26 -18.5 -44.5t-45.5 -18.5z" />
    <glyph glyph-name="Zacute" unicode="&#x179;" 
d="M137 58h326l26 26v108h61v-192h-486v69l401 443h-299l-26 -26v-108h-61v192h454v-76zM269 656l65 141q18 40 54 40q19 0 32.5 -13.5t13.5 -34.5q0 -26 -31 -49l-115 -99z" />
    <glyph glyph-name="zacute" unicode="&#x17a;" 
d="M267 521l65 141q18 40 54 40q19 0 32.5 -13.5t13.5 -34.5q0 -26 -31 -49l-115 -99zM156 56h290l26 26v95h58v-177h-451v65l358 304h-261l-26 -26v-91h-58v172h423v-65z" />
    <glyph glyph-name="Zdotaccent" unicode="&#x17b;" 
d="M307 648q-27 0 -45.5 18.5t-18.5 45.5q0 28 18.5 47.5t45.5 19.5q29 0 48 -19.5t19 -47.5q0 -27 -19.5 -45.5t-47.5 -18.5zM137 58h326l26 26v108h61v-192h-486v69l401 443h-299l-26 -26v-108h-61v192h454v-76z" />
    <glyph glyph-name="zdotaccent" unicode="&#x17c;" 
d="M156 56h290l26 26v95h58v-177h-451v65l358 304h-261l-26 -26v-91h-58v172h423v-65zM310 523q-27 0 -45.5 18.5t-18.5 45.5q0 28 18.5 47.5t45.5 19.5q28 0 47.5 -19t19.5 -48q0 -27 -19.5 -45.5t-47.5 -18.5z" />
    <glyph glyph-name="Zcaron" unicode="&#x17d;" 
d="M307 641q-27 0 -48 31l-100 139l24 19l124 -105l125 105l23 -19l-99 -139q-22 -31 -49 -31zM137 58h326l26 26v108h61v-192h-486v69l401 443h-299l-26 -26v-108h-61v192h454v-76z" />
    <glyph glyph-name="zcaron" unicode="&#x17e;" 
d="M310 506q-27 0 -48 31l-100 139l24 19l124 -105l125 105l23 -19l-99 -139q-22 -31 -49 -31zM156 56h290l26 26v95h58v-177h-451v65l358 304h-261l-26 -26v-91h-58v172h423v-65z" />
    <glyph glyph-name="florin" unicode="&#x192;" 
d="M154 -179q-66 0 -100 40.5t-34 96.5q0 30 16 49t41 19q24 0 39.5 -14t15.5 -35q0 -19 -13 -32t-34 -13q4 -25 21.5 -41t47.5 -16q80 0 95 130l25 201h-123v57h130l17 137q23 184 162 184q66 0 100 -40.5t34 -96.5q0 -30 -16 -49t-41 -19q-24 0 -39.5 14t-15.5 35
q0 19 13 32t34 13q-4 25 -21.5 41t-47.5 16q-80 0 -95 -129l-17 -138h132v-57h-139l-25 -201q-23 -184 -162 -184z" />
    <glyph glyph-name="Aringacute" unicode="&#x1fa;" 
d="M367 649q0 27 -16.5 44t-43.5 17t-43.5 -17t-16.5 -44t16.5 -44.5t43.5 -17.5t43.5 17.5t16.5 44.5zM400 252l-96 253l-95 -253h191zM238 58v-58h-228v58h62l188 489q-29 13 -47 40.5t-18 61.5q0 46 32.5 78.5t79.5 32.5t79.5 -32t32.5 -79q0 -34 -17.5 -61.5
t-47.5 -40.5l188 -489h62v-58h-233v58h71l23 21l-43 115h-235l-43 -115l23 -21h71zM254 811l65 141q18 40 54 40q19 0 32.5 -13.5t13.5 -34.5q0 -26 -31 -49l-115 -99z" />
    <glyph glyph-name="aringacute" unicode="&#x1fb;" 
d="M89 330q0 52 59.5 80t138.5 28q84 0 129 -41t45 -114v-178q0 -59 40 -59q23 0 59 36l31 -43q-50 -53 -101 -53q-36 0 -61.5 24t-29.5 67q-37 -39 -88 -65t-106 -26q-62 0 -99.5 30t-37.5 84q0 51 39 80t117 47l174 44v14q0 49 -31.5 74.5t-88.5 25.5q-66 0 -109 -21
q27 -9 27 -41q0 -20 -15 -33.5t-38 -13.5q-24 0 -39 14.5t-15 39.5zM398 136v86l-161 -45q-101 -18 -101 -74q0 -29 21.5 -45t54.5 -16q90 0 186 94zM347 593q0 28 -17 45t-45 17t-44.5 -17t-16.5 -45t16.5 -45.5t44.5 -17.5t45 17.5t17 45.5zM397 593q0 -47 -32.5 -79.5
t-79.5 -32.5t-79.5 32.5t-32.5 79.5q0 46 32.5 78.5t79.5 32.5t79.5 -32t32.5 -79zM247 761l65 141q18 40 54 40q19 0 32.5 -13.5t13.5 -34.5q0 -26 -31 -49l-115 -99z" />
    <glyph glyph-name="AEacute" unicode="&#x1fc;" 
d="M338 656l65 141q18 40 54 40q19 0 32.5 -13.5t13.5 -34.5q0 -26 -31 -49l-115 -99zM307 252v260h-23l-123 -260h146zM167 58v-58h-156v62l202 429l-20 21h-59v58h453v-192h-60v108l-26 26h-132v-193h128v-54h-128v-207h138l26 26v108h60v-192h-353v58h41l26 26v110h-174
l-54 -115l23 -21h65z" />
    <glyph glyph-name="aeacute" unicode="&#x1fd;" 
d="M298 521l65 141q18 40 54 40q19 0 32.5 -13.5t13.5 -34.5q0 -26 -31 -49l-115 -99zM587 67q-64 -81 -147 -81q-73 0 -123 63q-76 -63 -155 -63q-59 0 -98 33t-39 92q0 62 56 93.5t153 33.5l32 1q4 47 24 94q-22 52 -86 52q-42 0 -81 -20q12 -3 19.5 -14t7.5 -26
q0 -19 -14 -32t-36 -13q-23 0 -37 14t-14 38q0 46 47 76t108 30q80 0 118 -55q49 55 111 55q74 0 115.5 -70.5t41.5 -172.5l-265 -7q5 -62 36 -102t79 -40q60 0 111 63zM525 245v6q-5 56 -28 92t-64 36q-44 0 -73 -38t-35 -101zM234 185h-6q-135 -2 -135 -73q0 -33 22 -51.5
t54 -18.5q61 0 123 47q-22 43 -26 97z" />
    <glyph glyph-name="Oslashacute" unicode="&#x1fe;" 
d="M307 521q-89 0 -139 -67t-50 -169q0 -99 46 -163l257 359q-48 40 -114 40zM307 49q89 0 139 67t50 169q0 90 -38 152l-255 -356q45 -32 104 -32zM565 285q0 -129 -71 -214t-187 -85q-79 0 -141 43l-62 -86l-45 32l65 91q-75 84 -75 219q0 129 71 214t187 85q87 0 152 -51
l56 79l45 -32l-62 -86q67 -84 67 -209zM269 656l65 141q18 40 54 40q19 0 32.5 -13.5t13.5 -34.5q0 -26 -31 -49l-115 -99z" />
    <glyph glyph-name="oslashacute" unicode="&#x1ff;" 
d="M307 381q-73 0 -120 -49t-47 -120q0 -68 43 -116l209 263q-38 22 -85 22zM307 44q73 0 120.5 48.5t47.5 119.5q0 66 -41 112l-207 -261q36 -19 80 -19zM541 212q0 -96 -67 -161t-167 -65q-66 0 -118 29l-63 -79l-44 33l62 78q-71 66 -71 165q0 96 67 161t167 65
q67 0 123 -31l61 77l44 -33l-61 -77q67 -65 67 -162zM263 521l65 141q18 40 54 40q19 0 32.5 -13.5t13.5 -34.5q0 -26 -31 -49l-115 -99z" />
    <glyph glyph-name="Scommaaccent" unicode="&#x218;" 
d="M240 -131q0 26 18 44t44 18q25 0 43 -18.5t18 -44.5q0 -23 -18 -47l-94 -116l-28 20l58 89q-18 5 -29.5 20t-11.5 35zM336 46q61 0 97.5 29.5t36.5 79.5q0 67 -88 90l-140 36q-79 21 -117 53.5t-38 96.5q0 69 52.5 111t136.5 42q98 0 158 -75l15 8v53h61v-190h-52
q-28 75 -76 109.5t-106 34.5q-55 0 -89.5 -25t-34.5 -66q0 -37 25.5 -56t76.5 -32l142 -37q139 -35 139 -150q0 -77 -54.5 -124.5t-144.5 -47.5q-52 0 -101.5 24.5t-76.5 61.5l-15 -9v-63h-61v208h52q27 -79 83.5 -120.5t118.5 -41.5z" />
    <glyph glyph-name="scommaaccent" unicode="&#x219;" 
d="M242 -131q0 26 18 44t44 18q25 0 43 -18.5t18 -44.5q0 -23 -18 -47l-94 -116l-28 20l58 89q-18 5 -29.5 20t-11.5 35zM378 172l-144 30q-68 14 -101.5 41.5t-33.5 75.5q0 53 45 86t113 33q106 0 162 -64l14 4v46h56v-145h-47q-24 47 -74 76t-103 29q-45 0 -73.5 -17
t-28.5 -46q0 -26 21.5 -38.5t66.5 -21.5l150 -32q56 -12 85 -38t29 -75q0 -60 -45 -95t-123 -35q-118 0 -184 75l-14 -10v-51h-57v155h53q75 -114 199 -114q49 0 78 19t29 54q0 26 -18.5 38.5t-54.5 19.5z" />
    <glyph glyph-name="uni021A" unicode="&#x21a;" 
d="M245 -131q0 26 18 44t44 18q25 0 43 -18.5t18 -44.5q0 -23 -18 -47l-94 -116l-28 20l58 89q-18 5 -29.5 20t-11.5 35zM52 570h510v-222h-60v138l-26 26h-136v-428l26 -26h116v-58h-350v58h116l26 26v428h-136l-26 -26v-138h-60v222z" />
    <glyph glyph-name="uni021B" unicode="&#x21b;" 
d="M294 -131q0 26 18 44t44 18q25 0 43 -18.5t18 -44.5q0 -23 -18 -47l-94 -116l-28 20l58 89q-18 5 -29.5 20t-11.5 35zM169 340l-26 26h-99v58h125v154h63v-154h250v-58h-225l-26 -26v-139q0 -155 131 -155q88 0 154 89l40 -38q-35 -51 -85 -81t-109 -30q-89 0 -141 50
t-52 156v148z" />
    <glyph glyph-name="uni0237" unicode="&#x237;" 
d="M71 -42q0 34 19 56t48 22q27 0 44 -16.5t17 -40.5q0 -21 -15 -36t-38 -16q11 -31 43 -51.5t74 -20.5q67 0 104.5 44t37.5 131v310l-26 26h-218v58h304v-399q0 -108 -56.5 -165.5t-145.5 -57.5q-79 0 -135.5 47t-56.5 109z" />
    <glyph glyph-name="circumflex" unicode="&#x2c6;" 
d="M307 694q27 0 49 -31l99 -139l-23 -19l-125 105l-124 -105l-24 19l100 139q21 31 48 31z" />
    <glyph glyph-name="caron" unicode="&#x2c7;" 
d="M307 506q-27 0 -48 31l-100 139l24 19l124 -105l125 105l23 -19l-99 -139q-22 -31 -49 -31z" />
    <glyph glyph-name="breve" unicode="&#x2d8;" 
d="M307 571q41 0 75 26.5t43 71.5l44 -11q-14 -73 -56 -113.5t-106 -40.5t-106 40.5t-55 113.5l43 11q10 -45 43.5 -71.5t74.5 -26.5z" />
    <glyph glyph-name="dotaccent" unicode="&#x2d9;" 
d="M306 523q-27 0 -45.5 18.5t-18.5 45.5q0 28 18.5 47.5t45.5 19.5q28 0 47.5 -19t19.5 -48q0 -27 -19.5 -45.5t-47.5 -18.5z" />
    <glyph glyph-name="ring" unicode="&#x2da;" 
d="M369 608q0 28 -17 45t-45 17t-44.5 -17t-16.5 -45t16.5 -45.5t44.5 -17.5t45 17.5t17 45.5zM419 608q0 -47 -32.5 -79.5t-79.5 -32.5t-79.5 32.5t-32.5 79.5q0 46 32.5 78.5t79.5 32.5t79.5 -32t32.5 -79z" />
    <glyph glyph-name="ogonek" unicode="&#x2db;" 
d="M332 49l36 -34q-77 -72 -105.5 -105.5t-28.5 -56.5q0 -33 33 -33q37 0 87 50l30 -41q-63 -61 -124 -61q-40 0 -62 22t-22 56q0 39 34 81t122 122z" />
    <glyph glyph-name="tilde" unicode="&#x2dc;" 
d="M432 642h57q0 -58 -28.5 -93.5t-75.5 -35.5q-35 0 -81.5 36t-66.5 36q-23 0 -39 -19t-16 -50h-57q0 58 28.5 93t75.5 35q35 0 81.5 -36t67.5 -36q23 0 38.5 19.5t15.5 50.5z" />
    <glyph glyph-name="hungarumlaut" unicode="&#x2dd;" 
d="M310 521l65 141q16 40 53 40q20 0 33 -13.5t13 -34.5q0 -26 -30 -49l-116 -99zM121 521l65 141q18 40 54 40q19 0 32.5 -13.5t13.5 -34.5q0 -26 -31 -49l-115 -99z" />
    <glyph glyph-name="uni0326" unicode="&#x326;" 
d="M253 -131q0 26 18 44t44 18q25 0 43 -18.5t18 -44.5q0 -23 -18 -47l-94 -116l-28 20l58 89q-18 5 -29.5 20t-11.5 35z" />
    <glyph glyph-name="Wgrave" unicode="&#x1e80;" 
d="M346 656l-19 -15l-115 99q-31 23 -31 49q0 21 13.5 34.5t32.5 13.5q36 0 54 -40zM352 427l67 -367h23l48 431l-17 21h-92v58h225v-58h-51l-61 -512h-116l-69 371l-70 -371h-119l-60 512h-51v58h228v-58h-92l-17 -21l48 -431h23l67 367h86z" />
    <glyph glyph-name="wgrave" unicode="&#x1e81;" 
d="M350 311l61 -260h20l54 299l-14 16h-77v58h199v-58h-46l-73 -366h-103l-64 260l-64 -260h-103l-73 366h-46v58h202v-58h-77l-14 -16l54 -299h20l61 260h83zM353 521l-19 -15l-115 99q-31 23 -31 49q0 21 13.5 34.5t32.5 13.5q36 0 54 -40z" />
    <glyph glyph-name="Wacute" unicode="&#x1e82;" 
d="M269 656l65 141q18 40 54 40q19 0 32.5 -13.5t13.5 -34.5q0 -26 -31 -49l-115 -99zM352 427l67 -367h23l48 431l-17 21h-92v58h225v-58h-51l-61 -512h-116l-69 371l-70 -371h-119l-60 512h-51v58h228v-58h-92l-17 -21l48 -431h23l67 367h86z" />
    <glyph glyph-name="wacute" unicode="&#x1e83;" 
d="M264 521l65 141q18 40 54 40q19 0 32.5 -13.5t13.5 -34.5q0 -26 -31 -49l-115 -99zM350 311l61 -260h20l54 299l-14 16h-77v58h199v-58h-46l-73 -366h-103l-64 260l-64 -260h-103l-73 366h-46v58h202v-58h-77l-14 -16l54 -299h20l61 260h83z" />
    <glyph glyph-name="Wdieresis" unicode="&#x1e84;" 
d="M413 651q-27 0 -46 18.5t-19 44.5t19 45t46 19t45.5 -19t18.5 -45t-18.5 -44.5t-45.5 -18.5zM202 651q-27 0 -46 18.5t-19 44.5q0 27 19 45.5t46 18.5t45.5 -18.5t18.5 -45.5q0 -26 -18.5 -44.5t-45.5 -18.5zM352 427l67 -367h23l48 431l-17 21h-92v58h225v-58h-51
l-61 -512h-116l-69 371l-70 -371h-119l-60 512h-51v58h228v-58h-92l-17 -21l48 -431h23l67 367h86z" />
    <glyph glyph-name="wdieresis" unicode="&#x1e85;" 
d="M413 526q-27 0 -46 18.5t-19 44.5t19 45t46 19t45.5 -19t18.5 -45t-18.5 -44.5t-45.5 -18.5zM202 526q-27 0 -46 18.5t-19 44.5q0 27 19 45.5t46 18.5t45.5 -18.5t18.5 -45.5q0 -26 -18.5 -44.5t-45.5 -18.5zM350 311l61 -260h20l54 299l-14 16h-77v58h199v-58h-46
l-73 -366h-103l-64 260l-64 -260h-103l-73 366h-46v58h202v-58h-77l-14 -16l54 -299h20l61 260h83z" />
    <glyph glyph-name="Ygrave" unicode="&#x1ef2;" 
d="M340 210v-126l26 -26h116v-58h-350v58h116l26 26v126l-202 302h-62v58h246v-58h-71l-23 -21l148 -229l147 229l-23 21h-71v58h241v-58h-62zM346 656l-19 -15l-115 99q-31 23 -31 49q0 21 13.5 34.5t32.5 13.5q36 0 54 -40z" />
    <glyph glyph-name="ygrave" unicode="&#x1ef3;" 
d="M33 -95q0 31 19.5 52.5t47.5 21.5q25 0 41.5 -15t16.5 -39q0 -21 -15 -35t-39 -14q9 -26 48 -26q33 0 58.5 33.5t70.5 122.5l-190 360h-55v58h219v-58h-65l-17 -19l142 -280l142 280l-17 19h-65v58h213v-58h-55l-201 -383q-52 -100 -89 -142.5t-91 -42.5
q-50 0 -84.5 29.5t-34.5 77.5zM365 521l-19 -15l-115 99q-31 23 -31 49q0 21 13.5 34.5t32.5 13.5q36 0 54 -40z" />
    <glyph glyph-name="endash" unicode="&#x2013;" 
d="M145 241v66h324v-66h-324z" />
    <glyph glyph-name="emdash" unicode="&#x2014;" 
d="M55 241v66h504v-66h-504z" />
    <glyph glyph-name="quoteleft" unicode="&#x2018;" 
d="M385 424q0 -33 -22.5 -55t-54.5 -22t-54.5 23t-22.5 56q0 28 22 58l130 174l37 -25l-87 -140q23 -6 37.5 -24.5t14.5 -44.5z" />
    <glyph glyph-name="quoteright" unicode="&#x2019;" 
d="M229 563q0 33 22.5 55t54.5 22t54.5 -23t22.5 -56q0 -28 -22 -58l-130 -174l-37 25l87 140q-23 6 -37.5 24.5t-14.5 44.5z" />
    <glyph glyph-name="quotesinglbase" unicode="&#x201a;" 
d="M229 69q0 33 22.5 55t54.5 22t54.5 -23t22.5 -56q0 -28 -22 -58l-130 -174l-37 25l87 140q-23 6 -37.5 24.5t-14.5 44.5z" />
    <glyph glyph-name="quotedblleft" unicode="&#x201c;" 
d="M258 424q0 -33 -22.5 -55t-54.5 -22t-54.5 23t-22.5 56q0 28 22 58l130 174l37 -25l-87 -140q23 -6 37.5 -24.5t14.5 -44.5zM493 424q0 -33 -22.5 -55t-54.5 -22t-54.5 23t-22.5 56q0 28 22 58l130 174l37 -25l-87 -140q23 -6 37.5 -24.5t14.5 -44.5z" />
    <glyph glyph-name="quotedblright" unicode="&#x201d;" 
d="M130 563q0 33 22.5 55t54.5 22t54.5 -23t22.5 -56q0 -28 -22 -58l-130 -174l-37 25l87 140q-23 6 -37.5 24.5t-14.5 44.5zM365 563q0 33 22.5 55t54.5 22t54.5 -23t22.5 -56q0 -28 -22 -58l-130 -174l-37 25l87 140q-23 6 -37.5 24.5t-14.5 44.5z" />
    <glyph glyph-name="quotedblbase" unicode="&#x201e;" 
d="M130 70q0 33 22.5 55t54.5 22t54.5 -23t22.5 -56q0 -28 -22 -58l-130 -174l-37 25l87 140q-23 6 -37.5 24.5t-14.5 44.5zM365 70q0 33 22.5 55t54.5 22t54.5 -23t22.5 -56q0 -28 -22 -58l-130 -174l-37 25l87 140q-23 6 -37.5 24.5t-14.5 44.5z" />
    <glyph glyph-name="dagger" unicode="&#x2020;" 
d="M336 445v-208h-57v208h-136v56h136v127h57v-127h135v-56h-135z" />
    <glyph glyph-name="daggerdbl" unicode="&#x2021;" 
d="M336 329v-92h-57v92h-136v55h136v100h-136v56h136v88h57v-88h135v-56h-135v-100h135v-55h-135z" />
    <glyph glyph-name="bullet" unicode="&#x2022;" 
d="M497 290q0 -77 -55.5 -131.5t-134.5 -54.5t-134 54.5t-55 131.5t55 131.5t134 54.5t134.5 -54.5t55.5 -131.5z" />
    <glyph glyph-name="ellipsis" unicode="&#x2026;" 
d="M437 58q0 28 20.5 48.5t48.5 20.5t48.5 -20.5t20.5 -48.5q0 -29 -20 -49.5t-49 -20.5t-49 20.5t-20 49.5zM238 58q0 28 20 48.5t49 20.5t49 -20.5t20 -48.5q0 -29 -20 -49.5t-49 -20.5t-49 20.5t-20 49.5zM40 58q0 28 20 48.5t49 20.5t49 -20.5t20 -48.5q0 -29 -20 -49.5
t-49 -20.5t-49 20.5t-20 49.5z" />
    <glyph glyph-name="perthousand" unicode="&#x2030;" 
d="M515 34q25 0 42 16.5t17 41.5t-17 42t-42 17t-42 -17t-17 -42t17 -41.5t42 -16.5zM515 191q41 0 70 -29t29 -70t-29 -70t-70 -29t-70 29t-29 70t29 70t70 29zM278 34q25 0 42 16.5t17 41.5t-17 42t-42 17t-42 -17t-17 -42t17 -41.5t42 -16.5zM278 191q41 0 70 -29t29 -70
t-29 -70t-70 -29t-70 29t-29 70t29 70t70 29zM99 544q-24 0 -41 -17.5t-17 -41.5q0 -25 16.5 -41.5t41.5 -16.5q24 0 41.5 17t17.5 41t-17.5 41.5t-41.5 17.5zM343 583l37 -22l-343 -573l-37 23zM99 584q41 0 70.5 -29t29.5 -70t-29.5 -70t-70.5 -29t-70 29t-29 70t29 70
t70 29z" />
    <glyph glyph-name="guilsinglleft" unicode="&#x2039;" 
d="M290 222l113 -137l-50 -40l-143 177l143 178l50 -41z" />
    <glyph glyph-name="guilsinglright" unicode="&#x203a;" 
d="M324 222l-113 137l50 41l143 -178l-143 -177l-50 40z" />
    <glyph glyph-name="fraction" unicode="&#x2044;" 
d="M534 583l36 -31l-489 -562l-36 31z" />
    <glyph glyph-name="uni2070" unicode="&#x2070;" 
d="M144 418q0 88 45 146.5t118 58.5t118 -58.5t45 -146.5q0 -87 -45 -146t-118 -59t-118 59t-45 146zM412 418q0 65 -27.5 108.5t-77.5 43.5t-77.5 -43.5t-27.5 -108.5t27.5 -108.5t77.5 -43.5t77.5 43.5t27.5 108.5z" />
    <glyph glyph-name="uni2074" unicode="&#x2074;" 
d="M486 313h-74l-21 -20v-70h-54v70l-21 20h-187v67q48 53 99.5 131.5t78.5 145.5l56 -17q-49 -116 -179 -279h153v94h54v-94h95v-48z" />
    <glyph glyph-name="uni2075" unicode="&#x2075;" 
d="M179 153l-9 50q220 33 220 144q0 28 -18.5 46.5t-51.5 18.5q-48 0 -74 -39h-69l10 240h243v-52h-194l-7 -139q31 40 96 40q59 0 89.5 -34.5t30.5 -80.5q0 -82 -76.5 -130.5t-189.5 -63.5z" />
    <glyph glyph-name="uni2076" unicode="&#x2076;" 
d="M313 486q60 0 99.5 -38.5t39.5 -98.5q0 -56 -42 -96t-102 -40q-81 0 -121 63q-24 38 -24 93q0 95 68.5 174.5t186.5 111.5l16 -49q-147 -42 -200 -157q31 37 79 37zM397 349q0 37 -25.5 62t-63.5 25q-37 0 -62 -25t-25 -62q0 -36 25 -60.5t62 -24.5q38 0 63.5 24.5
t25.5 60.5z" />
    <glyph glyph-name="uni2077" unicode="&#x2077;" 
d="M219 562l-20 -21v-71h-51v143h319v-60l-203 -402l-49 22l196 389h-192z" />
    <glyph glyph-name="uni2078" unicode="&#x2078;" 
d="M307 461q36 0 58 18t22 50q0 33 -22 51t-58 18t-57.5 -18t-21.5 -51q0 -32 22 -50t57 -18zM307 266q39 0 65 18.5t26 52.5q0 35 -25 53t-66 18t-65.5 -18t-24.5 -53q0 -34 25.5 -52.5t64.5 -18.5zM307 215q-63 0 -105 33.5t-42 88.5q0 34 21.5 59t52.5 35v7
q-25 10 -43 34t-18 57q0 53 38 86.5t96 33.5q59 0 97 -33t38 -87q0 -33 -18 -57t-43 -34v-7q31 -10 52.5 -35.5t21.5 -58.5q0 -55 -42.5 -88.5t-105.5 -33.5z" />
    <glyph glyph-name="uni2079" unicode="&#x2079;" 
d="M306 623q37 0 70 -16.5t52 -46.5q24 -37 24 -92q0 -104 -74 -192t-192 -121l-16 49q82 23 135 72t76 111q-35 -37 -75 -37q-60 0 -101.5 39t-41.5 98q0 57 42 96.5t101 39.5zM218 487q0 -37 25.5 -61.5t62.5 -24.5t62.5 24.5t25.5 61.5q0 36 -25.5 61t-62.5 25t-62.5 -25
t-25.5 -61z" />
    <glyph glyph-name="uni2080" unicode="&#x2080;" 
d="M144 45q0 88 45 146.5t118 58.5t118 -58.5t45 -146.5t-45 -146.5t-118 -58.5t-118 58.5t-45 146.5zM412 45q0 65 -27.5 108.5t-77.5 43.5t-77.5 -43.5t-27.5 -108.5t27.5 -108.5t77.5 -43.5t77.5 43.5t27.5 108.5z" />
    <glyph glyph-name="uni2081" unicode="&#x2081;" 
d="M143 155l125 85h70v-321l21 -21h115v-48h-333v48h121l21 21v267l-110 -75z" />
    <glyph glyph-name="uni2082" unicode="&#x2082;" 
d="M189 118l-43 32q29 44 74 72t96 28q60 0 93 -32t33 -82q0 -27 -16.5 -53.5t-33 -41t-48.5 -39.5q-6 -5 -9 -7l-126 -97h178l22 21v51h51v-120h-312v64l149 119q58 47 70 63q15 21 15 43q0 25 -17.5 41.5t-48.5 16.5q-71 0 -127 -79z" />
    <glyph glyph-name="uni2083" unicode="&#x2083;" 
d="M214 57l164 133h-208v50h262v-65l-118 -90l22 2q51 0 81.5 -31t30.5 -78q0 -56 -41 -99.5t-99 -66t-131 -32.5l-11 50q103 17 165 54t62 94q0 31 -20.5 50.5t-53.5 19.5q-39 0 -79 -26z" />
    <glyph glyph-name="uni2084" unicode="&#x2084;" 
d="M486 -60h-74l-21 -21v-69h-54v69l-21 21h-187v67q48 53 99.5 131.5t78.5 145.5l56 -17q-49 -116 -179 -279h153v94h54v-94h95v-48z" />
    <glyph glyph-name="uni2085" unicode="&#x2085;" 
d="M179 -221l-9 50q220 35 220 145q0 28 -18.5 46.5t-51.5 18.5q-48 0 -74 -39h-69l10 240h243v-52h-194l-7 -139q31 40 96 40q59 0 89.5 -34.5t30.5 -80.5q0 -43 -22.5 -78t-61 -58t-84 -37.5t-98.5 -21.5z" />
    <glyph glyph-name="uni2086" unicode="&#x2086;" 
d="M313 113q60 0 99.5 -38.5t39.5 -98.5q0 -57 -42 -96.5t-102 -39.5q-81 0 -121 63q-24 38 -24 92q0 95 68.5 175t186.5 112l16 -49q-147 -42 -200 -157q31 37 79 37zM397 -24q0 37 -25.5 62t-63.5 25q-37 0 -62 -25t-25 -62q0 -36 25 -61t62 -25t63 25t26 61z" />
    <glyph glyph-name="uni2087" unicode="&#x2087;" 
d="M219 189l-20 -21v-71h-51v143h319v-60l-203 -402l-49 22l196 389h-192z" />
    <glyph glyph-name="uni2088" unicode="&#x2088;" 
d="M307 88q36 0 58 18t22 50q0 33 -22 51t-58 18t-57.5 -18t-21.5 -51q0 -32 22 -50t57 -18zM307 -108q39 0 65 19t26 52q0 36 -25 54t-66 18t-65.5 -18.5t-24.5 -53.5q0 -33 25.5 -52t64.5 -19zM307 -159q-63 0 -105 33.5t-42 88.5q0 34 21.5 59.5t52.5 35.5v7
q-25 10 -43 34t-18 57q0 53 38 86.5t96 33.5q59 0 97 -33t38 -87q0 -33 -18 -57t-43 -34v-7q31 -10 52.5 -35.5t21.5 -59.5q0 -55 -42.5 -88.5t-105.5 -33.5z" />
    <glyph glyph-name="uni2089" unicode="&#x2089;" 
d="M306 250q37 0 70 -16.5t52 -46.5q24 -37 24 -92q0 -104 -74 -192.5t-192 -120.5l-16 49q82 23 135 72t76 111q-35 -37 -75 -37q-60 0 -101.5 39t-41.5 98q0 57 42 96.5t101 39.5zM218 114q0 -37 25.5 -61.5t62.5 -24.5t62.5 24.5t25.5 61.5q0 36 -25.5 61t-62.5 25
t-62.5 -25t-25.5 -61z" />
    <glyph glyph-name="Euro" unicode="&#x20ac;" 
d="M572 99q-92 -113 -211 -113q-94 0 -158 58.5t-85 155.5h-98l10 49h81q-2 24 -2 36q0 13 2 37h-70l10 48h67q22 96 88.5 155t160.5 59q87 0 140.5 -47.5t53.5 -111.5q0 -27 -17 -45.5t-42 -18.5q-24 0 -40 16t-16 38q0 17 10.5 30t27.5 15q-12 24 -42.5 42.5t-74.5 18.5
q-69 0 -114.5 -41t-63.5 -110h204l-9 -48h-203q-2 -24 -2 -37q0 -12 2 -36h193l-9 -49h-176q17 -68 60.5 -109t111.5 -41q95 0 171 94z" />
    <glyph glyph-name="uni2117" unicode="&#x2117;" 
d="M268 396v-94h58q77 0 77 46q0 48 -77 48h-58zM327 264h-59v-82l15 -16h49v-36h-146v36h26l15 16v201l-15 15h-26v35h141q120 0 120 -85q0 -84 -120 -84zM307 45q99 0 170.5 70.5t71.5 168.5t-72 169.5t-170 71.5t-169.5 -71.5t-71.5 -169.5t71.5 -168.5t169.5 -70.5z
M307 562q116 0 198 -81.5t82 -196.5t-82 -196.5t-198 -81.5t-198 81.5t-82 196.5t82 196.5t198 81.5z" />
    <glyph glyph-name="trademark" unicode="&#x2122;" 
d="M457 398h-41l-36 134h-11v-175l12 -13h21v-34h-96v34h15l13 13v167l-13 13h-15v33h93l38 -141l38 141h91v-33h-15l-13 -13v-167l13 -13h15v-34h-94v34h19l14 13v175h-12zM44 570h227v-102h-36v56l-13 13h-44v-180l13 -13h46v-34h-158v34h45l13 13v180h-44l-14 -13v-56
h-35v102z" />
    <glyph glyph-name="uni2153" unicode="&#x2153;" 
d="M391 41l118 96h-148v43h194v-56l-71 -60q40 -1 61.5 -23t21.5 -57q0 -60 -57.5 -95t-142.5 -46l-9 42q162 27 162 99q0 21 -14 34t-35 13q-28 0 -58 -20zM267 213l16 -17l-183 -207l-45 46zM41 559l90 61h60v-245h89v-41h-229v41h92v198l-77 -52zM345 257l-16 17l183 207
l45 -46z" />
    <glyph glyph-name="uni2154" unicode="&#x2154;" 
d="M74 525l-34 28q54 75 128 75q45 0 69.5 -23.5t24.5 -59.5q0 -31 -21.5 -54.5t-59.5 -50.5l-89 -63h187v-42h-238v54l106 81q25 19 35.5 27.5t19 21.5t8.5 26q0 16 -11.5 26.5t-30.5 10.5q-51 0 -94 -57zM345 257l-16 17l183 207l45 -46zM267 213l16 -17l-183 -207l-45 46
zM391 41l118 96h-148v43h194v-56l-71 -60q40 -1 61.5 -23t21.5 -57q0 -60 -57.5 -95t-142.5 -46l-9 42q162 27 162 99q0 21 -14 34t-35 13q-28 0 -58 -20z" />
    <glyph glyph-name="uni215B" unicode="&#x215b;" 
d="M345 257l-16 17l183 207l45 -46zM41 559l90 61h60v-245h89v-41h-229v41h92v198l-77 -52zM267 213l16 -17l-183 -207l-45 46zM465 149q-24 0 -39.5 -12.5t-15.5 -34.5q0 -21 16 -34t39 -13t38.5 13t15.5 34q0 22 -15.5 34.5t-38.5 12.5zM465 -85q25 0 43.5 13.5t18.5 35.5
q0 23 -17 36t-45 13q-27 0 -45 -13t-18 -36q0 -22 18.5 -35.5t44.5 -13.5zM465 -127q-46 0 -78 25t-32 66q0 24 15.5 43.5t37.5 25.5v5q-18 7 -30.5 24.5t-12.5 39.5q0 40 28 65t72 25q43 0 71.5 -25t28.5 -65q0 -22 -13 -39.5t-31 -24.5v-5q22 -6 37.5 -25.5t15.5 -43.5
q0 -41 -31.5 -66t-77.5 -25z" />
    <glyph glyph-name="uni215C" unicode="&#x215c;" 
d="M465 149q-24 0 -39.5 -12.5t-15.5 -34.5q0 -21 16 -34t39 -13t38.5 13t15.5 34q0 22 -15.5 34.5t-38.5 12.5zM465 -85q25 0 43.5 13.5t18.5 35.5q0 23 -17 36t-45 13q-27 0 -45 -13t-18 -36q0 -22 18.5 -35.5t44.5 -13.5zM465 -127q-46 0 -78 25t-32 66q0 24 15.5 43.5
t37.5 25.5v5q-18 7 -30.5 24.5t-12.5 39.5q0 40 28 65t72 25q43 0 71.5 -25t28.5 -65q0 -22 -13 -39.5t-31 -24.5v-5q22 -6 37.5 -25.5t15.5 -43.5q0 -41 -31.5 -66t-77.5 -25zM89 473l117 96h-148v43h194v-56l-71 -60q40 -1 61.5 -22.5t21.5 -56.5q0 -60 -57.5 -95.5
t-141.5 -46.5l-9 43q161 27 161 99q0 21 -14 33.5t-35 12.5q-28 0 -58 -20zM267 213l16 -17l-183 -207l-45 46zM345 257l-16 17l183 207l45 -46z" />
    <glyph glyph-name="uni215D" unicode="&#x215d;" 
d="M465 149q-24 0 -39.5 -12.5t-15.5 -34.5q0 -21 16 -34t39 -13t38.5 13t15.5 34q0 22 -15.5 34.5t-38.5 12.5zM465 -127q-46 0 -78 25t-32 66q0 24 15.5 43.5t37.5 25.5v5q-18 7 -30.5 24.5t-12.5 39.5q0 40 28 65t72 25q43 0 71.5 -25t28.5 -65q0 -22 -13 -39.5
t-31 -24.5v-5q22 -6 37.5 -25.5t15.5 -43.5q0 -41 -31.5 -66t-77.5 -25zM465 -85q25 0 43.5 13.5t18.5 35.5q0 23 -17 36t-45 13q-27 0 -45 -13t-18 -36q0 -22 18.5 -35.5t44.5 -13.5zM60 274l-9 43q156 26 156 101q0 18 -12 30t-33 12q-32 0 -48 -28h-57l7 180h180v-45
h-140l-5 -92q23 28 66 28q44 0 67 -25.5t23 -59.5q0 -60 -56 -96t-139 -48zM267 213l16 -17l-183 -207l-45 46zM345 257l-16 17l183 207l45 -46z" />
    <glyph glyph-name="uni215E" unicode="&#x215e;" 
d="M465 -127q-46 0 -78 25t-32 66q0 24 15.5 43.5t37.5 25.5v5q-18 7 -30.5 24.5t-12.5 39.5q0 40 28 65t72 25q43 0 71.5 -25t28.5 -65q0 -22 -13 -39.5t-31 -24.5v-5q22 -6 37.5 -25.5t15.5 -43.5q0 -41 -31.5 -66t-77.5 -25zM465 -85q25 0 43.5 13.5t18.5 35.5
q0 23 -17 36t-45 13q-27 0 -45 -13t-18 -36q0 -22 18.5 -35.5t44.5 -13.5zM465 149q-24 0 -39.5 -12.5t-15.5 -34.5q0 -21 16 -34t39 -13t38.5 13t15.5 34q0 22 -15.5 34.5t-38.5 12.5zM95 568v-68h-43v113h239v-53l-153 -286l-42 19l146 275h-147zM345 257l-16 17l183 207
l45 -46zM267 213l16 -17l-183 -207l-45 46z" />
    <glyph glyph-name="minus" unicode="&#x2212;" 
d="M85 247v58h444v-58h-444z" />
    <glyph glyph-name="approxequal" unicode="&#x2248;" 
d="M546 198q-70 -59 -135 -59q-38 0 -103 28t-102 28q-60 0 -138 -66v66q70 59 136 59q38 0 102.5 -28t101.5 -28q60 0 138 66v-66zM546 353q-70 -59 -135 -59q-38 0 -103 28t-102 28q-60 0 -138 -66v66q70 59 136 59q38 0 102.5 -28t101.5 -28q60 0 138 66v-66z" />
    <glyph glyph-name="notequal" unicode="&#x2260;" 
d="M258 174l-88 -117l-38 26l68 91h-115v54h156l73 97h-229v54h269l85 113l37 -26l-65 -87h119v-54h-159l-73 -97h232v-54h-272z" />
    <glyph glyph-name="lessequal" unicode="&#x2264;" 
d="M107 308v67l391 162v-64l-327 -131l327 -132v-63zM107 36v57h391v-57h-391z" />
    <glyph glyph-name="greaterequal" unicode="&#x2265;" 
d="M507 308l-391 -161v63l327 132l-327 131v64l391 -162v-67zM507 36h-391v57h391v-57z" />
    <glyph glyph-name="i.dot" 
d="M357 84l26 -26h153v-58h-433v58h168l26 26v256l-26 26h-168v58h254v-340zM246 587q0 28 18.5 47.5t45.5 19.5q28 0 47.5 -19t19.5 -48q0 -27 -19.5 -45.5t-47.5 -18.5q-27 0 -45.5 18.5t-18.5 45.5z" />
    <glyph glyph-name="braceleft.cap" 
d="M85 243v62h58q91 0 91 67q0 8 -15.5 75.5t-15.5 92.5q0 60 40.5 96.5t107.5 36.5q64 0 111 -25l-15 -57q-42 23 -91 23q-43 0 -65.5 -20.5t-22.5 -57.5q0 -21 15.5 -86t15.5 -78q0 -38 -25 -63.5t-57 -34.5q32 -9 57 -34.5t25 -63.5q0 -13 -15.5 -78.5t-15.5 -86.5
q0 -37 22.5 -57.5t65.5 -20.5q49 0 91 23l15 -57q-47 -25 -111 -25q-67 0 -107.5 36.5t-40.5 96.5q0 25 15.5 93t15.5 76q0 67 -91 67h-58z" />
    <glyph glyph-name="braceright.cap" 
d="M529 243h-58q-91 0 -91 -67q0 -8 15.5 -76t15.5 -93q0 -60 -40.5 -96.5t-107.5 -36.5q-64 0 -111 25l15 57q42 -23 91 -23q43 0 65.5 20.5t22.5 57.5q0 21 -15.5 86.5t-15.5 78.5q0 38 25 63.5t57 34.5q-32 9 -57 34.5t-25 63.5q0 13 15.5 78t15.5 86q0 37 -22.5 57.5
t-65.5 20.5q-49 0 -91 -23l-15 57q47 25 111 25q67 0 107.5 -36.5t40.5 -96.5q0 -25 -15.5 -92.5t-15.5 -75.5q0 -67 91 -67h58v-62z" />
    <glyph glyph-name="bracketleft.cap" 
d="M239 612v-673h218v-58h-277v789h277v-58h-218z" />
    <glyph glyph-name="bracketright.cap" 
d="M375 612h-218v58h277v-789h-277v58h218v673z" />
    <glyph glyph-name="parenleft.cap" 
d="M231 276q0 -111 60 -202.5t161 -152.5l-34 -49q-251 152 -251 404t251 404l35 -49q-101 -61 -161.5 -152.5t-60.5 -202.5z" />
    <glyph glyph-name="parenright.cap" 
d="M383 276q0 111 -60.5 202.5t-161.5 152.5l35 49q251 -152 251 -404t-251 -404l-34 49q101 61 161 152.5t60 202.5z" />
    <glyph glyph-name="guillemotleft.cap" 
d="M498 145l-50 -40l-143 177l143 178l50 -41l-113 -137zM283 145l-50 -40l-143 177l143 178l50 -41l-113 -137z" />
    <glyph glyph-name="guillemotright.cap" 
d="M116 145l113 137l-113 137l50 41l143 -178l-143 -177zM331 145l113 137l-113 137l50 41l143 -178l-143 -177z" />
    <glyph glyph-name="guilsinglleft.cap" 
d="M290 282l113 -137l-50 -40l-143 177l143 178l50 -41z" />
    <glyph glyph-name="guilsinglright.cap" 
d="M324 282l-113 137l50 41l143 -178l-143 -177l-50 40z" />
    <glyph glyph-name="questiondown.cap" 
d="M287 385h73v-105q-97 -21 -144 -48t-47 -81q0 -53 41.5 -80.5t104.5 -27.5q53 0 91 21t44 47q-45 14 -45 50q0 21 17 37t42 16q27 0 46 -20t19 -50q0 -67 -61.5 -112.5t-152.5 -45.5q-93 0 -153.5 44.5t-60.5 120.5q0 70 48 108.5t138 61.5v64zM394 513q0 -29 -20 -49
t-48 -20t-48.5 20t-20.5 49t20.5 49t48.5 20t48 -20t20 -49z" />
    <glyph glyph-name="exclamdown.cap" 
d="M307 584q29 0 49 -20t20 -49t-20 -49t-49 -20q-28 0 -48 20t-20 49t20 49t48 20zM325 377l39 -320q4 -29 -12 -49t-45 -20q-28 0 -44.5 20t-11.5 49l38 320h36z" />
    <glyph glyph-name="slash.cap" 
d="M66 -86l428 746l55 -31l-428 -745z" />
    <glyph glyph-name="bar.cap" 
d="M340 660v-778h-66v778h66z" />
    <glyph glyph-name="backslash.cap" 
d="M548 -86l-55 -30l-428 745l55 31z" />
    <glyph glyph-name="a.ord" 
d="M369 369v55l-121 -38q-57 -11 -57 -43q0 -37 48 -37q62 0 130 63zM147 500q0 38 44 59.5t102 21.5q62 0 96 -30t34 -80v-125q0 -34 24 -34q14 0 41 24l26 -37q-39 -39 -77 -39q-26 0 -44.5 16.5t-22.5 45.5q-66 -62 -138 -62q-45 0 -72 21t-27 60q0 35 25 53.5t76 30.5
l135 37v11q0 31 -22.5 47.5t-62.5 16.5q-48 0 -76 -12q20 -7 20 -31q0 -15 -11 -24.5t-28 -9.5q-18 0 -30 11t-12 29z" />
    <glyph glyph-name="b.ord" 
d="M218 456v-72q41 -75 112 -75q46 0 73.5 31.5t27.5 79.5q0 47 -27.5 78.5t-73.5 31.5q-72 0 -112 -74zM218 269h-100v49h38l12 12v314l-12 11h-42v49h104v-186q40 62 116 62q66 0 110 -46t44 -114t-44 -114.5t-110 -46.5q-75 0 -116 62v-52z" />
    <glyph glyph-name="c.ord" 
d="M377 470q0 24 26 32q-23 29 -81 29q-50 0 -86 -30.5t-36 -80.5q0 -46 30.5 -77.5t87.5 -31.5q64 0 121 46l30 -40q-68 -58 -151 -58q-77 0 -126.5 46t-49.5 115q0 67 52 113.5t126 46.5q65 0 105.5 -30t40.5 -72q0 -21 -13.5 -35.5t-32.5 -14.5q-18 0 -30.5 12.5
t-12.5 29.5z" />
    <glyph glyph-name="d.ord" 
d="M396 383v73q-40 74 -112 74q-46 0 -73.5 -31.5t-27.5 -78.5q0 -48 27.5 -79.5t73.5 -31.5q72 0 112 74zM313 704h133v-374l12 -12h38v-49h-100v52q-40 -62 -116 -62q-66 0 -109.5 46t-43.5 115q0 68 43.5 114t109.5 46q76 0 116 -62v126l-11 11h-72v49z" />
    <glyph glyph-name="e.ord" 
d="M412 448l-1 5q-9 34 -35.5 55.5t-65.5 21.5q-40 0 -71 -22t-41 -60h214zM464 318q-68 -59 -149 -59q-76 0 -124.5 46t-48.5 115q0 68 48 114t120 46q79 0 122.5 -52t43.5 -125h-280q6 -39 37.5 -65.5t81.5 -26.5q65 0 121 45z" />
    <glyph glyph-name="f.ord" 
d="M268 558h122v-49h-100l-22 -21v-149l22 -21h101v-49h-257v49h63l21 21v149l-21 21h-63v49h84q0 70 43.5 113t117.5 43q55 0 89.5 -26.5t34.5 -64.5q0 -23 -14 -37.5t-36 -14.5q-21 0 -34.5 11.5t-13.5 28.5q0 14 10 25t26 12q-18 25 -60 25q-51 0 -82 -30t-31 -85z" />
    <glyph glyph-name="g.ord" 
d="M357 472q0 27 -20.5 43.5t-52.5 16.5q-31 0 -51 -16.5t-20 -43.5t20 -44t51 -17q32 0 52.5 17t20.5 44zM488 238q0 -47 -51.5 -79.5t-133.5 -32.5q-87 0 -136 26.5t-49 73.5q0 40 41 67q-19 16 -19 45q0 43 44 65q-27 29 -27 69q0 46 36 77t91 31q34 0 63 -13
q35 62 96 62q32 0 54 -18.5t22 -47.5q0 -21 -12.5 -34t-30.5 -13t-29.5 11.5t-11.5 27.5q0 19 18 27q-8 6 -16 6q-34 0 -58 -42q33 -30 33 -74q0 -47 -35.5 -78t-92.5 -31q-35 0 -67 15q-28 -15 -28 -33q0 -24 29 -24h162q50 0 79 -21t29 -62zM385 269h-189q-24 -17 -24 -39
q0 -55 131 -55q60 0 96.5 17t36.5 43q0 34 -51 34z" />
    <glyph glyph-name="h.ord" 
d="M229 459v-120l21 -21h37v-49h-169v49h39l22 21v295l-22 21h-39v49h111v-183q41 59 110 59q49 0 81.5 -30t32.5 -84v-127l21 -21h40v-49h-169v49h37l21 21v109q0 82 -67 82q-69 0 -107 -71z" />
    <glyph glyph-name="i.ord" 
d="M348 339l21 -21h102v-49h-311v49h116l21 21v161l-21 21h-116v49h188v-231zM259 683q0 23 15 38t36 15q23 0 38 -15t15 -38q0 -21 -15 -36t-38 -15q-21 0 -36 15t-15 36z" />
    <glyph glyph-name="j.ord" 
d="M139 244q0 26 15.5 44t38.5 18t36.5 -13t13.5 -32q0 -17 -11.5 -29t-29.5 -13q8 -20 28.5 -33t47.5 -13q46 0 71 30t25 87v210l-21 21h-147v49h218v-283q0 -75 -41 -117t-105 -42q-58 0 -98.5 35t-40.5 81zM334 683q0 23 15 38t36 15q23 0 38 -15t15 -38q0 -21 -15.5 -36
t-37.5 -15q-21 0 -36 15t-15 36z" />
    <glyph glyph-name="k.ord" 
d="M283 318v-49h-167v49h37l22 21v295l-22 21h-42v49h114v-288l144 95l-2 10h-40v49h164v-49h-33l-131 -85l104 -118h76v-49h-145v50l-77 90l-60 -39v-31l21 -21h37z" />
    <glyph glyph-name="l.ord" 
d="M348 339l21 -21h102v-49h-311v49h116l21 21v295l-21 21h-116v49h188v-365z" />
    <glyph glyph-name="m.ord" 
d="M510 269h-99v226q0 34 -29 34q-31 0 -49 -51v-209h-49v226q0 14 -7.5 24t-22.5 10q-29 0 -49 -51v-209h-94v49h34l12 12v180l-12 11h-34v49h94v-43q17 53 63 53q50 0 62 -51q18 51 67 51q29 0 46 -19t17 -52v-179l11 -12h39v-49z" />
    <glyph glyph-name="n.ord" 
d="M229 459v-120l21 -21h37v-49h-169v49h39l22 21v161l-22 21h-39v49h111v-49q41 59 110 59q49 0 81.5 -30t32.5 -84v-127l21 -21h40v-49h-169v49h37l21 21v109q0 82 -67 82q-69 0 -107 -71z" />
    <glyph glyph-name="o.ord" 
d="M138 420q0 68 48.5 114t120.5 46t120.5 -46t48.5 -114t-48.5 -114.5t-120.5 -46.5t-120.5 46.5t-48.5 114.5zM418 420q0 47 -31 78t-80 31t-80 -31t-31 -78q0 -48 31 -78.5t80 -30.5t80 30.5t31 78.5z" />
    <glyph glyph-name="p.ord" 
d="M218 456v-72q41 -75 112 -75q46 0 73.5 31.5t27.5 79.5q0 47 -27.5 78.5t-73.5 31.5q-72 0 -112 -74zM218 321v-125l12 -11h71v-49h-183v49h38l12 11v314l-12 11h-38v49h100v-52q40 62 116 62q66 0 110 -46t44 -114t-44 -114.5t-110 -46.5q-75 0 -116 62z" />
    <glyph glyph-name="q.ord" 
d="M396 456q-40 74 -112 74q-46 0 -73.5 -31.5t-27.5 -78.5q0 -48 27.5 -79.5t73.5 -31.5q71 0 112 75v72zM396 321q-41 -62 -116 -62q-66 0 -109.5 46.5t-43.5 114.5t43.5 114t109.5 46q76 0 116 -62v52h100v-49h-38l-12 -11v-314l12 -11h38v-49h-183v49h72l11 11v125z" />
    <glyph glyph-name="r.ord" 
d="M395 476q0 16 10.5 26t26.5 10q6 0 11 -3q-2 6 -4 8q-6 16 -37 16q-33 0 -66 -25.5t-76 -76.5v-92l21 -21h121v-49h-275v49h61l21 21v161l-21 21h-61v49h133v-79q71 89 141 89q46 0 69.5 -24.5t23.5 -58.5q0 -25 -15 -43.5t-39 -18.5q-20 0 -32.5 10.5t-12.5 30.5z" />
    <glyph glyph-name="s.ord" 
d="M358 386l-105 22q-48 10 -72.5 30.5t-24.5 55.5q0 38 31.5 62t79.5 24q73 0 113 -42l11 4v28h48v-106h-39q-19 31 -54.5 51t-70.5 20q-29 0 -46.5 -10.5t-17.5 -28.5q0 -17 13.5 -24.5t43.5 -13.5l110 -24q40 -8 61 -27t21 -55q0 -43 -33 -68t-88 -25q-82 0 -128 50
l-12 -8v-32h-48v114h45q56 -78 141 -78q31 0 50 11.5t19 33.5q0 16 -12 24t-36 12z" />
    <glyph glyph-name="t.ord" 
d="M209 500l-21 21h-68v49h89v109h53v-109h169v-49h-149l-21 -21v-90q0 -100 85 -100q34 0 59 15.5t50 46.5l33 -32q-58 -81 -142 -81q-64 0 -100.5 35t-36.5 109v97z" />
    <glyph glyph-name="u.ord" 
d="M331 570h112v-231l21 -21h39v-49h-111v50q-17 -25 -45.5 -42.5t-63.5 -17.5q-51 0 -83 30t-32 84v127l-21 21h-40v49h111v-178q0 -83 67 -83q71 0 107 71v120l-21 21h-40v49z" />
    <glyph glyph-name="v.ord" 
d="M350 521v49h153v-49h-38l-134 -252h-47l-135 252h-38v49h159v-49h-38l-14 -15l92 -179l91 179l-14 15h-37z" />
    <glyph glyph-name="w.ord" 
d="M343 487l39 -176h14l34 198l-11 12h-51v49h145v-49h-31l-50 -252h-83l-42 177l-41 -177h-84l-50 252h-31v49h148v-49h-52l-11 -12l35 -198h13l39 176h70z" />
    <glyph glyph-name="x.ord" 
d="M462 521l-121 -98l130 -105h33v-49h-171v49h46l9 12l-81 68l-82 -68l10 -12h46v-49h-170v49h33l129 105l-121 98h-34v49h167v-49h-41l-10 -11l73 -62l73 62l-9 11h-41v49h166v-49h-34z" />
    <glyph glyph-name="y.ord" 
d="M105 210q0 26 14.5 42.5t37.5 16.5q18 0 30.5 -11t12.5 -29q0 -17 -11 -27.5t-30 -9.5q5 -23 38 -23q23 0 41 23.5t48 82.5l-132 246h-38v49h158v-49h-38l-13 -15l91 -178l92 178l-14 15h-38v49h153v-49h-38l-140 -262q-19 -37 -30 -55t-27.5 -39.5t-34.5 -30t-40 -8.5
q-39 0 -65.5 23.5t-26.5 60.5z" />
    <glyph glyph-name="z.ord" 
d="M209 316h190l22 21v63h49v-131h-327v54l249 201h-170l-21 -21v-60h-49v127h307v-54z" />
    <glyph glyph-name="zero.dnom" 
d="M144 195q0 88 45 146.5t118 58.5t118 -58.5t45 -146.5t-45 -146.5t-118 -58.5t-118 58.5t-45 146.5zM412 195q0 65 -27.5 108.5t-77.5 43.5t-77.5 -43.5t-27.5 -108.5t27.5 -108.5t77.5 -43.5t77.5 43.5t27.5 108.5z" />
    <glyph glyph-name="one.dnom" 
d="M143 305l125 85h70v-321l21 -21h115v-48h-333v48h121l21 21v267l-111 -75z" />
    <glyph glyph-name="two.dnom" 
d="M189 267l-43 33q29 44 74 72t96 28q60 0 93 -32t33 -82q0 -22 -8 -41t-29 -39.5t-31 -29t-40 -31.5l-126 -96h178l23 20v51h50v-120h-311v64l149 119q5 4 16 13t15.5 12.5t13 11t12 11.5t9.5 10.5t8.5 11t5.5 10.5t4 12t1 13q0 26 -17.5 42t-48.5 16q-35 0 -69 -22
t-58 -57z" />
    <glyph glyph-name="three.dnom" 
d="M214 207l163 132h-208v51h263v-65l-118 -90l22 2q51 0 81.5 -31t30.5 -78q0 -82 -78.5 -132t-192.5 -66l-11 50q103 17 165 54t62 94q0 31 -20.5 50t-53.5 19q-38 0 -79 -25z" />
    <glyph glyph-name="four.dnom" 
d="M485 90h-73l-21 -21v-69h-55v69l-20 21h-187v67q47 53 98.5 131.5t79.5 144.5l56 -17q-50 -115 -179 -278h152v94h55v-94h94v-48z" />
    <glyph glyph-name="five.dnom" 
d="M179 -71l-10 50q221 35 221 145q0 28 -18.5 46.5t-51.5 18.5q-48 0 -74 -39h-70l11 240h243v-52h-194l-8 -139q13 17 40 28.5t57 11.5q59 0 89.5 -34.5t30.5 -80.5q0 -56 -40 -98.5t-97 -64.5t-129 -32z" />
    <glyph glyph-name="six.dnom" 
d="M313 263q60 0 99.5 -38.5t39.5 -98.5q0 -57 -42 -96.5t-102 -39.5q-81 0 -122 63q-24 40 -24 92q0 95 69 175t187 112l16 -49q-147 -42 -200 -157q31 37 79 37zM396 126q0 37 -25.5 61.5t-62.5 24.5t-62.5 -24.5t-25.5 -61.5q0 -36 25.5 -60.5t62.5 -24.5t62.5 24.5
t25.5 60.5z" />
    <glyph glyph-name="seven.dnom" 
d="M219 339l-21 -21v-71h-50v143h318v-60l-202 -402l-49 22l195 389h-191z" />
    <glyph glyph-name="eight.dnom" 
d="M307 237q35 0 57.5 18.5t22.5 50.5t-22 50t-58 18t-58 -18t-22 -50t22.5 -50.5t57.5 -18.5zM307 43q39 0 65 18.5t26 51.5q0 36 -25 54t-66 18t-66 -18t-25 -54q0 -33 26 -51.5t65 -18.5zM307 -9q-63 0 -105.5 33.5t-42.5 88.5q0 34 21.5 59t52.5 36v7q-25 10 -43 34
t-18 57q0 54 38 87t97 33t97 -33t38 -87q0 -33 -18 -57t-43 -34v-7q31 -11 52.5 -36t21.5 -59q0 -55 -42.5 -88.5t-105.5 -33.5z" />
    <glyph glyph-name="nine.dnom" 
d="M306 400q81 0 122 -63q24 -40 24 -92q0 -104 -74.5 -192.5t-192.5 -120.5l-15 49q81 23 134.5 72.5t76.5 110.5q-35 -37 -75 -37q-60 0 -102 39t-42 98q0 57 42 96.5t102 39.5zM218 264q0 -37 25.5 -62t62.5 -25t62.5 25t25.5 62q0 36 -25.5 60.5t-62.5 24.5t-62.5 -24.5
t-25.5 -60.5z" />
  </font>
</defs>
</svg>
